SplineFontDB: 3.2
FontName: Utilik
FullName: Utilik
FamilyName: Utilik
Weight: Regular
Copyright: Copyright (c) 2022 RandomMaerks (Bao Nguyen)
Version: 1.0
ItalicAngle: 0
UnderlinePosition: 153
UnderlineWidth: 102
Ascent: 1638
Descent: 410
InvalidEm: 0
sfntRevision: 0x00010000
LayerCount: 2
Layer: 0 1 "Back" 1
Layer: 1 1 "Fore" 0
XUID: [1021 301 932173752 7003]
StyleMap: 0x0040
FSType: 4
OS2Version: 2
OS2_WeightWidthSlopeOnly: 0
OS2_UseTypoMetrics: 0
CreationTime: 1653745012
ModificationTime: 1653745285
PfmFamily: 81
TTFWeight: 400
TTFWidth: 5
LineGap: 0
VLineGap: 0
Panose: 0 0 4 0 0 0 0 0 0 0
OS2TypoAscent: 1638
OS2TypoAOffset: 0
OS2TypoDescent: -409
OS2TypoDOffset: 0
OS2TypoLinegap: 0
OS2WinAscent: 1638
OS2WinAOffset: 0
OS2WinDescent: 409
OS2WinDOffset: 0
HheadAscent: 1638
HheadAOffset: 0
HheadDescent: -409
HheadDOffset: 0
OS2SubXSize: 1024
OS2SubYSize: 1024
OS2SubXOff: 0
OS2SubYOff: -204
OS2SupXSize: 1024
OS2SupYSize: 1024
OS2SupXOff: 0
OS2SupYOff: 1024
OS2StrikeYSize: 102
OS2StrikeYPos: 409
OS2CapHeight: 1228
OS2XHeight: 955
OS2Vendor: 'FSTR'
OS2CodePages: 200101ff.cdff0000
OS2UnicodeRanges: 20000003.00000000.00000000.00000000
Lookup: 258 0 0 "'kern' Horizontal Kerning in Latin lookup 0" { "'kern' Horizontal Kerning in Latin lookup 0 subtable"  } ['kern' ('latn' <'dflt' > ) ]
MarkAttachClasses: 1
DEI: 91125
ShortTable: maxp 16
  1
  0
  329
  60
  14
  0
  0
  2
  0
  0
  0
  0
  0
  0
  0
  0
EndShort
LangName: 1033 "" "" "" "Utilik" "" "1.0" "" "" "" "RandomMaerks"
Encoding: UnicodeBmp
Compacted: 1
UnicodeInterp: none
NameList: AGL For New Fonts
DisplaySize: -36
AntiAlias: 1
FitToEm: 0
WinInfo: 0 51 17
BeginPrivate: 0
EndPrivate
TeXData: 1 0 0 209408 104704 69802 488960 -1048576 69802 783286 444596 497025 792723 393216 433062 380633 303038 157286 324010 404750 52429 2506097 1059062 262144
BeginChars: 65537 329

StartChar: .notdef
Encoding: 65536 -1 0
Width: 1396
GlyphClass: 1
Flags: W
LayerCount: 2
Fore
SplineSet
1191 50 m 1,0,-1
 630 799 l 1,1,-1
 69 50 l 1,2,-1
 1191 50 l 1,0,-1
50 69 m 1,3,-1
 610 819 l 1,4,-1
 50 1569 l 1,5,-1
 50 69 l 1,6,-1
 50 69 l 1,3,-1
1210 69 m 1,7,-1
 1210 1569 l 1,8,-1
 649 819 l 1,9,-1
 1210 69 l 1,10,-1
 1210 69 l 1,7,-1
630 838 m 1,11,-1
 1191 1588 l 1,12,-1
 69 1588 l 1,13,-1
 630 838 l 1,14,-1
 630 838 l 1,11,-1
0 0 m 1,15,-1
 0 1638 l 1,16,-1
 1260 1638 l 1,17,-1
 1260 0 l 1,18,-1
 0 0 l 1,15,-1
EndSplineSet
EndChar

StartChar: exclam
Encoding: 33 33 2
Width: 273
GlyphClass: 1
Flags: W
LayerCount: 2
Fore
SplineSet
0 0 m 1,0,-1
 0 136 l 1,1,-1
 136 136 l 1,2,-1
 136 0 l 1,3,-1
 0 0 l 1,0,-1
0 273 m 1,4,-1
 0 1228 l 1,5,-1
 136 1228 l 1,6,-1
 136 273 l 1,7,-1
 0 273 l 1,4,-1
EndSplineSet
EndChar

StartChar: quotedbl
Encoding: 34 34 3
Width: 546
GlyphClass: 1
Flags: W
LayerCount: 2
Fore
SplineSet
0 955 m 1,0,-1
 0 1365 l 1,1,-1
 136 1365 l 1,2,-1
 136 955 l 1,3,-1
 0 955 l 1,0,-1
273 955 m 1,4,-1
 273 1365 l 1,5,-1
 409 1365 l 1,6,-1
 409 955 l 1,7,-1
 273 955 l 1,4,-1
EndSplineSet
EndChar

StartChar: numbersign
Encoding: 35 35 4
Width: 1092
GlyphClass: 1
Flags: W
LayerCount: 2
Fore
SplineSet
546 546 m 1,0,-1
 546 682 l 1,1,-1
 409 682 l 1,2,-1
 409 546 l 1,3,-1
 546 546 l 1,0,-1
273 0 m 1,4,-1
 273 409 l 1,5,-1
 0 409 l 1,6,-1
 0 546 l 1,7,-1
 273 546 l 1,8,-1
 273 682 l 1,9,-1
 0 682 l 1,10,-1
 0 819 l 1,11,-1
 273 819 l 1,12,-1
 273 1228 l 1,13,-1
 409 1228 l 1,14,-1
 409 819 l 1,15,-1
 546 819 l 1,16,-1
 546 1228 l 1,17,-1
 682 1228 l 1,18,-1
 682 819 l 1,19,-1
 955 819 l 1,20,-1
 955 682 l 1,21,-1
 682 682 l 1,22,-1
 682 546 l 1,23,-1
 955 546 l 1,24,-1
 955 409 l 1,25,-1
 682 409 l 1,26,-1
 682 0 l 1,27,-1
 546 0 l 1,28,-1
 546 409 l 1,29,-1
 409 409 l 1,30,-1
 409 0 l 1,31,-1
 273 0 l 1,4,-1
EndSplineSet
EndChar

StartChar: dollar
Encoding: 36 36 5
Width: 819
GlyphClass: 1
Flags: W
LayerCount: 2
Fore
SplineSet
273 -136 m 1,0,-1
 273 136 l 1,1,-1
 136 136 l 1,2,-1
 136 273 l 1,3,-1
 546 273 l 1,4,-1
 546 136 l 1,5,-1
 409 136 l 1,6,-1
 409 -136 l 1,7,-1
 273 -136 l 1,0,-1
0 273 m 1,8,-1
 0 409 l 1,9,-1
 136 409 l 1,10,-1
 136 273 l 1,11,-1
 0 273 l 1,8,-1
546 273 m 1,12,-1
 546 546 l 1,13,-1
 682 546 l 1,14,-1
 682 273 l 1,15,-1
 546 273 l 1,12,-1
136 546 m 1,16,-1
 136 682 l 1,17,-1
 546 682 l 1,18,-1
 546 546 l 1,19,-1
 136 546 l 1,16,-1
0 682 m 1,20,-1
 0 819 l 1,21,-1
 136 819 l 1,22,-1
 136 682 l 1,23,-1
 0 682 l 1,20,-1
136 819 m 1,24,-1
 136 955 l 1,25,-1
 273 955 l 1,26,-1
 273 1228 l 1,27,-1
 409 1228 l 1,28,-1
 409 955 l 1,29,-1
 546 955 l 1,30,-1
 546 819 l 1,31,-1
 136 819 l 1,24,-1
EndSplineSet
EndChar

StartChar: percent
Encoding: 37 37 6
Width: 1092
GlyphClass: 1
Flags: W
LayerCount: 2
Fore
SplineSet
682 0 m 1,0,-1
 682 136 l 1,1,-1
 819 136 l 1,2,-1
 819 0 l 1,3,-1
 682 0 l 1,0,-1
136 0 m 1,4,-1
 136 273 l 1,5,-1
 273 273 l 1,6,-1
 273 0 l 1,7,-1
 136 0 l 1,4,-1
546 136 m 1,8,-1
 546 409 l 1,9,-1
 682 409 l 1,10,-1
 682 136 l 1,11,-1
 546 136 l 1,8,-1
819 136 m 1,12,-1
 819 409 l 1,13,-1
 955 409 l 1,14,-1
 955 136 l 1,15,-1
 819 136 l 1,12,-1
273 273 m 1,16,-1
 273 546 l 1,17,-1
 409 546 l 1,18,-1
 409 273 l 1,19,-1
 273 273 l 1,16,-1
682 409 m 1,20,-1
 682 546 l 1,21,-1
 819 546 l 1,22,-1
 819 409 l 1,23,-1
 682 409 l 1,20,-1
409 546 m 1,24,-1
 409 682 l 1,25,-1
 546 682 l 1,26,-1
 546 546 l 1,27,-1
 409 546 l 1,24,-1
136 682 m 1,28,-1
 136 819 l 1,29,-1
 273 819 l 1,30,-1
 273 682 l 1,31,-1
 136 682 l 1,28,-1
546 682 m 1,32,-1
 546 955 l 1,33,-1
 682 955 l 1,34,-1
 682 682 l 1,35,-1
 546 682 l 1,32,-1
0 819 m 1,36,-1
 0 1092 l 1,37,-1
 136 1092 l 1,38,-1
 136 819 l 1,39,-1
 0 819 l 1,36,-1
273 819 m 1,40,-1
 273 1092 l 1,41,-1
 409 1092 l 1,42,-1
 409 819 l 1,43,-1
 273 819 l 1,40,-1
136 1092 m 1,44,-1
 136 1228 l 1,45,-1
 273 1228 l 1,46,-1
 273 1092 l 1,47,-1
 136 1092 l 1,44,-1
682 955 m 1,48,-1
 682 1228 l 1,49,-1
 819 1228 l 1,50,-1
 819 955 l 1,51,-1
 682 955 l 1,48,-1
EndSplineSet
EndChar

StartChar: ampersand
Encoding: 38 38 7
Width: 955
GlyphClass: 1
Flags: W
LayerCount: 2
Fore
SplineSet
136 0 m 1,0,-1
 136 136 l 1,1,-1
 409 136 l 1,2,-1
 409 0 l 1,3,-1
 136 0 l 1,0,-1
409 136 m 1,4,-1
 409 273 l 1,5,-1
 546 273 l 1,6,-1
 546 136 l 1,7,-1
 409 136 l 1,4,-1
682 0 m 1,8,-1
 682 273 l 1,9,-1
 819 273 l 1,10,-1
 819 0 l 1,11,-1
 682 0 l 1,8,-1
546 273 m 1,12,-1
 546 409 l 1,13,-1
 682 409 l 1,14,-1
 682 273 l 1,15,-1
 546 273 l 1,12,-1
0 136 m 1,16,-1
 0 546 l 1,17,-1
 136 546 l 1,18,-1
 136 136 l 1,19,-1
 0 136 l 1,16,-1
409 409 m 1,20,-1
 409 546 l 1,21,-1
 546 546 l 1,22,-1
 546 409 l 1,23,-1
 409 409 l 1,20,-1
682 409 m 1,24,-1
 682 682 l 1,25,-1
 819 682 l 1,26,-1
 819 409 l 1,27,-1
 682 409 l 1,24,-1
136 546 m 1,28,-1
 136 682 l 1,29,-1
 273 682 l 1,30,-1
 273 819 l 1,31,-1
 546 819 l 1,32,-1
 546 682 l 1,33,-1
 409 682 l 1,34,-1
 409 546 l 1,35,-1
 136 546 l 1,28,-1
136 819 m 1,36,-1
 136 1092 l 1,37,-1
 273 1092 l 1,38,-1
 273 819 l 1,39,-1
 136 819 l 1,36,-1
546 819 m 1,40,-1
 546 1092 l 1,41,-1
 682 1092 l 1,42,-1
 682 819 l 1,43,-1
 546 819 l 1,40,-1
273 1092 m 1,44,-1
 273 1228 l 1,45,-1
 546 1228 l 1,46,-1
 546 1092 l 1,47,-1
 273 1092 l 1,44,-1
EndSplineSet
EndChar

StartChar: quotesingle
Encoding: 39 39 8
Width: 273
GlyphClass: 1
Flags: W
LayerCount: 2
Fore
SplineSet
0 955 m 1,0,-1
 0 1365 l 1,1,-1
 136 1365 l 1,2,-1
 136 955 l 1,3,-1
 0 955 l 1,0,-1
EndSplineSet
EndChar

StartChar: parenleft
Encoding: 40 40 9
Width: 546
GlyphClass: 1
Flags: W
LayerCount: 2
Fore
SplineSet
273 0 m 1,0,-1
 273 136 l 1,1,-1
 409 136 l 1,2,-1
 409 0 l 1,3,-1
 273 0 l 1,0,-1
136 136 m 1,4,-1
 136 273 l 1,5,-1
 273 273 l 1,6,-1
 273 136 l 1,7,-1
 136 136 l 1,4,-1
0 273 m 1,8,-1
 0 955 l 1,9,-1
 136 955 l 1,10,-1
 136 273 l 1,11,-1
 0 273 l 1,8,-1
136 955 m 1,12,-1
 136 1092 l 1,13,-1
 273 1092 l 1,14,-1
 273 955 l 1,15,-1
 136 955 l 1,12,-1
273 1092 m 1,16,-1
 273 1228 l 1,17,-1
 409 1228 l 1,18,-1
 409 1092 l 1,19,-1
 273 1092 l 1,16,-1
EndSplineSet
EndChar

StartChar: parenright
Encoding: 41 41 10
Width: 546
GlyphClass: 1
Flags: W
LayerCount: 2
Fore
SplineSet
0 0 m 1,0,-1
 0 136 l 1,1,-1
 136 136 l 1,2,-1
 136 0 l 1,3,-1
 0 0 l 1,0,-1
136 136 m 1,4,-1
 136 273 l 1,5,-1
 273 273 l 1,6,-1
 273 136 l 1,7,-1
 136 136 l 1,4,-1
273 273 m 1,8,-1
 273 955 l 1,9,-1
 409 955 l 1,10,-1
 409 273 l 1,11,-1
 273 273 l 1,8,-1
136 955 m 1,12,-1
 136 1092 l 1,13,-1
 273 1092 l 1,14,-1
 273 955 l 1,15,-1
 136 955 l 1,12,-1
0 1092 m 1,16,-1
 0 1228 l 1,17,-1
 136 1228 l 1,18,-1
 136 1092 l 1,19,-1
 0 1092 l 1,16,-1
EndSplineSet
EndChar

StartChar: asterisk
Encoding: 42 42 11
Width: 546
GlyphClass: 1
Flags: W
LayerCount: 2
Fore
SplineSet
0 819 m 1,0,-1
 0 955 l 1,1,-1
 136 955 l 1,2,-1
 136 819 l 1,3,-1
 0 819 l 1,0,-1
273 819 m 1,4,-1
 273 955 l 1,5,-1
 409 955 l 1,6,-1
 409 819 l 1,7,-1
 273 819 l 1,4,-1
136 955 m 1,8,-1
 136 1092 l 1,9,-1
 273 1092 l 1,10,-1
 273 955 l 1,11,-1
 136 955 l 1,8,-1
0 1092 m 1,12,-1
 0 1228 l 1,13,-1
 136 1228 l 1,14,-1
 136 1092 l 1,15,-1
 0 1092 l 1,12,-1
273 1092 m 1,16,-1
 273 1228 l 1,17,-1
 409 1228 l 1,18,-1
 409 1092 l 1,19,-1
 273 1092 l 1,16,-1
EndSplineSet
EndChar

StartChar: plus
Encoding: 43 43 12
Width: 819
GlyphClass: 1
Flags: W
LayerCount: 2
Fore
SplineSet
273 136 m 1,0,-1
 273 409 l 1,1,-1
 0 409 l 1,2,-1
 0 546 l 1,3,-1
 273 546 l 1,4,-1
 273 819 l 1,5,-1
 409 819 l 1,6,-1
 409 546 l 1,7,-1
 682 546 l 1,8,-1
 682 409 l 1,9,-1
 409 409 l 1,10,-1
 409 136 l 1,11,-1
 273 136 l 1,0,-1
EndSplineSet
EndChar

StartChar: comma
Encoding: 44 44 13
Width: 273
GlyphClass: 1
Flags: W
LayerCount: 2
Fore
SplineSet
0 -136 m 1,0,-1
 0 136 l 1,1,-1
 136 136 l 1,2,-1
 136 -136 l 1,3,-1
 0 -136 l 1,0,-1
EndSplineSet
EndChar

StartChar: hyphen
Encoding: 45 45 14
Width: 819
GlyphClass: 1
Flags: W
LayerCount: 2
Fore
SplineSet
0 409 m 1,0,-1
 0 546 l 1,1,-1
 682 546 l 1,2,-1
 682 409 l 1,3,-1
 0 409 l 1,0,-1
EndSplineSet
EndChar

StartChar: period
Encoding: 46 46 15
Width: 273
GlyphClass: 1
Flags: W
LayerCount: 2
Fore
SplineSet
0 0 m 1,0,-1
 0 136 l 1,1,-1
 136 136 l 1,2,-1
 136 0 l 1,3,-1
 0 0 l 1,0,-1
EndSplineSet
EndChar

StartChar: slash
Encoding: 47 47 16
Width: 819
GlyphClass: 1
Flags: W
LayerCount: 2
Fore
SplineSet
0 0 m 1,0,-1
 0 273 l 1,1,-1
 136 273 l 1,2,-1
 136 0 l 1,3,-1
 0 0 l 1,0,-1
136 273 m 1,4,-1
 136 546 l 1,5,-1
 273 546 l 1,6,-1
 273 273 l 1,7,-1
 136 273 l 1,4,-1
273 546 m 1,8,-1
 273 682 l 1,9,-1
 409 682 l 1,10,-1
 409 546 l 1,11,-1
 273 546 l 1,8,-1
409 682 m 1,12,-1
 409 955 l 1,13,-1
 546 955 l 1,14,-1
 546 682 l 1,15,-1
 409 682 l 1,12,-1
546 955 m 1,16,-1
 546 1228 l 1,17,-1
 682 1228 l 1,18,-1
 682 955 l 1,19,-1
 546 955 l 1,16,-1
EndSplineSet
EndChar

StartChar: zero
Encoding: 48 48 17
Width: 819
GlyphClass: 1
Flags: W
LayerCount: 2
Fore
SplineSet
136 0 m 1,0,-1
 136 136 l 1,1,-1
 546 136 l 1,2,-1
 546 0 l 1,3,-1
 136 0 l 1,0,-1
273 546 m 1,4,-1
 273 682 l 1,5,-1
 409 682 l 1,6,-1
 409 546 l 1,7,-1
 273 546 l 1,4,-1
0 136 m 1,8,-1
 0 1092 l 1,9,-1
 136 1092 l 1,10,-1
 136 546 l 1,11,-1
 273 546 l 1,12,-1
 273 409 l 1,13,-1
 136 409 l 1,14,-1
 136 136 l 1,15,-1
 0 136 l 1,8,-1
546 136 m 1,16,-1
 546 682 l 1,17,-1
 409 682 l 1,18,-1
 409 819 l 1,19,-1
 546 819 l 1,20,-1
 546 1092 l 1,21,-1
 682 1092 l 1,22,-1
 682 136 l 1,23,-1
 546 136 l 1,16,-1
136 1092 m 1,24,-1
 136 1228 l 1,25,-1
 546 1228 l 1,26,-1
 546 1092 l 1,27,-1
 136 1092 l 1,24,-1
EndSplineSet
EndChar

StartChar: one
Encoding: 49 49 18
Width: 819
GlyphClass: 1
Flags: W
LayerCount: 2
Fore
SplineSet
0 0 m 1,0,-1
 0 136 l 1,1,-1
 273 136 l 1,2,-1
 273 955 l 1,3,-1
 0 955 l 1,4,-1
 0 1092 l 1,5,-1
 273 1092 l 1,6,-1
 273 1228 l 1,7,-1
 409 1228 l 1,8,-1
 409 136 l 1,9,-1
 682 136 l 1,10,-1
 682 0 l 1,11,-1
 0 0 l 1,0,-1
EndSplineSet
EndChar

StartChar: two
Encoding: 50 50 19
Width: 819
GlyphClass: 1
Flags: W
LayerCount: 2
Fore
SplineSet
0 0 m 1,0,-1
 0 273 l 1,1,-1
 136 273 l 1,2,-1
 136 136 l 1,3,-1
 682 136 l 1,4,-1
 682 0 l 1,5,-1
 0 0 l 1,0,-1
136 273 m 1,6,-1
 136 409 l 1,7,-1
 273 409 l 1,8,-1
 273 273 l 1,9,-1
 136 273 l 1,6,-1
273 409 m 1,10,-1
 273 546 l 1,11,-1
 409 546 l 1,12,-1
 409 409 l 1,13,-1
 273 409 l 1,10,-1
409 546 m 1,14,-1
 409 682 l 1,15,-1
 546 682 l 1,16,-1
 546 546 l 1,17,-1
 409 546 l 1,14,-1
136 682 m 1,18,-1
 136 819 l 1,19,-1
 273 819 l 1,20,-1
 273 682 l 1,21,-1
 136 682 l 1,18,-1
0 819 m 1,22,-1
 0 1092 l 1,23,-1
 136 1092 l 1,24,-1
 136 819 l 1,25,-1
 0 819 l 1,22,-1
546 682 m 1,26,-1
 546 1092 l 1,27,-1
 682 1092 l 1,28,-1
 682 682 l 1,29,-1
 546 682 l 1,26,-1
136 1092 m 1,30,-1
 136 1228 l 1,31,-1
 546 1228 l 1,32,-1
 546 1092 l 1,33,-1
 136 1092 l 1,30,-1
EndSplineSet
EndChar

StartChar: three
Encoding: 51 51 20
Width: 819
GlyphClass: 1
Flags: W
LayerCount: 2
Fore
SplineSet
136 0 m 1,0,-1
 136 136 l 1,1,-1
 546 136 l 1,2,-1
 546 0 l 1,3,-1
 136 0 l 1,0,-1
0 136 m 1,4,-1
 0 273 l 1,5,-1
 136 273 l 1,6,-1
 136 136 l 1,7,-1
 0 136 l 1,4,-1
546 136 m 1,8,-1
 546 546 l 1,9,-1
 682 546 l 1,10,-1
 682 136 l 1,11,-1
 546 136 l 1,8,-1
273 546 m 1,12,-1
 273 682 l 1,13,-1
 546 682 l 1,14,-1
 546 546 l 1,15,-1
 273 546 l 1,12,-1
0 819 m 1,16,-1
 0 1092 l 1,17,-1
 136 1092 l 1,18,-1
 136 819 l 1,19,-1
 0 819 l 1,16,-1
546 682 m 1,20,-1
 546 1092 l 1,21,-1
 682 1092 l 1,22,-1
 682 682 l 1,23,-1
 546 682 l 1,20,-1
136 1092 m 1,24,-1
 136 1228 l 1,25,-1
 546 1228 l 1,26,-1
 546 1092 l 1,27,-1
 136 1092 l 1,24,-1
EndSplineSet
EndChar

StartChar: four
Encoding: 52 52 21
Width: 819
GlyphClass: 1
Flags: W
LayerCount: 2
Fore
SplineSet
136 682 m 1,0,-1
 136 819 l 1,1,-1
 273 819 l 1,2,-1
 273 682 l 1,3,-1
 136 682 l 1,0,-1
546 0 m 1,4,-1
 546 409 l 1,5,-1
 0 409 l 1,6,-1
 0 682 l 1,7,-1
 136 682 l 1,8,-1
 136 546 l 1,9,-1
 546 546 l 1,10,-1
 546 1092 l 1,11,-1
 682 1092 l 1,12,-1
 682 0 l 1,13,-1
 546 0 l 1,4,-1
273 819 m 1,14,-1
 273 1228 l 1,15,-1
 409 1228 l 1,16,-1
 409 819 l 1,17,-1
 273 819 l 1,14,-1
EndSplineSet
EndChar

StartChar: five
Encoding: 53 53 22
Width: 819
GlyphClass: 1
Flags: W
LayerCount: 2
Fore
SplineSet
136 0 m 1,0,-1
 136 136 l 1,1,-1
 546 136 l 1,2,-1
 546 0 l 1,3,-1
 136 0 l 1,0,-1
0 136 m 1,4,-1
 0 273 l 1,5,-1
 136 273 l 1,6,-1
 136 136 l 1,7,-1
 0 136 l 1,4,-1
546 136 m 1,8,-1
 546 682 l 1,9,-1
 682 682 l 1,10,-1
 682 136 l 1,11,-1
 546 136 l 1,8,-1
273 682 m 1,12,-1
 273 819 l 1,13,-1
 546 819 l 1,14,-1
 546 682 l 1,15,-1
 273 682 l 1,12,-1
0 546 m 1,16,-1
 0 1228 l 1,17,-1
 682 1228 l 1,18,-1
 682 1092 l 1,19,-1
 136 1092 l 1,20,-1
 136 682 l 1,21,-1
 273 682 l 1,22,-1
 273 546 l 1,23,-1
 0 546 l 1,16,-1
EndSplineSet
EndChar

StartChar: six
Encoding: 54 54 23
Width: 819
GlyphClass: 1
Flags: W
LayerCount: 2
Fore
SplineSet
136 0 m 1,0,-1
 136 136 l 1,1,-1
 409 136 l 1,2,-1
 409 0 l 1,3,-1
 136 0 l 1,0,-1
409 136 m 1,4,-1
 409 273 l 1,5,-1
 546 273 l 1,6,-1
 546 136 l 1,7,-1
 409 136 l 1,4,-1
546 273 m 1,8,-1
 546 682 l 1,9,-1
 682 682 l 1,10,-1
 682 273 l 1,11,-1
 546 273 l 1,8,-1
273 682 m 1,12,-1
 273 819 l 1,13,-1
 546 819 l 1,14,-1
 546 682 l 1,15,-1
 273 682 l 1,12,-1
0 136 m 1,16,-1
 0 1092 l 1,17,-1
 136 1092 l 1,18,-1
 136 682 l 1,19,-1
 273 682 l 1,20,-1
 273 546 l 1,21,-1
 136 546 l 1,22,-1
 136 136 l 1,23,-1
 0 136 l 1,16,-1
546 955 m 1,24,-1
 546 1092 l 1,25,-1
 682 1092 l 1,26,-1
 682 955 l 1,27,-1
 546 955 l 1,24,-1
136 1092 m 1,28,-1
 136 1228 l 1,29,-1
 546 1228 l 1,30,-1
 546 1092 l 1,31,-1
 136 1092 l 1,28,-1
EndSplineSet
EndChar

StartChar: seven
Encoding: 55 55 24
Width: 819
GlyphClass: 1
Flags: W
LayerCount: 2
Fore
SplineSet
273 0 m 1,0,-1
 273 682 l 1,1,-1
 409 682 l 1,2,-1
 409 0 l 1,3,-1
 273 0 l 1,0,-1
409 682 m 1,4,-1
 409 955 l 1,5,-1
 546 955 l 1,6,-1
 546 682 l 1,7,-1
 409 682 l 1,4,-1
546 955 m 1,8,-1
 546 1092 l 1,9,-1
 0 1092 l 1,10,-1
 0 1228 l 1,11,-1
 682 1228 l 1,12,-1
 682 955 l 1,13,-1
 546 955 l 1,8,-1
EndSplineSet
EndChar

StartChar: eight
Encoding: 56 56 25
Width: 819
GlyphClass: 1
Flags: W
LayerCount: 2
Fore
SplineSet
136 0 m 1,0,-1
 136 136 l 1,1,-1
 546 136 l 1,2,-1
 546 0 l 1,3,-1
 136 0 l 1,0,-1
0 136 m 1,4,-1
 0 409 l 1,5,-1
 136 409 l 1,6,-1
 136 136 l 1,7,-1
 0 136 l 1,4,-1
546 136 m 1,8,-1
 546 409 l 1,9,-1
 682 409 l 1,10,-1
 682 136 l 1,11,-1
 546 136 l 1,8,-1
136 409 m 1,12,-1
 136 546 l 1,13,-1
 273 546 l 1,14,-1
 273 409 l 1,15,-1
 136 409 l 1,12,-1
409 409 m 1,16,-1
 409 546 l 1,17,-1
 546 546 l 1,18,-1
 546 409 l 1,19,-1
 409 409 l 1,16,-1
273 546 m 1,20,-1
 273 682 l 1,21,-1
 409 682 l 1,22,-1
 409 546 l 1,23,-1
 273 546 l 1,20,-1
136 682 m 1,24,-1
 136 819 l 1,25,-1
 273 819 l 1,26,-1
 273 682 l 1,27,-1
 136 682 l 1,24,-1
409 682 m 1,28,-1
 409 819 l 1,29,-1
 546 819 l 1,30,-1
 546 682 l 1,31,-1
 409 682 l 1,28,-1
0 819 m 1,32,-1
 0 1092 l 1,33,-1
 136 1092 l 1,34,-1
 136 819 l 1,35,-1
 0 819 l 1,32,-1
546 819 m 1,36,-1
 546 1092 l 1,37,-1
 682 1092 l 1,38,-1
 682 819 l 1,39,-1
 546 819 l 1,36,-1
136 1092 m 1,40,-1
 136 1228 l 1,41,-1
 546 1228 l 1,42,-1
 546 1092 l 1,43,-1
 136 1092 l 1,40,-1
EndSplineSet
EndChar

StartChar: nine
Encoding: 57 57 26
Width: 819
GlyphClass: 1
Flags: W
LayerCount: 2
Fore
SplineSet
136 0 m 1,0,-1
 136 136 l 1,1,-1
 546 136 l 1,2,-1
 546 0 l 1,3,-1
 136 0 l 1,0,-1
0 136 m 1,4,-1
 0 273 l 1,5,-1
 136 273 l 1,6,-1
 136 136 l 1,7,-1
 0 136 l 1,4,-1
136 546 m 1,8,-1
 136 682 l 1,9,-1
 273 682 l 1,10,-1
 273 546 l 1,11,-1
 136 546 l 1,8,-1
0 682 m 1,12,-1
 0 1092 l 1,13,-1
 136 1092 l 1,14,-1
 136 682 l 1,15,-1
 0 682 l 1,12,-1
546 136 m 1,16,-1
 546 409 l 1,17,-1
 273 409 l 1,18,-1
 273 546 l 1,19,-1
 546 546 l 1,20,-1
 546 1092 l 1,21,-1
 682 1092 l 1,22,-1
 682 136 l 1,23,-1
 546 136 l 1,16,-1
136 1092 m 1,24,-1
 136 1228 l 1,25,-1
 546 1228 l 1,26,-1
 546 1092 l 1,27,-1
 136 1092 l 1,24,-1
EndSplineSet
EndChar

StartChar: colon
Encoding: 58 58 27
Width: 273
GlyphClass: 1
Flags: W
LayerCount: 2
Fore
SplineSet
0 273 m 1,0,-1
 0 409 l 1,1,-1
 136 409 l 1,2,-1
 136 273 l 1,3,-1
 0 273 l 1,0,-1
0 682 m 1,4,-1
 0 819 l 1,5,-1
 136 819 l 1,6,-1
 136 682 l 1,7,-1
 0 682 l 1,4,-1
EndSplineSet
EndChar

StartChar: semicolon
Encoding: 59 59 28
Width: 273
GlyphClass: 1
Flags: W
LayerCount: 2
Fore
SplineSet
0 136 m 1,0,-1
 0 409 l 1,1,-1
 136 409 l 1,2,-1
 136 136 l 1,3,-1
 0 136 l 1,0,-1
0 682 m 1,4,-1
 0 819 l 1,5,-1
 136 819 l 1,6,-1
 136 682 l 1,7,-1
 0 682 l 1,4,-1
EndSplineSet
EndChar

StartChar: less
Encoding: 60 60 29
Width: 955
GlyphClass: 1
Flags: W
LayerCount: 2
Fore
SplineSet
682 0 m 1,0,-1
 682 136 l 1,1,-1
 819 136 l 1,2,-1
 819 0 l 1,3,-1
 682 0 l 1,0,-1
546 136 m 1,4,-1
 546 273 l 1,5,-1
 682 273 l 1,6,-1
 682 136 l 1,7,-1
 546 136 l 1,4,-1
273 273 m 1,8,-1
 273 409 l 1,9,-1
 546 409 l 1,10,-1
 546 273 l 1,11,-1
 273 273 l 1,8,-1
0 409 m 1,12,-1
 0 546 l 1,13,-1
 273 546 l 1,14,-1
 273 409 l 1,15,-1
 0 409 l 1,12,-1
273 546 m 1,16,-1
 273 682 l 1,17,-1
 546 682 l 1,18,-1
 546 546 l 1,19,-1
 273 546 l 1,16,-1
546 682 m 1,20,-1
 546 819 l 1,21,-1
 682 819 l 1,22,-1
 682 682 l 1,23,-1
 546 682 l 1,20,-1
682 819 m 1,24,-1
 682 955 l 1,25,-1
 819 955 l 1,26,-1
 819 819 l 1,27,-1
 682 819 l 1,24,-1
EndSplineSet
EndChar

StartChar: equal
Encoding: 61 61 30
Width: 819
GlyphClass: 1
Flags: W
LayerCount: 2
Fore
SplineSet
0 273 m 1,0,-1
 0 409 l 1,1,-1
 682 409 l 1,2,-1
 682 273 l 1,3,-1
 0 273 l 1,0,-1
0 682 m 1,4,-1
 0 819 l 1,5,-1
 682 819 l 1,6,-1
 682 682 l 1,7,-1
 0 682 l 1,4,-1
EndSplineSet
EndChar

StartChar: greater
Encoding: 62 62 31
Width: 955
GlyphClass: 1
Flags: W
LayerCount: 2
Fore
SplineSet
0 0 m 1,0,-1
 0 136 l 1,1,-1
 136 136 l 1,2,-1
 136 0 l 1,3,-1
 0 0 l 1,0,-1
136 136 m 1,4,-1
 136 273 l 1,5,-1
 273 273 l 1,6,-1
 273 136 l 1,7,-1
 136 136 l 1,4,-1
273 273 m 1,8,-1
 273 409 l 1,9,-1
 546 409 l 1,10,-1
 546 273 l 1,11,-1
 273 273 l 1,8,-1
546 409 m 1,12,-1
 546 546 l 1,13,-1
 819 546 l 1,14,-1
 819 409 l 1,15,-1
 546 409 l 1,12,-1
273 546 m 1,16,-1
 273 682 l 1,17,-1
 546 682 l 1,18,-1
 546 546 l 1,19,-1
 273 546 l 1,16,-1
136 682 m 1,20,-1
 136 819 l 1,21,-1
 273 819 l 1,22,-1
 273 682 l 1,23,-1
 136 682 l 1,20,-1
0 819 m 1,24,-1
 0 955 l 1,25,-1
 136 955 l 1,26,-1
 136 819 l 1,27,-1
 0 819 l 1,24,-1
EndSplineSet
EndChar

StartChar: question
Encoding: 63 63 32
Width: 819
GlyphClass: 1
Flags: W
LayerCount: 2
Fore
SplineSet
273 0 m 1,0,-1
 273 136 l 1,1,-1
 409 136 l 1,2,-1
 409 0 l 1,3,-1
 273 0 l 1,0,-1
273 273 m 1,4,-1
 273 546 l 1,5,-1
 409 546 l 1,6,-1
 409 273 l 1,7,-1
 273 273 l 1,4,-1
409 546 m 1,8,-1
 409 682 l 1,9,-1
 546 682 l 1,10,-1
 546 546 l 1,11,-1
 409 546 l 1,8,-1
136 682 m 1,12,-1
 136 819 l 1,13,-1
 273 819 l 1,14,-1
 273 682 l 1,15,-1
 136 682 l 1,12,-1
0 819 m 1,16,-1
 0 1092 l 1,17,-1
 136 1092 l 1,18,-1
 136 819 l 1,19,-1
 0 819 l 1,16,-1
546 682 m 1,20,-1
 546 1092 l 1,21,-1
 682 1092 l 1,22,-1
 682 682 l 1,23,-1
 546 682 l 1,20,-1
136 1092 m 1,24,-1
 136 1228 l 1,25,-1
 546 1228 l 1,26,-1
 546 1092 l 1,27,-1
 136 1092 l 1,24,-1
EndSplineSet
EndChar

StartChar: at
Encoding: 64 64 33
Width: 1228
GlyphClass: 1
Flags: W
LayerCount: 2
Fore
SplineSet
273 0 m 1,0,-1
 273 136 l 1,1,-1
 819 136 l 1,2,-1
 819 0 l 1,3,-1
 273 0 l 1,0,-1
136 136 m 1,4,-1
 136 273 l 1,5,-1
 273 273 l 1,6,-1
 273 136 l 1,7,-1
 136 136 l 1,4,-1
409 273 m 1,8,-1
 409 409 l 1,9,-1
 682 409 l 1,10,-1
 682 273 l 1,11,-1
 409 273 l 1,8,-1
819 273 m 1,12,-1
 819 409 l 1,13,-1
 955 409 l 1,14,-1
 955 273 l 1,15,-1
 819 273 l 1,12,-1
273 409 m 1,16,-1
 273 682 l 1,17,-1
 409 682 l 1,18,-1
 409 409 l 1,19,-1
 273 409 l 1,16,-1
0 273 m 1,20,-1
 0 819 l 1,21,-1
 136 819 l 1,22,-1
 136 273 l 1,23,-1
 0 273 l 1,20,-1
682 409 m 1,24,-1
 682 682 l 1,25,-1
 409 682 l 1,26,-1
 409 819 l 1,27,-1
 819 819 l 1,28,-1
 819 409 l 1,29,-1
 682 409 l 1,24,-1
136 819 m 1,30,-1
 136 955 l 1,31,-1
 273 955 l 1,32,-1
 273 819 l 1,33,-1
 136 819 l 1,30,-1
955 409 m 1,34,-1
 955 955 l 1,35,-1
 1092 955 l 1,36,-1
 1092 409 l 1,37,-1
 955 409 l 1,34,-1
273 955 m 1,38,-1
 273 1092 l 1,39,-1
 955 1092 l 1,40,-1
 955 955 l 1,41,-1
 273 955 l 1,38,-1
EndSplineSet
EndChar

StartChar: A
Encoding: 65 65 34
Width: 1092
GlyphClass: 1
Flags: W
LayerCount: 2
Fore
SplineSet
0 0 m 1,0,-1
 0 409 l 1,1,-1
 136 409 l 1,2,-1
 136 0 l 1,3,-1
 0 0 l 1,0,-1
819 0 m 1,4,-1
 819 409 l 1,5,-1
 955 409 l 1,6,-1
 955 0 l 1,7,-1
 819 0 l 1,4,-1
136 409 m 1,8,-1
 136 819 l 1,9,-1
 273 819 l 1,10,-1
 273 546 l 1,11,-1
 682 546 l 1,12,-1
 682 819 l 1,13,-1
 819 819 l 1,14,-1
 819 409 l 1,15,-1
 136 409 l 1,8,-1
273 819 m 1,16,-1
 273 1092 l 1,17,-1
 409 1092 l 1,18,-1
 409 819 l 1,19,-1
 273 819 l 1,16,-1
546 819 m 1,20,-1
 546 1092 l 1,21,-1
 682 1092 l 1,22,-1
 682 819 l 1,23,-1
 546 819 l 1,20,-1
409 1092 m 1,24,-1
 409 1228 l 1,25,-1
 546 1228 l 1,26,-1
 546 1092 l 1,27,-1
 409 1092 l 1,24,-1
EndSplineSet
EndChar

StartChar: B
Encoding: 66 66 35
Width: 955
GlyphClass: 1
Flags: W
LayerCount: 2
Fore
SplineSet
682 136 m 1,0,-1
 682 409 l 1,1,-1
 819 409 l 1,2,-1
 819 136 l 1,3,-1
 682 136 l 1,0,-1
546 409 m 1,4,-1
 546 546 l 1,5,-1
 682 546 l 1,6,-1
 682 409 l 1,7,-1
 546 409 l 1,4,-1
546 682 m 1,8,-1
 546 819 l 1,9,-1
 682 819 l 1,10,-1
 682 682 l 1,11,-1
 546 682 l 1,8,-1
682 819 m 1,12,-1
 682 1092 l 1,13,-1
 819 1092 l 1,14,-1
 819 819 l 1,15,-1
 682 819 l 1,12,-1
0 0 m 1,16,-1
 0 1228 l 1,17,-1
 682 1228 l 1,18,-1
 682 1092 l 1,19,-1
 136 1092 l 1,20,-1
 136 682 l 1,21,-1
 546 682 l 1,22,-1
 546 546 l 1,23,-1
 136 546 l 1,24,-1
 136 136 l 1,25,-1
 682 136 l 1,26,-1
 682 0 l 1,27,-1
 0 0 l 1,16,-1
EndSplineSet
EndChar

StartChar: C
Encoding: 67 67 36
Width: 955
GlyphClass: 1
Flags: W
LayerCount: 2
Fore
SplineSet
136 0 m 1,0,-1
 136 136 l 1,1,-1
 682 136 l 1,2,-1
 682 0 l 1,3,-1
 136 0 l 1,0,-1
682 136 m 1,4,-1
 682 273 l 1,5,-1
 819 273 l 1,6,-1
 819 136 l 1,7,-1
 682 136 l 1,4,-1
0 136 m 1,8,-1
 0 1092 l 1,9,-1
 136 1092 l 1,10,-1
 136 136 l 1,11,-1
 0 136 l 1,8,-1
682 682 m 1,12,-1
 682 1092 l 1,13,-1
 819 1092 l 1,14,-1
 819 682 l 1,15,-1
 682 682 l 1,12,-1
136 1092 m 1,16,-1
 136 1228 l 1,17,-1
 682 1228 l 1,18,-1
 682 1092 l 1,19,-1
 136 1092 l 1,16,-1
EndSplineSet
EndChar

StartChar: D
Encoding: 68 68 37
Width: 955
GlyphClass: 1
Flags: W
LayerCount: 2
Fore
SplineSet
546 136 m 1,0,-1
 546 273 l 1,1,-1
 682 273 l 1,2,-1
 682 136 l 1,3,-1
 546 136 l 1,0,-1
682 273 m 1,4,-1
 682 1092 l 1,5,-1
 819 1092 l 1,6,-1
 819 273 l 1,7,-1
 682 273 l 1,4,-1
0 0 m 1,8,-1
 0 1228 l 1,9,-1
 682 1228 l 1,10,-1
 682 1092 l 1,11,-1
 136 1092 l 1,12,-1
 136 136 l 1,13,-1
 546 136 l 1,14,-1
 546 0 l 1,15,-1
 0 0 l 1,8,-1
EndSplineSet
EndChar

StartChar: E
Encoding: 69 69 38
Width: 819
GlyphClass: 1
Flags: W
LayerCount: 2
Fore
SplineSet
0 0 m 1,0,-1
 0 1228 l 1,1,-1
 682 1228 l 1,2,-1
 682 1092 l 1,3,-1
 136 1092 l 1,4,-1
 136 682 l 1,5,-1
 546 682 l 1,6,-1
 546 546 l 1,7,-1
 136 546 l 1,8,-1
 136 136 l 1,9,-1
 682 136 l 1,10,-1
 682 0 l 1,11,-1
 0 0 l 1,0,-1
EndSplineSet
EndChar

StartChar: F
Encoding: 70 70 39
Width: 819
GlyphClass: 1
Flags: W
LayerCount: 2
Fore
SplineSet
0 0 m 1,0,-1
 0 1228 l 1,1,-1
 682 1228 l 1,2,-1
 682 1092 l 1,3,-1
 136 1092 l 1,4,-1
 136 682 l 1,5,-1
 546 682 l 1,6,-1
 546 546 l 1,7,-1
 136 546 l 1,8,-1
 136 0 l 1,9,-1
 0 0 l 1,0,-1
EndSplineSet
EndChar

StartChar: G
Encoding: 71 71 40
Width: 955
GlyphClass: 1
Flags: W
LayerCount: 2
Fore
SplineSet
136 0 m 1,0,-1
 136 136 l 1,1,-1
 409 136 l 1,2,-1
 409 0 l 1,3,-1
 136 0 l 1,0,-1
409 136 m 1,4,-1
 409 273 l 1,5,-1
 546 273 l 1,6,-1
 546 136 l 1,7,-1
 409 136 l 1,4,-1
682 0 m 1,8,-1
 682 273 l 1,9,-1
 546 273 l 1,10,-1
 546 409 l 1,11,-1
 273 409 l 1,12,-1
 273 546 l 1,13,-1
 819 546 l 1,14,-1
 819 0 l 1,15,-1
 682 0 l 1,8,-1
0 136 m 1,16,-1
 0 1092 l 1,17,-1
 136 1092 l 1,18,-1
 136 136 l 1,19,-1
 0 136 l 1,16,-1
682 682 m 1,20,-1
 682 1092 l 1,21,-1
 819 1092 l 1,22,-1
 819 682 l 1,23,-1
 682 682 l 1,20,-1
136 1092 m 1,24,-1
 136 1228 l 1,25,-1
 682 1228 l 1,26,-1
 682 1092 l 1,27,-1
 136 1092 l 1,24,-1
EndSplineSet
EndChar

StartChar: H
Encoding: 72 72 41
Width: 955
GlyphClass: 1
Flags: W
LayerCount: 2
Fore
SplineSet
0 0 m 1,0,-1
 0 1228 l 1,1,-1
 136 1228 l 1,2,-1
 136 682 l 1,3,-1
 682 682 l 1,4,-1
 682 1228 l 1,5,-1
 819 1228 l 1,6,-1
 819 0 l 1,7,-1
 682 0 l 1,8,-1
 682 546 l 1,9,-1
 136 546 l 1,10,-1
 136 0 l 1,11,-1
 0 0 l 1,0,-1
EndSplineSet
EndChar

StartChar: I
Encoding: 73 73 42
Width: 819
GlyphClass: 1
Flags: W
LayerCount: 2
Fore
SplineSet
0 0 m 1,0,-1
 0 136 l 1,1,-1
 273 136 l 1,2,-1
 273 1092 l 1,3,-1
 0 1092 l 1,4,-1
 0 1228 l 1,5,-1
 682 1228 l 1,6,-1
 682 1092 l 1,7,-1
 409 1092 l 1,8,-1
 409 136 l 1,9,-1
 682 136 l 1,10,-1
 682 0 l 1,11,-1
 0 0 l 1,0,-1
EndSplineSet
EndChar

StartChar: J
Encoding: 74 74 43
Width: 819
GlyphClass: 1
Flags: W
LayerCount: 2
Fore
SplineSet
136 0 m 1,0,-1
 136 136 l 1,1,-1
 546 136 l 1,2,-1
 546 0 l 1,3,-1
 136 0 l 1,0,-1
0 136 m 1,4,-1
 0 409 l 1,5,-1
 136 409 l 1,6,-1
 136 136 l 1,7,-1
 0 136 l 1,4,-1
546 136 m 1,8,-1
 546 1092 l 1,9,-1
 136 1092 l 1,10,-1
 136 1228 l 1,11,-1
 682 1228 l 1,12,-1
 682 136 l 1,13,-1
 546 136 l 1,8,-1
EndSplineSet
EndChar

StartChar: K
Encoding: 75 75 44
Width: 955
GlyphClass: 1
Flags: W
LayerCount: 2
Fore
SplineSet
682 0 m 1,0,-1
 682 136 l 1,1,-1
 819 136 l 1,2,-1
 819 0 l 1,3,-1
 682 0 l 1,0,-1
546 136 m 1,4,-1
 546 273 l 1,5,-1
 682 273 l 1,6,-1
 682 136 l 1,7,-1
 546 136 l 1,4,-1
409 273 m 1,8,-1
 409 409 l 1,9,-1
 546 409 l 1,10,-1
 546 273 l 1,11,-1
 409 273 l 1,8,-1
273 409 m 1,12,-1
 273 546 l 1,13,-1
 409 546 l 1,14,-1
 409 409 l 1,15,-1
 273 409 l 1,12,-1
273 682 m 1,16,-1
 273 819 l 1,17,-1
 409 819 l 1,18,-1
 409 682 l 1,19,-1
 273 682 l 1,16,-1
409 819 m 1,20,-1
 409 955 l 1,21,-1
 546 955 l 1,22,-1
 546 819 l 1,23,-1
 409 819 l 1,20,-1
546 955 m 1,24,-1
 546 1092 l 1,25,-1
 682 1092 l 1,26,-1
 682 955 l 1,27,-1
 546 955 l 1,24,-1
0 0 m 1,28,-1
 0 1228 l 1,29,-1
 136 1228 l 1,30,-1
 136 682 l 1,31,-1
 273 682 l 1,32,-1
 273 546 l 1,33,-1
 136 546 l 1,34,-1
 136 0 l 1,35,-1
 0 0 l 1,28,-1
682 1092 m 1,36,-1
 682 1228 l 1,37,-1
 819 1228 l 1,38,-1
 819 1092 l 1,39,-1
 682 1092 l 1,36,-1
EndSplineSet
EndChar

StartChar: L
Encoding: 76 76 45
Width: 819
GlyphClass: 1
Flags: W
LayerCount: 2
Fore
SplineSet
0 0 m 1,0,-1
 0 1228 l 1,1,-1
 136 1228 l 1,2,-1
 136 136 l 1,3,-1
 682 136 l 1,4,-1
 682 0 l 1,5,-1
 0 0 l 1,0,-1
EndSplineSet
EndChar

StartChar: M
Encoding: 77 77 46
Width: 1365
GlyphClass: 1
Flags: W
LayerCount: 2
Fore
SplineSet
546 0 m 1,0,-1
 546 136 l 1,1,-1
 682 136 l 1,2,-1
 682 0 l 1,3,-1
 546 0 l 1,0,-1
409 136 m 1,4,-1
 409 682 l 1,5,-1
 546 682 l 1,6,-1
 546 136 l 1,7,-1
 409 136 l 1,4,-1
682 136 m 1,8,-1
 682 682 l 1,9,-1
 819 682 l 1,10,-1
 819 136 l 1,11,-1
 682 136 l 1,8,-1
273 682 m 1,12,-1
 273 1092 l 1,13,-1
 409 1092 l 1,14,-1
 409 682 l 1,15,-1
 273 682 l 1,12,-1
819 682 m 1,16,-1
 819 1092 l 1,17,-1
 955 1092 l 1,18,-1
 955 682 l 1,19,-1
 819 682 l 1,16,-1
0 0 m 1,20,-1
 0 1228 l 1,21,-1
 273 1228 l 1,22,-1
 273 1092 l 1,23,-1
 136 1092 l 1,24,-1
 136 0 l 1,25,-1
 0 0 l 1,20,-1
1092 0 m 1,26,-1
 1092 1092 l 1,27,-1
 955 1092 l 1,28,-1
 955 1228 l 1,29,-1
 1228 1228 l 1,30,-1
 1228 0 l 1,31,-1
 1092 0 l 1,26,-1
EndSplineSet
EndChar

StartChar: N
Encoding: 78 78 47
Width: 955
GlyphClass: 1
Flags: W
LayerCount: 2
Fore
SplineSet
409 136 m 1,0,-1
 409 546 l 1,1,-1
 546 546 l 1,2,-1
 546 136 l 1,3,-1
 409 136 l 1,0,-1
273 546 m 1,4,-1
 273 1092 l 1,5,-1
 409 1092 l 1,6,-1
 409 546 l 1,7,-1
 273 546 l 1,4,-1
0 0 m 1,8,-1
 0 1228 l 1,9,-1
 273 1228 l 1,10,-1
 273 1092 l 1,11,-1
 136 1092 l 1,12,-1
 136 0 l 1,13,-1
 0 0 l 1,8,-1
546 0 m 1,14,-1
 546 136 l 1,15,-1
 682 136 l 1,16,-1
 682 1228 l 1,17,-1
 819 1228 l 1,18,-1
 819 0 l 1,19,-1
 546 0 l 1,14,-1
EndSplineSet
EndChar

StartChar: O
Encoding: 79 79 48
Width: 955
GlyphClass: 1
Flags: W
LayerCount: 2
Fore
SplineSet
136 0 m 1,0,-1
 136 136 l 1,1,-1
 682 136 l 1,2,-1
 682 0 l 1,3,-1
 136 0 l 1,0,-1
0 136 m 1,4,-1
 0 1092 l 1,5,-1
 136 1092 l 1,6,-1
 136 136 l 1,7,-1
 0 136 l 1,4,-1
682 136 m 1,8,-1
 682 1092 l 1,9,-1
 819 1092 l 1,10,-1
 819 136 l 1,11,-1
 682 136 l 1,8,-1
136 1092 m 1,12,-1
 136 1228 l 1,13,-1
 682 1228 l 1,14,-1
 682 1092 l 1,15,-1
 136 1092 l 1,12,-1
EndSplineSet
EndChar

StartChar: P
Encoding: 80 80 49
Width: 955
GlyphClass: 1
Flags: W
LayerCount: 2
Fore
SplineSet
546 546 m 1,0,-1
 546 682 l 1,1,-1
 682 682 l 1,2,-1
 682 546 l 1,3,-1
 546 546 l 1,0,-1
682 682 m 1,4,-1
 682 1092 l 1,5,-1
 819 1092 l 1,6,-1
 819 682 l 1,7,-1
 682 682 l 1,4,-1
0 0 m 1,8,-1
 0 1228 l 1,9,-1
 682 1228 l 1,10,-1
 682 1092 l 1,11,-1
 136 1092 l 1,12,-1
 136 546 l 1,13,-1
 546 546 l 1,14,-1
 546 409 l 1,15,-1
 136 409 l 1,16,-1
 136 0 l 1,17,-1
 0 0 l 1,8,-1
EndSplineSet
EndChar

StartChar: Q
Encoding: 81 81 50
Width: 955
GlyphClass: 1
Flags: W
LayerCount: 2
Fore
SplineSet
136 0 m 1,0,-1
 136 136 l 1,1,-1
 546 136 l 1,2,-1
 546 0 l 1,3,-1
 136 0 l 1,0,-1
682 0 m 1,4,-1
 682 136 l 1,5,-1
 819 136 l 1,6,-1
 819 0 l 1,7,-1
 682 0 l 1,4,-1
546 136 m 1,8,-1
 546 273 l 1,9,-1
 682 273 l 1,10,-1
 682 136 l 1,11,-1
 546 136 l 1,8,-1
409 273 m 1,12,-1
 409 409 l 1,13,-1
 546 409 l 1,14,-1
 546 273 l 1,15,-1
 409 273 l 1,12,-1
0 136 m 1,16,-1
 0 1092 l 1,17,-1
 136 1092 l 1,18,-1
 136 136 l 1,19,-1
 0 136 l 1,16,-1
682 273 m 1,20,-1
 682 1092 l 1,21,-1
 819 1092 l 1,22,-1
 819 273 l 1,23,-1
 682 273 l 1,20,-1
136 1092 m 1,24,-1
 136 1228 l 1,25,-1
 682 1228 l 1,26,-1
 682 1092 l 1,27,-1
 136 1092 l 1,24,-1
EndSplineSet
EndChar

StartChar: R
Encoding: 82 82 51
Width: 955
GlyphClass: 1
Flags: W
LayerCount: 2
Fore
SplineSet
682 0 m 1,0,-1
 682 273 l 1,1,-1
 819 273 l 1,2,-1
 819 0 l 1,3,-1
 682 0 l 1,0,-1
546 273 m 1,4,-1
 546 409 l 1,5,-1
 682 409 l 1,6,-1
 682 273 l 1,7,-1
 546 273 l 1,4,-1
546 546 m 1,8,-1
 546 682 l 1,9,-1
 682 682 l 1,10,-1
 682 546 l 1,11,-1
 546 546 l 1,8,-1
682 682 m 1,12,-1
 682 1092 l 1,13,-1
 819 1092 l 1,14,-1
 819 682 l 1,15,-1
 682 682 l 1,12,-1
0 0 m 1,16,-1
 0 1228 l 1,17,-1
 682 1228 l 1,18,-1
 682 1092 l 1,19,-1
 136 1092 l 1,20,-1
 136 546 l 1,21,-1
 546 546 l 1,22,-1
 546 409 l 1,23,-1
 136 409 l 1,24,-1
 136 0 l 1,25,-1
 0 0 l 1,16,-1
EndSplineSet
EndChar

StartChar: S
Encoding: 83 83 52
Width: 955
GlyphClass: 1
Flags: W
LayerCount: 2
Fore
SplineSet
136 0 m 1,0,-1
 136 136 l 1,1,-1
 682 136 l 1,2,-1
 682 0 l 1,3,-1
 136 0 l 1,0,-1
0 136 m 1,4,-1
 0 273 l 1,5,-1
 136 273 l 1,6,-1
 136 136 l 1,7,-1
 0 136 l 1,4,-1
682 136 m 1,8,-1
 682 409 l 1,9,-1
 819 409 l 1,10,-1
 819 136 l 1,11,-1
 682 136 l 1,8,-1
273 409 m 1,12,-1
 273 546 l 1,13,-1
 682 546 l 1,14,-1
 682 409 l 1,15,-1
 273 409 l 1,12,-1
136 546 m 1,16,-1
 136 682 l 1,17,-1
 273 682 l 1,18,-1
 273 546 l 1,19,-1
 136 546 l 1,16,-1
546 682 m 1,20,-1
 546 819 l 1,21,-1
 682 819 l 1,22,-1
 682 682 l 1,23,-1
 546 682 l 1,20,-1
0 682 m 1,24,-1
 0 955 l 1,25,-1
 136 955 l 1,26,-1
 136 682 l 1,27,-1
 0 682 l 1,24,-1
136 955 m 1,28,-1
 136 1092 l 1,29,-1
 273 1092 l 1,30,-1
 273 955 l 1,31,-1
 136 955 l 1,28,-1
682 819 m 1,32,-1
 682 1092 l 1,33,-1
 819 1092 l 1,34,-1
 819 819 l 1,35,-1
 682 819 l 1,32,-1
273 1092 m 1,36,-1
 273 1228 l 1,37,-1
 682 1228 l 1,38,-1
 682 1092 l 1,39,-1
 273 1092 l 1,36,-1
EndSplineSet
EndChar

StartChar: T
Encoding: 84 84 53
Width: 819
GlyphClass: 1
Flags: W
LayerCount: 2
Fore
SplineSet
273 0 m 1,0,-1
 273 1092 l 1,1,-1
 0 1092 l 1,2,-1
 0 1228 l 1,3,-1
 682 1228 l 1,4,-1
 682 1092 l 1,5,-1
 409 1092 l 1,6,-1
 409 0 l 1,7,-1
 273 0 l 1,0,-1
EndSplineSet
EndChar

StartChar: U
Encoding: 85 85 54
Width: 955
GlyphClass: 1
Flags: W
LayerCount: 2
Fore
SplineSet
136 0 m 1,0,-1
 136 136 l 1,1,-1
 682 136 l 1,2,-1
 682 0 l 1,3,-1
 136 0 l 1,0,-1
0 136 m 1,4,-1
 0 1228 l 1,5,-1
 136 1228 l 1,6,-1
 136 136 l 1,7,-1
 0 136 l 1,4,-1
682 136 m 1,8,-1
 682 1228 l 1,9,-1
 819 1228 l 1,10,-1
 819 136 l 1,11,-1
 682 136 l 1,8,-1
EndSplineSet
EndChar

StartChar: V
Encoding: 86 86 55
Width: 1092
GlyphClass: 1
Flags: W
LayerCount: 2
Fore
SplineSet
409 0 m 1,0,-1
 409 136 l 1,1,-1
 546 136 l 1,2,-1
 546 0 l 1,3,-1
 409 0 l 1,0,-1
273 136 m 1,4,-1
 273 409 l 1,5,-1
 409 409 l 1,6,-1
 409 136 l 1,7,-1
 273 136 l 1,4,-1
546 136 m 1,8,-1
 546 409 l 1,9,-1
 682 409 l 1,10,-1
 682 136 l 1,11,-1
 546 136 l 1,8,-1
136 409 m 1,12,-1
 136 682 l 1,13,-1
 273 682 l 1,14,-1
 273 409 l 1,15,-1
 136 409 l 1,12,-1
682 409 m 1,16,-1
 682 682 l 1,17,-1
 819 682 l 1,18,-1
 819 409 l 1,19,-1
 682 409 l 1,16,-1
0 682 m 1,20,-1
 0 1228 l 1,21,-1
 136 1228 l 1,22,-1
 136 682 l 1,23,-1
 0 682 l 1,20,-1
819 682 m 1,24,-1
 819 1228 l 1,25,-1
 955 1228 l 1,26,-1
 955 682 l 1,27,-1
 819 682 l 1,24,-1
EndSplineSet
EndChar

StartChar: W
Encoding: 87 87 56
Width: 1365
GlyphClass: 1
Flags: W
LayerCount: 2
Fore
SplineSet
273 0 m 1,0,-1
 273 136 l 1,1,-1
 409 136 l 1,2,-1
 409 0 l 1,3,-1
 273 0 l 1,0,-1
819 0 m 1,4,-1
 819 136 l 1,5,-1
 955 136 l 1,6,-1
 955 0 l 1,7,-1
 819 0 l 1,4,-1
136 136 m 1,8,-1
 136 682 l 1,9,-1
 273 682 l 1,10,-1
 273 136 l 1,11,-1
 136 136 l 1,8,-1
409 136 m 1,12,-1
 409 682 l 1,13,-1
 546 682 l 1,14,-1
 546 136 l 1,15,-1
 409 136 l 1,12,-1
682 136 m 1,16,-1
 682 682 l 1,17,-1
 819 682 l 1,18,-1
 819 136 l 1,19,-1
 682 136 l 1,16,-1
955 136 m 1,20,-1
 955 682 l 1,21,-1
 1092 682 l 1,22,-1
 1092 136 l 1,23,-1
 955 136 l 1,20,-1
0 682 m 1,24,-1
 0 1228 l 1,25,-1
 136 1228 l 1,26,-1
 136 682 l 1,27,-1
 0 682 l 1,24,-1
546 682 m 1,28,-1
 546 1228 l 1,29,-1
 682 1228 l 1,30,-1
 682 682 l 1,31,-1
 546 682 l 1,28,-1
1092 682 m 1,32,-1
 1092 1228 l 1,33,-1
 1228 1228 l 1,34,-1
 1228 682 l 1,35,-1
 1092 682 l 1,32,-1
EndSplineSet
EndChar

StartChar: X
Encoding: 88 88 57
Width: 955
GlyphClass: 1
Flags: W
LayerCount: 2
Fore
SplineSet
0 0 m 1,0,-1
 0 409 l 1,1,-1
 136 409 l 1,2,-1
 136 0 l 1,3,-1
 0 0 l 1,0,-1
682 0 m 1,4,-1
 682 409 l 1,5,-1
 819 409 l 1,6,-1
 819 0 l 1,7,-1
 682 0 l 1,4,-1
136 409 m 1,8,-1
 136 546 l 1,9,-1
 273 546 l 1,10,-1
 273 409 l 1,11,-1
 136 409 l 1,8,-1
546 409 m 1,12,-1
 546 546 l 1,13,-1
 682 546 l 1,14,-1
 682 409 l 1,15,-1
 546 409 l 1,12,-1
273 546 m 1,16,-1
 273 682 l 1,17,-1
 546 682 l 1,18,-1
 546 546 l 1,19,-1
 273 546 l 1,16,-1
136 682 m 1,20,-1
 136 819 l 1,21,-1
 273 819 l 1,22,-1
 273 682 l 1,23,-1
 136 682 l 1,20,-1
546 682 m 1,24,-1
 546 819 l 1,25,-1
 682 819 l 1,26,-1
 682 682 l 1,27,-1
 546 682 l 1,24,-1
0 819 m 1,28,-1
 0 1228 l 1,29,-1
 136 1228 l 1,30,-1
 136 819 l 1,31,-1
 0 819 l 1,28,-1
682 819 m 1,32,-1
 682 1228 l 1,33,-1
 819 1228 l 1,34,-1
 819 819 l 1,35,-1
 682 819 l 1,32,-1
EndSplineSet
EndChar

StartChar: Y
Encoding: 89 89 58
Width: 819
GlyphClass: 1
Flags: W
LayerCount: 2
Fore
SplineSet
273 0 m 1,0,-1
 273 682 l 1,1,-1
 409 682 l 1,2,-1
 409 0 l 1,3,-1
 273 0 l 1,0,-1
136 682 m 1,4,-1
 136 819 l 1,5,-1
 273 819 l 1,6,-1
 273 682 l 1,7,-1
 136 682 l 1,4,-1
409 682 m 1,8,-1
 409 819 l 1,9,-1
 546 819 l 1,10,-1
 546 682 l 1,11,-1
 409 682 l 1,8,-1
0 819 m 1,12,-1
 0 1228 l 1,13,-1
 136 1228 l 1,14,-1
 136 819 l 1,15,-1
 0 819 l 1,12,-1
546 819 m 1,16,-1
 546 1228 l 1,17,-1
 682 1228 l 1,18,-1
 682 819 l 1,19,-1
 546 819 l 1,16,-1
EndSplineSet
EndChar

StartChar: Z
Encoding: 90 90 59
Width: 955
GlyphClass: 1
Flags: W
LayerCount: 2
Fore
SplineSet
0 0 m 1,0,-1
 0 409 l 1,1,-1
 136 409 l 1,2,-1
 136 136 l 1,3,-1
 819 136 l 1,4,-1
 819 0 l 1,5,-1
 0 0 l 1,0,-1
136 409 m 1,6,-1
 136 546 l 1,7,-1
 273 546 l 1,8,-1
 273 409 l 1,9,-1
 136 409 l 1,6,-1
273 546 m 1,10,-1
 273 682 l 1,11,-1
 546 682 l 1,12,-1
 546 546 l 1,13,-1
 273 546 l 1,10,-1
546 682 m 1,14,-1
 546 819 l 1,15,-1
 682 819 l 1,16,-1
 682 682 l 1,17,-1
 546 682 l 1,14,-1
682 819 m 1,18,-1
 682 1092 l 1,19,-1
 0 1092 l 1,20,-1
 0 1228 l 1,21,-1
 819 1228 l 1,22,-1
 819 819 l 1,23,-1
 682 819 l 1,18,-1
EndSplineSet
EndChar

StartChar: bracketleft
Encoding: 91 91 60
Width: 546
GlyphClass: 1
Flags: W
LayerCount: 2
Fore
SplineSet
0 0 m 1,0,-1
 0 1228 l 1,1,-1
 409 1228 l 1,2,-1
 409 1092 l 1,3,-1
 136 1092 l 1,4,-1
 136 136 l 1,5,-1
 409 136 l 1,6,-1
 409 0 l 1,7,-1
 0 0 l 1,0,-1
EndSplineSet
EndChar

StartChar: backslash
Encoding: 92 92 61
Width: 819
GlyphClass: 1
Flags: W
LayerCount: 2
Fore
SplineSet
546 0 m 1,0,-1
 546 273 l 1,1,-1
 682 273 l 1,2,-1
 682 0 l 1,3,-1
 546 0 l 1,0,-1
409 273 m 1,4,-1
 409 546 l 1,5,-1
 546 546 l 1,6,-1
 546 273 l 1,7,-1
 409 273 l 1,4,-1
273 546 m 1,8,-1
 273 682 l 1,9,-1
 409 682 l 1,10,-1
 409 546 l 1,11,-1
 273 546 l 1,8,-1
136 682 m 1,12,-1
 136 955 l 1,13,-1
 273 955 l 1,14,-1
 273 682 l 1,15,-1
 136 682 l 1,12,-1
0 955 m 1,16,-1
 0 1228 l 1,17,-1
 136 1228 l 1,18,-1
 136 955 l 1,19,-1
 0 955 l 1,16,-1
EndSplineSet
EndChar

StartChar: bracketright
Encoding: 93 93 62
Width: 546
GlyphClass: 1
Flags: W
LayerCount: 2
Fore
SplineSet
0 0 m 1,0,-1
 0 136 l 1,1,-1
 273 136 l 1,2,-1
 273 1092 l 1,3,-1
 0 1092 l 1,4,-1
 0 1228 l 1,5,-1
 409 1228 l 1,6,-1
 409 0 l 1,7,-1
 0 0 l 1,0,-1
EndSplineSet
EndChar

StartChar: asciicircum
Encoding: 94 94 63
Width: 819
GlyphClass: 1
Flags: W
LayerCount: 2
Fore
SplineSet
0 819 m 1,0,-1
 0 955 l 1,1,-1
 136 955 l 1,2,-1
 136 819 l 1,3,-1
 0 819 l 1,0,-1
546 819 m 1,4,-1
 546 955 l 1,5,-1
 682 955 l 1,6,-1
 682 819 l 1,7,-1
 546 819 l 1,4,-1
136 955 m 1,8,-1
 136 1092 l 1,9,-1
 273 1092 l 1,10,-1
 273 955 l 1,11,-1
 136 955 l 1,8,-1
409 955 m 1,12,-1
 409 1092 l 1,13,-1
 546 1092 l 1,14,-1
 546 955 l 1,15,-1
 409 955 l 1,12,-1
273 1092 m 1,16,-1
 273 1228 l 1,17,-1
 409 1228 l 1,18,-1
 409 1092 l 1,19,-1
 273 1092 l 1,16,-1
EndSplineSet
EndChar

StartChar: underscore
Encoding: 95 95 64
Width: 955
GlyphClass: 1
Flags: W
LayerCount: 2
Fore
SplineSet
0 -136 m 1,0,-1
 0 0 l 1,1,-1
 819 0 l 1,2,-1
 819 -136 l 1,3,-1
 0 -136 l 1,0,-1
EndSplineSet
EndChar

StartChar: grave
Encoding: 96 96 65
Width: 409
GlyphClass: 1
Flags: W
LayerCount: 2
Fore
SplineSet
136 955 m 1,0,-1
 136 1092 l 1,1,-1
 273 1092 l 1,2,-1
 273 955 l 1,3,-1
 136 955 l 1,0,-1
0 1092 m 1,4,-1
 0 1228 l 1,5,-1
 136 1228 l 1,6,-1
 136 1092 l 1,7,-1
 0 1092 l 1,4,-1
EndSplineSet
EndChar

StartChar: a
Encoding: 97 97 66
Width: 956
GlyphClass: 1
Flags: W
LayerCount: 2
Fore
SplineSet
136 0 m 1,0,-1
 136 136 l 1,1,-1
 546 136 l 1,2,-1
 546 0 l 1,3,-1
 136 0 l 1,0,-1
682 0 m 1,4,-1
 682 136 l 1,5,-1
 819 136 l 1,6,-1
 819 0 l 1,7,-1
 682 0 l 1,4,-1
0 136 m 1,8,-1
 0 273 l 1,9,-1
 136 273 l 1,10,-1
 136 136 l 1,11,-1
 0 136 l 1,8,-1
136 273 m 1,12,-1
 136 409 l 1,13,-1
 273 409 l 1,14,-1
 273 273 l 1,15,-1
 136 273 l 1,12,-1
0 546 m 1,16,-1
 0 819 l 1,17,-1
 136 819 l 1,18,-1
 136 546 l 1,19,-1
 0 546 l 1,16,-1
546 136 m 1,20,-1
 546 409 l 1,21,-1
 273 409 l 1,22,-1
 273 546 l 1,23,-1
 546 546 l 1,24,-1
 546 819 l 1,25,-1
 682 819 l 1,26,-1
 682 136 l 1,27,-1
 546 136 l 1,20,-1
136 819 m 1,28,-1
 136 955 l 1,29,-1
 546 955 l 1,30,-1
 546 819 l 1,31,-1
 136 819 l 1,28,-1
EndSplineSet
EndChar

StartChar: b
Encoding: 98 98 67
Width: 819
GlyphClass: 1
Flags: W
LayerCount: 2
Fore
SplineSet
273 0 m 1,0,-1
 273 136 l 1,1,-1
 546 136 l 1,2,-1
 546 0 l 1,3,-1
 273 0 l 1,0,-1
546 136 m 1,4,-1
 546 819 l 1,5,-1
 682 819 l 1,6,-1
 682 136 l 1,7,-1
 546 136 l 1,4,-1
273 819 m 1,8,-1
 273 955 l 1,9,-1
 546 955 l 1,10,-1
 546 819 l 1,11,-1
 273 819 l 1,8,-1
0 0 m 1,12,-1
 0 1228 l 1,13,-1
 136 1228 l 1,14,-1
 136 819 l 1,15,-1
 273 819 l 1,16,-1
 273 682 l 1,17,-1
 136 682 l 1,18,-1
 136 273 l 1,19,-1
 273 273 l 1,20,-1
 273 136 l 1,21,-1
 136 136 l 1,22,-1
 136 0 l 1,23,-1
 0 0 l 1,12,-1
EndSplineSet
EndChar

StartChar: c
Encoding: 99 99 68
Width: 819
GlyphClass: 1
Flags: W
LayerCount: 2
Fore
SplineSet
136 0 m 1,0,-1
 136 136 l 1,1,-1
 546 136 l 1,2,-1
 546 0 l 1,3,-1
 136 0 l 1,0,-1
546 136 m 1,4,-1
 546 273 l 1,5,-1
 682 273 l 1,6,-1
 682 136 l 1,7,-1
 546 136 l 1,4,-1
0 136 m 1,8,-1
 0 819 l 1,9,-1
 136 819 l 1,10,-1
 136 136 l 1,11,-1
 0 136 l 1,8,-1
546 546 m 1,12,-1
 546 819 l 1,13,-1
 682 819 l 1,14,-1
 682 546 l 1,15,-1
 546 546 l 1,12,-1
136 819 m 1,16,-1
 136 955 l 1,17,-1
 546 955 l 1,18,-1
 546 819 l 1,19,-1
 136 819 l 1,16,-1
EndSplineSet
EndChar

StartChar: d
Encoding: 100 100 69
Width: 819
GlyphClass: 1
Flags: W
LayerCount: 2
Fore
SplineSet
136 0 m 1,0,-1
 136 136 l 1,1,-1
 409 136 l 1,2,-1
 409 0 l 1,3,-1
 136 0 l 1,0,-1
0 136 m 1,4,-1
 0 819 l 1,5,-1
 136 819 l 1,6,-1
 136 136 l 1,7,-1
 0 136 l 1,4,-1
136 819 m 1,8,-1
 136 955 l 1,9,-1
 409 955 l 1,10,-1
 409 819 l 1,11,-1
 136 819 l 1,8,-1
546 0 m 1,12,-1
 546 136 l 1,13,-1
 409 136 l 1,14,-1
 409 273 l 1,15,-1
 546 273 l 1,16,-1
 546 682 l 1,17,-1
 409 682 l 1,18,-1
 409 819 l 1,19,-1
 546 819 l 1,20,-1
 546 1228 l 1,21,-1
 682 1228 l 1,22,-1
 682 0 l 1,23,-1
 546 0 l 1,12,-1
EndSplineSet
EndChar

StartChar: e
Encoding: 101 101 70
Width: 819
GlyphClass: 1
Flags: W
LayerCount: 2
Fore
SplineSet
136 0 m 1,0,-1
 136 136 l 1,1,-1
 546 136 l 1,2,-1
 546 0 l 1,3,-1
 136 0 l 1,0,-1
546 136 m 1,4,-1
 546 273 l 1,5,-1
 682 273 l 1,6,-1
 682 136 l 1,7,-1
 546 136 l 1,4,-1
0 136 m 1,8,-1
 0 819 l 1,9,-1
 136 819 l 1,10,-1
 136 546 l 1,11,-1
 546 546 l 1,12,-1
 546 819 l 1,13,-1
 682 819 l 1,14,-1
 682 409 l 1,15,-1
 136 409 l 1,16,-1
 136 136 l 1,17,-1
 0 136 l 1,8,-1
136 819 m 1,18,-1
 136 955 l 1,19,-1
 546 955 l 1,20,-1
 546 819 l 1,21,-1
 136 819 l 1,18,-1
EndSplineSet
EndChar

StartChar: f
Encoding: 102 102 71
Width: 819
GlyphClass: 1
Flags: W
LayerCount: 2
Fore
SplineSet
273 0 m 1,0,-1
 273 819 l 1,1,-1
 0 819 l 1,2,-1
 0 955 l 1,3,-1
 136 955 l 1,4,-1
 136 1228 l 1,5,-1
 546 1228 l 1,6,-1
 546 1092 l 1,7,-1
 273 1092 l 1,8,-1
 273 955 l 1,9,-1
 682 955 l 1,10,-1
 682 819 l 1,11,-1
 409 819 l 1,12,-1
 409 0 l 1,13,-1
 273 0 l 1,0,-1
EndSplineSet
EndChar

StartChar: g
Encoding: 103 103 72
Width: 819
GlyphClass: 1
Flags: W
LayerCount: 2
Fore
SplineSet
136 -273 m 1,0,-1
 136 -136 l 1,1,-1
 546 -136 l 1,2,-1
 546 -273 l 1,3,-1
 136 -273 l 1,0,-1
0 -136 m 1,4,-1
 0 136 l 1,5,-1
 136 136 l 1,6,-1
 136 -136 l 1,7,-1
 0 -136 l 1,4,-1
546 -136 m 1,8,-1
 546 136 l 1,9,-1
 682 136 l 1,10,-1
 682 -136 l 1,11,-1
 546 -136 l 1,8,-1
136 136 m 1,12,-1
 136 273 l 1,13,-1
 546 273 l 1,14,-1
 546 136 l 1,15,-1
 136 136 l 1,12,-1
0 273 m 1,16,-1
 0 409 l 1,17,-1
 136 409 l 1,18,-1
 136 273 l 1,19,-1
 0 273 l 1,16,-1
136 409 m 1,20,-1
 136 546 l 1,21,-1
 546 546 l 1,22,-1
 546 409 l 1,23,-1
 136 409 l 1,20,-1
0 546 m 1,24,-1
 0 819 l 1,25,-1
 136 819 l 1,26,-1
 136 546 l 1,27,-1
 0 546 l 1,24,-1
546 546 m 1,28,-1
 546 819 l 1,29,-1
 682 819 l 1,30,-1
 682 546 l 1,31,-1
 546 546 l 1,28,-1
136 819 m 1,32,-1
 136 955 l 1,33,-1
 409 955 l 1,34,-1
 409 1092 l 1,35,-1
 682 1092 l 1,36,-1
 682 955 l 1,37,-1
 546 955 l 1,38,-1
 546 819 l 1,39,-1
 136 819 l 1,32,-1
EndSplineSet
EndChar

StartChar: h
Encoding: 104 104 73
Width: 819
GlyphClass: 1
Flags: W
LayerCount: 2
Fore
SplineSet
546 0 m 1,0,-1
 546 819 l 1,1,-1
 682 819 l 1,2,-1
 682 0 l 1,3,-1
 546 0 l 1,0,-1
273 819 m 1,4,-1
 273 955 l 1,5,-1
 546 955 l 1,6,-1
 546 819 l 1,7,-1
 273 819 l 1,4,-1
0 0 m 1,8,-1
 0 1228 l 1,9,-1
 136 1228 l 1,10,-1
 136 819 l 1,11,-1
 273 819 l 1,12,-1
 273 682 l 1,13,-1
 136 682 l 1,14,-1
 136 0 l 1,15,-1
 0 0 l 1,8,-1
EndSplineSet
EndChar

StartChar: i
Encoding: 105 105 74
Width: 273
GlyphClass: 1
Flags: W
LayerCount: 2
Fore
SplineSet
0 0 m 1,0,-1
 0 955 l 1,1,-1
 136 955 l 1,2,-1
 136 0 l 1,3,-1
 0 0 l 1,0,-1
0 1092 m 1,4,-1
 0 1228 l 1,5,-1
 136 1228 l 1,6,-1
 136 1092 l 1,7,-1
 0 1092 l 1,4,-1
EndSplineSet
EndChar

StartChar: j
Encoding: 106 106 75
Width: 273
GlyphClass: 1
Flags: W
LayerCount: 2
Fore
SplineSet
-136 -273 m 1,0,-1
 -136 -136 l 1,1,-1
 0 -136 l 1,2,-1
 0 -273 l 1,3,-1
 -136 -273 l 1,0,-1
0 -136 m 1,4,-1
 0 955 l 1,5,-1
 136 955 l 1,6,-1
 136 -136 l 1,7,-1
 0 -136 l 1,4,-1
0 1092 m 1,8,-1
 0 1228 l 1,9,-1
 136 1228 l 1,10,-1
 136 1092 l 1,11,-1
 0 1092 l 1,8,-1
EndSplineSet
EndChar

StartChar: k
Encoding: 107 107 76
Width: 819
GlyphClass: 1
Flags: W
LayerCount: 2
Fore
SplineSet
546 0 m 1,0,-1
 546 136 l 1,1,-1
 682 136 l 1,2,-1
 682 0 l 1,3,-1
 546 0 l 1,0,-1
409 136 m 1,4,-1
 409 273 l 1,5,-1
 546 273 l 1,6,-1
 546 136 l 1,7,-1
 409 136 l 1,4,-1
273 273 m 1,8,-1
 273 409 l 1,9,-1
 409 409 l 1,10,-1
 409 273 l 1,11,-1
 273 273 l 1,8,-1
273 546 m 1,12,-1
 273 682 l 1,13,-1
 409 682 l 1,14,-1
 409 546 l 1,15,-1
 273 546 l 1,12,-1
409 682 m 1,16,-1
 409 819 l 1,17,-1
 546 819 l 1,18,-1
 546 682 l 1,19,-1
 409 682 l 1,16,-1
546 819 m 1,20,-1
 546 955 l 1,21,-1
 682 955 l 1,22,-1
 682 819 l 1,23,-1
 546 819 l 1,20,-1
0 0 m 1,24,-1
 0 1228 l 1,25,-1
 136 1228 l 1,26,-1
 136 546 l 1,27,-1
 273 546 l 1,28,-1
 273 409 l 1,29,-1
 136 409 l 1,30,-1
 136 0 l 1,31,-1
 0 0 l 1,24,-1
EndSplineSet
EndChar

StartChar: l
Encoding: 108 108 77
Width: 409
GlyphClass: 1
Flags: W
LayerCount: 2
Fore
SplineSet
136 0 m 1,0,-1
 136 136 l 1,1,-1
 273 136 l 1,2,-1
 273 0 l 1,3,-1
 136 0 l 1,0,-1
0 136 m 1,4,-1
 0 1228 l 1,5,-1
 136 1228 l 1,6,-1
 136 136 l 1,7,-1
 0 136 l 1,4,-1
EndSplineSet
EndChar

StartChar: m
Encoding: 109 109 78
Width: 1365
GlyphClass: 1
Flags: W
LayerCount: 2
Fore
SplineSet
546 0 m 1,0,-1
 546 819 l 1,1,-1
 819 819 l 1,2,-1
 819 682 l 1,3,-1
 682 682 l 1,4,-1
 682 0 l 1,5,-1
 546 0 l 1,0,-1
1092 0 m 1,6,-1
 1092 819 l 1,7,-1
 1228 819 l 1,8,-1
 1228 0 l 1,9,-1
 1092 0 l 1,6,-1
0 0 m 1,10,-1
 0 955 l 1,11,-1
 136 955 l 1,12,-1
 136 819 l 1,13,-1
 273 819 l 1,14,-1
 273 682 l 1,15,-1
 136 682 l 1,16,-1
 136 0 l 1,17,-1
 0 0 l 1,10,-1
273 819 m 1,18,-1
 273 955 l 1,19,-1
 546 955 l 1,20,-1
 546 819 l 1,21,-1
 273 819 l 1,18,-1
819 819 m 1,22,-1
 819 955 l 1,23,-1
 1092 955 l 1,24,-1
 1092 819 l 1,25,-1
 819 819 l 1,22,-1
EndSplineSet
EndChar

StartChar: n
Encoding: 110 110 79
Width: 819
GlyphClass: 1
Flags: W
LayerCount: 2
Fore
SplineSet
546 0 m 1,0,-1
 546 819 l 1,1,-1
 682 819 l 1,2,-1
 682 0 l 1,3,-1
 546 0 l 1,0,-1
0 0 m 1,4,-1
 0 955 l 1,5,-1
 136 955 l 1,6,-1
 136 819 l 1,7,-1
 273 819 l 1,8,-1
 273 682 l 1,9,-1
 136 682 l 1,10,-1
 136 0 l 1,11,-1
 0 0 l 1,4,-1
273 819 m 1,12,-1
 273 955 l 1,13,-1
 546 955 l 1,14,-1
 546 819 l 1,15,-1
 273 819 l 1,12,-1
EndSplineSet
EndChar

StartChar: o
Encoding: 111 111 80
Width: 819
GlyphClass: 1
Flags: W
LayerCount: 2
Fore
SplineSet
136 0 m 1,0,-1
 136 136 l 1,1,-1
 546 136 l 1,2,-1
 546 0 l 1,3,-1
 136 0 l 1,0,-1
0 136 m 1,4,-1
 0 819 l 1,5,-1
 136 819 l 1,6,-1
 136 136 l 1,7,-1
 0 136 l 1,4,-1
546 136 m 1,8,-1
 546 819 l 1,9,-1
 682 819 l 1,10,-1
 682 136 l 1,11,-1
 546 136 l 1,8,-1
136 819 m 1,12,-1
 136 955 l 1,13,-1
 546 955 l 1,14,-1
 546 819 l 1,15,-1
 136 819 l 1,12,-1
EndSplineSet
EndChar

StartChar: p
Encoding: 112 112 81
Width: 819
GlyphClass: 1
Flags: W
LayerCount: 2
Fore
SplineSet
273 0 m 1,0,-1
 273 136 l 1,1,-1
 546 136 l 1,2,-1
 546 0 l 1,3,-1
 273 0 l 1,0,-1
546 136 m 1,4,-1
 546 819 l 1,5,-1
 682 819 l 1,6,-1
 682 136 l 1,7,-1
 546 136 l 1,4,-1
0 -273 m 1,8,-1
 0 955 l 1,9,-1
 136 955 l 1,10,-1
 136 819 l 1,11,-1
 273 819 l 1,12,-1
 273 682 l 1,13,-1
 136 682 l 1,14,-1
 136 273 l 1,15,-1
 273 273 l 1,16,-1
 273 136 l 1,17,-1
 136 136 l 1,18,-1
 136 -273 l 1,19,-1
 0 -273 l 1,8,-1
273 819 m 1,20,-1
 273 955 l 1,21,-1
 546 955 l 1,22,-1
 546 819 l 1,23,-1
 273 819 l 1,20,-1
EndSplineSet
EndChar

StartChar: q
Encoding: 113 113 82
Width: 819
GlyphClass: 1
Flags: W
LayerCount: 2
Fore
SplineSet
136 0 m 1,0,-1
 136 136 l 1,1,-1
 409 136 l 1,2,-1
 409 0 l 1,3,-1
 136 0 l 1,0,-1
0 136 m 1,4,-1
 0 819 l 1,5,-1
 136 819 l 1,6,-1
 136 136 l 1,7,-1
 0 136 l 1,4,-1
136 819 m 1,8,-1
 136 955 l 1,9,-1
 409 955 l 1,10,-1
 409 819 l 1,11,-1
 136 819 l 1,8,-1
546 -273 m 1,12,-1
 546 136 l 1,13,-1
 409 136 l 1,14,-1
 409 273 l 1,15,-1
 546 273 l 1,16,-1
 546 682 l 1,17,-1
 409 682 l 1,18,-1
 409 819 l 1,19,-1
 546 819 l 1,20,-1
 546 955 l 1,21,-1
 682 955 l 1,22,-1
 682 -273 l 1,23,-1
 546 -273 l 1,12,-1
EndSplineSet
EndChar

StartChar: r
Encoding: 114 114 83
Width: 819
GlyphClass: 1
Flags: W
LayerCount: 2
Fore
SplineSet
409 409 m 1,0,-1
 409 546 l 1,1,-1
 546 546 l 1,2,-1
 546 409 l 1,3,-1
 409 409 l 1,0,-1
546 546 m 1,4,-1
 546 819 l 1,5,-1
 682 819 l 1,6,-1
 682 546 l 1,7,-1
 546 546 l 1,4,-1
0 0 m 1,8,-1
 0 955 l 1,9,-1
 136 955 l 1,10,-1
 136 819 l 1,11,-1
 273 819 l 1,12,-1
 273 682 l 1,13,-1
 136 682 l 1,14,-1
 136 0 l 1,15,-1
 0 0 l 1,8,-1
273 819 m 1,16,-1
 273 955 l 1,17,-1
 546 955 l 1,18,-1
 546 819 l 1,19,-1
 273 819 l 1,16,-1
EndSplineSet
EndChar

StartChar: s
Encoding: 115 115 84
Width: 819
GlyphClass: 1
Flags: W
LayerCount: 2
Fore
SplineSet
136 0 m 1,0,-1
 136 136 l 1,1,-1
 546 136 l 1,2,-1
 546 0 l 1,3,-1
 136 0 l 1,0,-1
0 136 m 1,4,-1
 0 273 l 1,5,-1
 136 273 l 1,6,-1
 136 136 l 1,7,-1
 0 136 l 1,4,-1
546 136 m 1,8,-1
 546 409 l 1,9,-1
 682 409 l 1,10,-1
 682 136 l 1,11,-1
 546 136 l 1,8,-1
273 409 m 1,12,-1
 273 546 l 1,13,-1
 546 546 l 1,14,-1
 546 409 l 1,15,-1
 273 409 l 1,12,-1
136 546 m 1,16,-1
 136 682 l 1,17,-1
 273 682 l 1,18,-1
 273 546 l 1,19,-1
 136 546 l 1,16,-1
0 682 m 1,20,-1
 0 819 l 1,21,-1
 136 819 l 1,22,-1
 136 682 l 1,23,-1
 0 682 l 1,20,-1
546 682 m 1,24,-1
 546 819 l 1,25,-1
 682 819 l 1,26,-1
 682 682 l 1,27,-1
 546 682 l 1,24,-1
136 819 m 1,28,-1
 136 955 l 1,29,-1
 546 955 l 1,30,-1
 546 819 l 1,31,-1
 136 819 l 1,28,-1
EndSplineSet
EndChar

StartChar: t
Encoding: 116 116 85
Width: 819
GlyphClass: 1
Flags: W
LayerCount: 2
Fore
SplineSet
273 0 m 1,0,-1
 273 136 l 1,1,-1
 546 136 l 1,2,-1
 546 0 l 1,3,-1
 273 0 l 1,0,-1
546 136 m 1,4,-1
 546 273 l 1,5,-1
 682 273 l 1,6,-1
 682 136 l 1,7,-1
 546 136 l 1,4,-1
136 136 m 1,8,-1
 136 819 l 1,9,-1
 0 819 l 1,10,-1
 0 955 l 1,11,-1
 136 955 l 1,12,-1
 136 1228 l 1,13,-1
 273 1228 l 1,14,-1
 273 955 l 1,15,-1
 682 955 l 1,16,-1
 682 819 l 1,17,-1
 273 819 l 1,18,-1
 273 136 l 1,19,-1
 136 136 l 1,8,-1
EndSplineSet
EndChar

StartChar: u
Encoding: 117 117 86
Width: 819
GlyphClass: 1
Flags: W
LayerCount: 2
Fore
SplineSet
136 0 m 1,0,-1
 136 136 l 1,1,-1
 409 136 l 1,2,-1
 409 0 l 1,3,-1
 136 0 l 1,0,-1
0 136 m 1,4,-1
 0 955 l 1,5,-1
 136 955 l 1,6,-1
 136 136 l 1,7,-1
 0 136 l 1,4,-1
546 0 m 1,8,-1
 546 136 l 1,9,-1
 409 136 l 1,10,-1
 409 273 l 1,11,-1
 546 273 l 1,12,-1
 546 955 l 1,13,-1
 682 955 l 1,14,-1
 682 0 l 1,15,-1
 546 0 l 1,8,-1
EndSplineSet
EndChar

StartChar: v
Encoding: 118 118 87
Width: 819
GlyphClass: 1
Flags: W
LayerCount: 2
Fore
SplineSet
273 0 m 1,0,-1
 273 136 l 1,1,-1
 409 136 l 1,2,-1
 409 0 l 1,3,-1
 273 0 l 1,0,-1
136 136 m 1,4,-1
 136 409 l 1,5,-1
 273 409 l 1,6,-1
 273 136 l 1,7,-1
 136 136 l 1,4,-1
409 136 m 1,8,-1
 409 409 l 1,9,-1
 546 409 l 1,10,-1
 546 136 l 1,11,-1
 409 136 l 1,8,-1
0 409 m 1,12,-1
 0 955 l 1,13,-1
 136 955 l 1,14,-1
 136 409 l 1,15,-1
 0 409 l 1,12,-1
546 409 m 1,16,-1
 546 955 l 1,17,-1
 682 955 l 1,18,-1
 682 409 l 1,19,-1
 546 409 l 1,16,-1
EndSplineSet
EndChar

StartChar: w
Encoding: 119 119 88
Width: 1365
GlyphClass: 1
Flags: W
LayerCount: 2
Fore
SplineSet
273 0 m 1,0,-1
 273 136 l 1,1,-1
 409 136 l 1,2,-1
 409 0 l 1,3,-1
 273 0 l 1,0,-1
819 0 m 1,4,-1
 819 136 l 1,5,-1
 955 136 l 1,6,-1
 955 0 l 1,7,-1
 819 0 l 1,4,-1
136 136 m 1,8,-1
 136 273 l 1,9,-1
 273 273 l 1,10,-1
 273 136 l 1,11,-1
 136 136 l 1,8,-1
409 136 m 1,12,-1
 409 273 l 1,13,-1
 546 273 l 1,14,-1
 546 136 l 1,15,-1
 409 136 l 1,12,-1
682 136 m 1,16,-1
 682 273 l 1,17,-1
 819 273 l 1,18,-1
 819 136 l 1,19,-1
 682 136 l 1,16,-1
955 136 m 1,20,-1
 955 273 l 1,21,-1
 1092 273 l 1,22,-1
 1092 136 l 1,23,-1
 955 136 l 1,20,-1
0 273 m 1,24,-1
 0 955 l 1,25,-1
 136 955 l 1,26,-1
 136 273 l 1,27,-1
 0 273 l 1,24,-1
546 273 m 1,28,-1
 546 955 l 1,29,-1
 682 955 l 1,30,-1
 682 273 l 1,31,-1
 546 273 l 1,28,-1
1092 273 m 1,32,-1
 1092 955 l 1,33,-1
 1228 955 l 1,34,-1
 1228 273 l 1,35,-1
 1092 273 l 1,32,-1
EndSplineSet
EndChar

StartChar: x
Encoding: 120 120 89
Width: 819
GlyphClass: 1
Flags: W
LayerCount: 2
Fore
SplineSet
0 0 m 1,0,-1
 0 273 l 1,1,-1
 136 273 l 1,2,-1
 136 0 l 1,3,-1
 0 0 l 1,0,-1
546 0 m 1,4,-1
 546 273 l 1,5,-1
 682 273 l 1,6,-1
 682 0 l 1,7,-1
 546 0 l 1,4,-1
136 273 m 1,8,-1
 136 409 l 1,9,-1
 273 409 l 1,10,-1
 273 273 l 1,11,-1
 136 273 l 1,8,-1
409 273 m 1,12,-1
 409 409 l 1,13,-1
 546 409 l 1,14,-1
 546 273 l 1,15,-1
 409 273 l 1,12,-1
273 409 m 1,16,-1
 273 546 l 1,17,-1
 409 546 l 1,18,-1
 409 409 l 1,19,-1
 273 409 l 1,16,-1
136 546 m 1,20,-1
 136 682 l 1,21,-1
 273 682 l 1,22,-1
 273 546 l 1,23,-1
 136 546 l 1,20,-1
409 546 m 1,24,-1
 409 682 l 1,25,-1
 546 682 l 1,26,-1
 546 546 l 1,27,-1
 409 546 l 1,24,-1
0 682 m 1,28,-1
 0 955 l 1,29,-1
 136 955 l 1,30,-1
 136 682 l 1,31,-1
 0 682 l 1,28,-1
546 682 m 1,32,-1
 546 955 l 1,33,-1
 682 955 l 1,34,-1
 682 682 l 1,35,-1
 546 682 l 1,32,-1
EndSplineSet
EndChar

StartChar: y
Encoding: 121 121 90
Width: 819
GlyphClass: 1
Flags: W
LayerCount: 2
Fore
SplineSet
0 -273 m 1,0,-1
 0 -136 l 1,1,-1
 273 -136 l 1,2,-1
 273 -273 l 1,3,-1
 0 -273 l 1,0,-1
273 -136 m 1,4,-1
 273 136 l 1,5,-1
 409 136 l 1,6,-1
 409 -136 l 1,7,-1
 273 -136 l 1,4,-1
136 136 m 1,8,-1
 136 546 l 1,9,-1
 273 546 l 1,10,-1
 273 136 l 1,11,-1
 136 136 l 1,8,-1
409 136 m 1,12,-1
 409 546 l 1,13,-1
 546 546 l 1,14,-1
 546 136 l 1,15,-1
 409 136 l 1,12,-1
0 546 m 1,16,-1
 0 955 l 1,17,-1
 136 955 l 1,18,-1
 136 546 l 1,19,-1
 0 546 l 1,16,-1
546 546 m 1,20,-1
 546 955 l 1,21,-1
 682 955 l 1,22,-1
 682 546 l 1,23,-1
 546 546 l 1,20,-1
EndSplineSet
EndChar

StartChar: z
Encoding: 122 122 91
Width: 819
GlyphClass: 1
Flags: W
LayerCount: 2
Fore
SplineSet
0 0 m 1,0,-1
 0 273 l 1,1,-1
 136 273 l 1,2,-1
 136 136 l 1,3,-1
 682 136 l 1,4,-1
 682 0 l 1,5,-1
 0 0 l 1,0,-1
136 273 m 1,6,-1
 136 409 l 1,7,-1
 273 409 l 1,8,-1
 273 273 l 1,9,-1
 136 273 l 1,6,-1
273 409 m 1,10,-1
 273 546 l 1,11,-1
 409 546 l 1,12,-1
 409 409 l 1,13,-1
 273 409 l 1,10,-1
409 546 m 1,14,-1
 409 682 l 1,15,-1
 546 682 l 1,16,-1
 546 546 l 1,17,-1
 409 546 l 1,14,-1
546 682 m 1,18,-1
 546 819 l 1,19,-1
 0 819 l 1,20,-1
 0 955 l 1,21,-1
 682 955 l 1,22,-1
 682 682 l 1,23,-1
 546 682 l 1,18,-1
EndSplineSet
EndChar

StartChar: braceleft
Encoding: 123 123 92
Width: 546
GlyphClass: 1
Flags: W
LayerCount: 2
Fore
SplineSet
273 0 m 1,0,-1
 273 136 l 1,1,-1
 409 136 l 1,2,-1
 409 0 l 1,3,-1
 273 0 l 1,0,-1
136 136 m 1,4,-1
 136 546 l 1,5,-1
 273 546 l 1,6,-1
 273 136 l 1,7,-1
 136 136 l 1,4,-1
0 546 m 1,8,-1
 0 682 l 1,9,-1
 136 682 l 1,10,-1
 136 546 l 1,11,-1
 0 546 l 1,8,-1
136 682 m 1,12,-1
 136 1092 l 1,13,-1
 273 1092 l 1,14,-1
 273 682 l 1,15,-1
 136 682 l 1,12,-1
273 1092 m 1,16,-1
 273 1228 l 1,17,-1
 409 1228 l 1,18,-1
 409 1092 l 1,19,-1
 273 1092 l 1,16,-1
EndSplineSet
EndChar

StartChar: bar
Encoding: 124 124 93
Width: 273
GlyphClass: 1
Flags: W
LayerCount: 2
Fore
SplineSet
0 -273 m 1,0,-1
 0 1228 l 1,1,-1
 136 1228 l 1,2,-1
 136 -273 l 1,3,-1
 0 -273 l 1,0,-1
EndSplineSet
EndChar

StartChar: braceright
Encoding: 125 125 94
Width: 546
GlyphClass: 1
Flags: W
LayerCount: 2
Fore
SplineSet
0 0 m 1,0,-1
 0 136 l 1,1,-1
 136 136 l 1,2,-1
 136 0 l 1,3,-1
 0 0 l 1,0,-1
136 136 m 1,4,-1
 136 546 l 1,5,-1
 273 546 l 1,6,-1
 273 136 l 1,7,-1
 136 136 l 1,4,-1
273 546 m 1,8,-1
 273 682 l 1,9,-1
 409 682 l 1,10,-1
 409 546 l 1,11,-1
 273 546 l 1,8,-1
136 682 m 1,12,-1
 136 1092 l 1,13,-1
 273 1092 l 1,14,-1
 273 682 l 1,15,-1
 136 682 l 1,12,-1
0 1092 m 1,16,-1
 0 1228 l 1,17,-1
 136 1228 l 1,18,-1
 136 1092 l 1,19,-1
 0 1092 l 1,16,-1
EndSplineSet
EndChar

StartChar: asciitilde
Encoding: 126 126 95
Width: 955
GlyphClass: 1
Flags: W
LayerCount: 2
Fore
SplineSet
0 546 m 1,0,-1
 0 682 l 1,1,-1
 136 682 l 1,2,-1
 136 546 l 1,3,-1
 0 546 l 1,0,-1
409 546 m 1,4,-1
 409 682 l 1,5,-1
 682 682 l 1,6,-1
 682 546 l 1,7,-1
 409 546 l 1,4,-1
136 682 m 1,8,-1
 136 819 l 1,9,-1
 409 819 l 1,10,-1
 409 682 l 1,11,-1
 136 682 l 1,8,-1
682 682 m 1,12,-1
 682 819 l 1,13,-1
 819 819 l 1,14,-1
 819 682 l 1,15,-1
 682 682 l 1,12,-1
EndSplineSet
EndChar

StartChar: exclamdown
Encoding: 161 161 96
Width: 273
GlyphClass: 1
Flags: W
LayerCount: 2
Fore
SplineSet
0 -273 m 1,0,-1
 0 682 l 1,1,-1
 136 682 l 1,2,-1
 136 -273 l 1,3,-1
 0 -273 l 1,0,-1
0 819 m 1,4,-1
 0 955 l 1,5,-1
 136 955 l 1,6,-1
 136 819 l 1,7,-1
 0 819 l 1,4,-1
EndSplineSet
EndChar

StartChar: cent
Encoding: 162 162 97
Width: 819
GlyphClass: 1
Flags: W
LayerCount: 2
Fore
SplineSet
273 -136 m 1,0,-1
 273 136 l 1,1,-1
 136 136 l 1,2,-1
 136 273 l 1,3,-1
 546 273 l 1,4,-1
 546 136 l 1,5,-1
 409 136 l 1,6,-1
 409 -136 l 1,7,-1
 273 -136 l 1,0,-1
546 273 m 1,8,-1
 546 409 l 1,9,-1
 682 409 l 1,10,-1
 682 273 l 1,11,-1
 546 273 l 1,8,-1
0 273 m 1,12,-1
 0 819 l 1,13,-1
 136 819 l 1,14,-1
 136 273 l 1,15,-1
 0 273 l 1,12,-1
546 546 m 1,16,-1
 546 819 l 1,17,-1
 682 819 l 1,18,-1
 682 546 l 1,19,-1
 546 546 l 1,16,-1
136 819 m 1,20,-1
 136 955 l 1,21,-1
 273 955 l 1,22,-1
 273 1228 l 1,23,-1
 409 1228 l 1,24,-1
 409 955 l 1,25,-1
 546 955 l 1,26,-1
 546 819 l 1,27,-1
 136 819 l 1,20,-1
EndSplineSet
EndChar

StartChar: sterling
Encoding: 163 163 98
Width: 819
GlyphClass: 1
Flags: W
LayerCount: 2
Fore
SplineSet
0 0 m 1,0,-1
 0 136 l 1,1,-1
 136 136 l 1,2,-1
 136 546 l 1,3,-1
 0 546 l 1,4,-1
 0 682 l 1,5,-1
 136 682 l 1,6,-1
 136 1092 l 1,7,-1
 273 1092 l 1,8,-1
 273 682 l 1,9,-1
 682 682 l 1,10,-1
 682 546 l 1,11,-1
 273 546 l 1,12,-1
 273 136 l 1,13,-1
 682 136 l 1,14,-1
 682 0 l 1,15,-1
 0 0 l 1,0,-1
546 955 m 1,16,-1
 546 1092 l 1,17,-1
 682 1092 l 1,18,-1
 682 955 l 1,19,-1
 546 955 l 1,16,-1
273 1092 m 1,20,-1
 273 1228 l 1,21,-1
 546 1228 l 1,22,-1
 546 1092 l 1,23,-1
 273 1092 l 1,20,-1
EndSplineSet
EndChar

StartChar: currency
Encoding: 164 164 99
Width: 955
GlyphClass: 1
Flags: W
LayerCount: 2
Fore
SplineSet
0 136 m 1,0,-1
 0 273 l 1,1,-1
 136 273 l 1,2,-1
 136 136 l 1,3,-1
 0 136 l 1,0,-1
682 136 m 1,4,-1
 682 273 l 1,5,-1
 819 273 l 1,6,-1
 819 136 l 1,7,-1
 682 136 l 1,4,-1
546 409 m 1,8,-1
 546 682 l 1,9,-1
 273 682 l 1,10,-1
 273 409 l 1,11,-1
 546 409 l 1,8,-1
136 273 m 1,12,-1
 136 819 l 1,13,-1
 682 819 l 1,14,-1
 682 273 l 1,15,-1
 136 273 l 1,12,-1
0 819 m 1,16,-1
 0 955 l 1,17,-1
 136 955 l 1,18,-1
 136 819 l 1,19,-1
 0 819 l 1,16,-1
682 819 m 1,20,-1
 682 955 l 1,21,-1
 819 955 l 1,22,-1
 819 819 l 1,23,-1
 682 819 l 1,20,-1
EndSplineSet
EndChar

StartChar: yen
Encoding: 165 165 100
Width: 819
GlyphClass: 1
Flags: W
LayerCount: 2
Fore
SplineSet
273 0 m 1,0,-1
 273 136 l 1,1,-1
 0 136 l 1,2,-1
 0 273 l 1,3,-1
 273 273 l 1,4,-1
 273 409 l 1,5,-1
 0 409 l 1,6,-1
 0 546 l 1,7,-1
 273 546 l 1,8,-1
 273 682 l 1,9,-1
 409 682 l 1,10,-1
 409 546 l 1,11,-1
 682 546 l 1,12,-1
 682 409 l 1,13,-1
 409 409 l 1,14,-1
 409 273 l 1,15,-1
 682 273 l 1,16,-1
 682 136 l 1,17,-1
 409 136 l 1,18,-1
 409 0 l 1,19,-1
 273 0 l 1,0,-1
136 682 m 1,20,-1
 136 819 l 1,21,-1
 273 819 l 1,22,-1
 273 682 l 1,23,-1
 136 682 l 1,20,-1
409 682 m 1,24,-1
 409 819 l 1,25,-1
 546 819 l 1,26,-1
 546 682 l 1,27,-1
 409 682 l 1,24,-1
0 819 m 1,28,-1
 0 1228 l 1,29,-1
 136 1228 l 1,30,-1
 136 819 l 1,31,-1
 0 819 l 1,28,-1
546 819 m 1,32,-1
 546 1228 l 1,33,-1
 682 1228 l 1,34,-1
 682 819 l 1,35,-1
 546 819 l 1,32,-1
EndSplineSet
EndChar

StartChar: brokenbar
Encoding: 166 166 101
Width: 273
GlyphClass: 1
Flags: W
LayerCount: 2
Fore
SplineSet
0 -273 m 1,0,-1
 0 409 l 1,1,-1
 136 409 l 1,2,-1
 136 -273 l 1,3,-1
 0 -273 l 1,0,-1
0 546 m 1,4,-1
 0 1228 l 1,5,-1
 136 1228 l 1,6,-1
 136 546 l 1,7,-1
 0 546 l 1,4,-1
EndSplineSet
EndChar

StartChar: section
Encoding: 167 167 102
Width: 955
GlyphClass: 1
Flags: W
LayerCount: 2
Fore
SplineSet
136 -273 m 1,0,-1
 136 -136 l 1,1,-1
 682 -136 l 1,2,-1
 682 -273 l 1,3,-1
 136 -273 l 1,0,-1
0 -136 m 1,4,-1
 0 0 l 1,5,-1
 136 0 l 1,6,-1
 136 -136 l 1,7,-1
 0 -136 l 1,4,-1
682 -136 m 1,8,-1
 682 136 l 1,9,-1
 819 136 l 1,10,-1
 819 -136 l 1,11,-1
 682 -136 l 1,8,-1
273 136 m 1,12,-1
 273 273 l 1,13,-1
 682 273 l 1,14,-1
 682 136 l 1,15,-1
 273 136 l 1,12,-1
136 273 m 1,16,-1
 136 409 l 1,17,-1
 273 409 l 1,18,-1
 273 273 l 1,19,-1
 136 273 l 1,16,-1
682 273 m 1,20,-1
 682 546 l 1,21,-1
 819 546 l 1,22,-1
 819 273 l 1,23,-1
 682 273 l 1,20,-1
0 409 m 1,24,-1
 0 682 l 1,25,-1
 136 682 l 1,26,-1
 136 409 l 1,27,-1
 0 409 l 1,24,-1
546 546 m 1,28,-1
 546 682 l 1,29,-1
 682 682 l 1,30,-1
 682 546 l 1,31,-1
 546 546 l 1,28,-1
136 682 m 1,32,-1
 136 819 l 1,33,-1
 546 819 l 1,34,-1
 546 682 l 1,35,-1
 136 682 l 1,32,-1
0 819 m 1,36,-1
 0 1092 l 1,37,-1
 136 1092 l 1,38,-1
 136 819 l 1,39,-1
 0 819 l 1,36,-1
682 955 m 1,40,-1
 682 1092 l 1,41,-1
 819 1092 l 1,42,-1
 819 955 l 1,43,-1
 682 955 l 1,40,-1
136 1092 m 1,44,-1
 136 1228 l 1,45,-1
 682 1228 l 1,46,-1
 682 1092 l 1,47,-1
 136 1092 l 1,44,-1
EndSplineSet
EndChar

StartChar: dieresis
Encoding: 168 168 103
Width: 546
GlyphClass: 1
Flags: W
LayerCount: 2
Fore
SplineSet
0 1092 m 1,0,-1
 0 1228 l 1,1,-1
 136 1228 l 1,2,-1
 136 1092 l 1,3,-1
 0 1092 l 1,0,-1
273 1092 m 1,4,-1
 273 1228 l 1,5,-1
 409 1228 l 1,6,-1
 409 1092 l 1,7,-1
 273 1092 l 1,4,-1
EndSplineSet
EndChar

StartChar: copyright
Encoding: 169 169 104
Width: 1228
GlyphClass: 1
Flags: W
LayerCount: 2
Fore
SplineSet
273 0 m 1,0,-1
 273 136 l 1,1,-1
 819 136 l 1,2,-1
 819 0 l 1,3,-1
 273 0 l 1,0,-1
136 136 m 1,4,-1
 136 273 l 1,5,-1
 273 273 l 1,6,-1
 273 136 l 1,7,-1
 136 136 l 1,4,-1
819 136 m 1,8,-1
 819 273 l 1,9,-1
 955 273 l 1,10,-1
 955 136 l 1,11,-1
 819 136 l 1,8,-1
409 273 m 1,12,-1
 409 409 l 1,13,-1
 682 409 l 1,14,-1
 682 273 l 1,15,-1
 409 273 l 1,12,-1
273 409 m 1,16,-1
 273 682 l 1,17,-1
 409 682 l 1,18,-1
 409 409 l 1,19,-1
 273 409 l 1,16,-1
682 546 m 1,20,-1
 682 682 l 1,21,-1
 819 682 l 1,22,-1
 819 546 l 1,23,-1
 682 546 l 1,20,-1
0 273 m 1,24,-1
 0 819 l 1,25,-1
 136 819 l 1,26,-1
 136 273 l 1,27,-1
 0 273 l 1,24,-1
409 682 m 1,28,-1
 409 819 l 1,29,-1
 682 819 l 1,30,-1
 682 682 l 1,31,-1
 409 682 l 1,28,-1
955 273 m 1,32,-1
 955 819 l 1,33,-1
 1092 819 l 1,34,-1
 1092 273 l 1,35,-1
 955 273 l 1,32,-1
136 819 m 1,36,-1
 136 955 l 1,37,-1
 273 955 l 1,38,-1
 273 819 l 1,39,-1
 136 819 l 1,36,-1
819 819 m 1,40,-1
 819 955 l 1,41,-1
 955 955 l 1,42,-1
 955 819 l 1,43,-1
 819 819 l 1,40,-1
273 955 m 1,44,-1
 273 1092 l 1,45,-1
 819 1092 l 1,46,-1
 819 955 l 1,47,-1
 273 955 l 1,44,-1
EndSplineSet
EndChar

StartChar: ordfeminine
Encoding: 170 170 105
Width: 682
GlyphClass: 1
Flags: W
LayerCount: 2
Fore
SplineSet
136 546 m 1,0,-1
 136 682 l 1,1,-1
 273 682 l 1,2,-1
 273 546 l 1,3,-1
 136 546 l 1,0,-1
409 546 m 1,4,-1
 409 682 l 1,5,-1
 546 682 l 1,6,-1
 546 546 l 1,7,-1
 409 546 l 1,4,-1
0 682 m 1,8,-1
 0 819 l 1,9,-1
 136 819 l 1,10,-1
 136 682 l 1,11,-1
 0 682 l 1,8,-1
273 682 m 1,12,-1
 273 819 l 1,13,-1
 136 819 l 1,14,-1
 136 955 l 1,15,-1
 273 955 l 1,16,-1
 273 1092 l 1,17,-1
 409 1092 l 1,18,-1
 409 682 l 1,19,-1
 273 682 l 1,12,-1
0 1092 m 1,20,-1
 0 1228 l 1,21,-1
 273 1228 l 1,22,-1
 273 1092 l 1,23,-1
 0 1092 l 1,20,-1
EndSplineSet
EndChar

StartChar: guillemotleft
Encoding: 171 171 106
Width: 955
GlyphClass: 1
Flags: W
LayerCount: 2
Fore
SplineSet
273 136 m 1,0,-1
 273 273 l 1,1,-1
 409 273 l 1,2,-1
 409 136 l 1,3,-1
 273 136 l 1,0,-1
682 136 m 1,4,-1
 682 273 l 1,5,-1
 819 273 l 1,6,-1
 819 136 l 1,7,-1
 682 136 l 1,4,-1
136 273 m 1,8,-1
 136 409 l 1,9,-1
 273 409 l 1,10,-1
 273 273 l 1,11,-1
 136 273 l 1,8,-1
546 273 m 1,12,-1
 546 409 l 1,13,-1
 682 409 l 1,14,-1
 682 273 l 1,15,-1
 546 273 l 1,12,-1
0 409 m 1,16,-1
 0 546 l 1,17,-1
 136 546 l 1,18,-1
 136 409 l 1,19,-1
 0 409 l 1,16,-1
409 409 m 1,20,-1
 409 546 l 1,21,-1
 546 546 l 1,22,-1
 546 409 l 1,23,-1
 409 409 l 1,20,-1
136 546 m 1,24,-1
 136 682 l 1,25,-1
 273 682 l 1,26,-1
 273 546 l 1,27,-1
 136 546 l 1,24,-1
546 546 m 1,28,-1
 546 682 l 1,29,-1
 682 682 l 1,30,-1
 682 546 l 1,31,-1
 546 546 l 1,28,-1
273 682 m 1,32,-1
 273 819 l 1,33,-1
 409 819 l 1,34,-1
 409 682 l 1,35,-1
 273 682 l 1,32,-1
682 682 m 1,36,-1
 682 819 l 1,37,-1
 819 819 l 1,38,-1
 819 682 l 1,39,-1
 682 682 l 1,36,-1
EndSplineSet
EndChar

StartChar: logicalnot
Encoding: 172 172 107
Width: 1092
GlyphClass: 1
Flags: W
LayerCount: 2
Fore
SplineSet
819 409 m 1,0,-1
 819 546 l 1,1,-1
 0 546 l 1,2,-1
 0 682 l 1,3,-1
 955 682 l 1,4,-1
 955 409 l 1,5,-1
 819 409 l 1,0,-1
EndSplineSet
EndChar

StartChar: uni00AD
Encoding: 173 173 108
Width: 546
GlyphClass: 1
Flags: W
LayerCount: 2
Fore
SplineSet
0 409 m 1,0,-1
 0 546 l 1,1,-1
 409 546 l 1,2,-1
 409 409 l 1,3,-1
 0 409 l 1,0,-1
EndSplineSet
EndChar

StartChar: registered
Encoding: 174 174 109
Width: 1228
GlyphClass: 1
Flags: W
LayerCount: 2
Fore
SplineSet
273 0 m 1,0,-1
 273 136 l 1,1,-1
 819 136 l 1,2,-1
 819 0 l 1,3,-1
 273 0 l 1,0,-1
136 136 m 1,4,-1
 136 273 l 1,5,-1
 273 273 l 1,6,-1
 273 136 l 1,7,-1
 136 136 l 1,4,-1
819 136 m 1,8,-1
 819 273 l 1,9,-1
 955 273 l 1,10,-1
 955 136 l 1,11,-1
 819 136 l 1,8,-1
682 273 m 1,12,-1
 682 409 l 1,13,-1
 819 409 l 1,14,-1
 819 273 l 1,15,-1
 682 273 l 1,12,-1
682 546 m 1,16,-1
 682 682 l 1,17,-1
 819 682 l 1,18,-1
 819 546 l 1,19,-1
 682 546 l 1,16,-1
0 273 m 1,20,-1
 0 819 l 1,21,-1
 136 819 l 1,22,-1
 136 273 l 1,23,-1
 0 273 l 1,20,-1
273 273 m 1,24,-1
 273 819 l 1,25,-1
 682 819 l 1,26,-1
 682 682 l 1,27,-1
 409 682 l 1,28,-1
 409 546 l 1,29,-1
 682 546 l 1,30,-1
 682 409 l 1,31,-1
 409 409 l 1,32,-1
 409 273 l 1,33,-1
 273 273 l 1,24,-1
955 273 m 1,34,-1
 955 819 l 1,35,-1
 1092 819 l 1,36,-1
 1092 273 l 1,37,-1
 955 273 l 1,34,-1
136 819 m 1,38,-1
 136 955 l 1,39,-1
 273 955 l 1,40,-1
 273 819 l 1,41,-1
 136 819 l 1,38,-1
819 819 m 1,42,-1
 819 955 l 1,43,-1
 955 955 l 1,44,-1
 955 819 l 1,45,-1
 819 819 l 1,42,-1
273 955 m 1,46,-1
 273 1092 l 1,47,-1
 819 1092 l 1,48,-1
 819 955 l 1,49,-1
 273 955 l 1,46,-1
EndSplineSet
EndChar

StartChar: macron
Encoding: 175 175 110
Width: 682
GlyphClass: 1
Flags: W
LayerCount: 2
Fore
SplineSet
0 955 m 1,0,-1
 0 1092 l 1,1,-1
 546 1092 l 1,2,-1
 546 955 l 1,3,-1
 0 955 l 1,0,-1
EndSplineSet
EndChar

StartChar: degree
Encoding: 176 176 111
Width: 682
GlyphClass: 1
Flags: W
LayerCount: 2
Fore
SplineSet
136 682 m 1,0,-1
 136 819 l 1,1,-1
 409 819 l 1,2,-1
 409 682 l 1,3,-1
 136 682 l 1,0,-1
0 819 m 1,4,-1
 0 1092 l 1,5,-1
 136 1092 l 1,6,-1
 136 819 l 1,7,-1
 0 819 l 1,4,-1
409 819 m 1,8,-1
 409 1092 l 1,9,-1
 546 1092 l 1,10,-1
 546 819 l 1,11,-1
 409 819 l 1,8,-1
136 1092 m 1,12,-1
 136 1228 l 1,13,-1
 409 1228 l 1,14,-1
 409 1092 l 1,15,-1
 136 1092 l 1,12,-1
EndSplineSet
EndChar

StartChar: plusminus
Encoding: 177 177 112
Width: 819
GlyphClass: 1
Flags: W
LayerCount: 2
Fore
SplineSet
0 -136 m 1,0,-1
 0 0 l 1,1,-1
 682 0 l 1,2,-1
 682 -136 l 1,3,-1
 0 -136 l 1,0,-1
273 136 m 1,4,-1
 273 409 l 1,5,-1
 0 409 l 1,6,-1
 0 546 l 1,7,-1
 273 546 l 1,8,-1
 273 819 l 1,9,-1
 409 819 l 1,10,-1
 409 546 l 1,11,-1
 682 546 l 1,12,-1
 682 409 l 1,13,-1
 409 409 l 1,14,-1
 409 136 l 1,15,-1
 273 136 l 1,4,-1
EndSplineSet
EndChar

StartChar: uni00B2
Encoding: 178 178 113
Width: 546
GlyphClass: 1
Flags: W
LayerCount: 2
Fore
SplineSet
0 546 m 1,0,-1
 0 819 l 1,1,-1
 136 819 l 1,2,-1
 136 682 l 1,3,-1
 409 682 l 1,4,-1
 409 546 l 1,5,-1
 0 546 l 1,0,-1
136 819 m 1,6,-1
 136 955 l 1,7,-1
 273 955 l 1,8,-1
 273 819 l 1,9,-1
 136 819 l 1,6,-1
273 955 m 1,10,-1
 273 1092 l 1,11,-1
 409 1092 l 1,12,-1
 409 955 l 1,13,-1
 273 955 l 1,10,-1
0 1092 m 1,14,-1
 0 1228 l 1,15,-1
 273 1228 l 1,16,-1
 273 1092 l 1,17,-1
 0 1092 l 1,14,-1
EndSplineSet
EndChar

StartChar: uni00B3
Encoding: 179 179 114
Width: 546
GlyphClass: 1
Flags: W
LayerCount: 2
Fore
SplineSet
0 546 m 1,0,-1
 0 682 l 1,1,-1
 273 682 l 1,2,-1
 273 546 l 1,3,-1
 0 546 l 1,0,-1
273 682 m 1,4,-1
 273 819 l 1,5,-1
 409 819 l 1,6,-1
 409 682 l 1,7,-1
 273 682 l 1,4,-1
136 819 m 1,8,-1
 136 955 l 1,9,-1
 273 955 l 1,10,-1
 273 819 l 1,11,-1
 136 819 l 1,8,-1
273 955 m 1,12,-1
 273 1092 l 1,13,-1
 409 1092 l 1,14,-1
 409 955 l 1,15,-1
 273 955 l 1,12,-1
0 1092 m 1,16,-1
 0 1228 l 1,17,-1
 273 1228 l 1,18,-1
 273 1092 l 1,19,-1
 0 1092 l 1,16,-1
EndSplineSet
EndChar

StartChar: acute
Encoding: 180 180 115
Width: 409
GlyphClass: 1
Flags: W
LayerCount: 2
Fore
SplineSet
0 955 m 1,0,-1
 0 1092 l 1,1,-1
 136 1092 l 1,2,-1
 136 955 l 1,3,-1
 0 955 l 1,0,-1
136 1092 m 1,4,-1
 136 1228 l 1,5,-1
 273 1228 l 1,6,-1
 273 1092 l 1,7,-1
 136 1092 l 1,4,-1
EndSplineSet
EndChar

StartChar: mu
Encoding: 181 181 116
Width: 819
GlyphClass: 1
Flags: W
LayerCount: 2
Fore
SplineSet
0 -273 m 1,0,-1
 0 955 l 1,1,-1
 136 955 l 1,2,-1
 136 136 l 1,3,-1
 409 136 l 1,4,-1
 409 0 l 1,5,-1
 136 0 l 1,6,-1
 136 -273 l 1,7,-1
 0 -273 l 1,0,-1
546 0 m 1,8,-1
 546 136 l 1,9,-1
 409 136 l 1,10,-1
 409 273 l 1,11,-1
 546 273 l 1,12,-1
 546 955 l 1,13,-1
 682 955 l 1,14,-1
 682 0 l 1,15,-1
 546 0 l 1,8,-1
EndSplineSet
EndChar

StartChar: paragraph
Encoding: 182 182 117
Width: 819
GlyphClass: 1
Flags: W
LayerCount: 2
Fore
SplineSet
273 0 m 1,0,-1
 273 546 l 1,1,-1
 136 546 l 1,2,-1
 136 682 l 1,3,-1
 0 682 l 1,4,-1
 0 1092 l 1,5,-1
 136 1092 l 1,6,-1
 136 1228 l 1,7,-1
 682 1228 l 1,8,-1
 682 0 l 1,9,-1
 546 0 l 1,10,-1
 546 1092 l 1,11,-1
 409 1092 l 1,12,-1
 409 0 l 1,13,-1
 273 0 l 1,0,-1
EndSplineSet
EndChar

StartChar: periodcentered
Encoding: 183 183 118
Width: 273
GlyphClass: 1
Flags: W
LayerCount: 2
Fore
SplineSet
0 409 m 1,0,-1
 0 546 l 1,1,-1
 136 546 l 1,2,-1
 136 409 l 1,3,-1
 0 409 l 1,0,-1
EndSplineSet
EndChar

StartChar: cedilla
Encoding: 184 184 119
Width: 409
GlyphClass: 1
Flags: W
LayerCount: 2
Fore
SplineSet
0 -409 m 1,0,-1
 0 -273 l 1,1,-1
 136 -273 l 1,2,-1
 136 -409 l 1,3,-1
 0 -409 l 1,0,-1
136 -273 m 1,4,-1
 136 -136 l 1,5,-1
 273 -136 l 1,6,-1
 273 -273 l 1,7,-1
 136 -273 l 1,4,-1
0 -136 m 1,8,-1
 0 0 l 1,9,-1
 136 0 l 1,10,-1
 136 -136 l 1,11,-1
 0 -136 l 1,8,-1
EndSplineSet
EndChar

StartChar: uni00B9
Encoding: 185 185 120
Width: 546
GlyphClass: 1
Flags: W
LayerCount: 2
Fore
SplineSet
0 546 m 1,0,-1
 0 682 l 1,1,-1
 136 682 l 1,2,-1
 136 1092 l 1,3,-1
 0 1092 l 1,4,-1
 0 1228 l 1,5,-1
 273 1228 l 1,6,-1
 273 682 l 1,7,-1
 409 682 l 1,8,-1
 409 546 l 1,9,-1
 0 546 l 1,0,-1
EndSplineSet
EndChar

StartChar: ordmasculine
Encoding: 186 186 121
Width: 682
GlyphClass: 1
Flags: W
LayerCount: 2
Fore
SplineSet
136 546 m 1,0,-1
 136 682 l 1,1,-1
 409 682 l 1,2,-1
 409 546 l 1,3,-1
 136 546 l 1,0,-1
0 682 m 1,4,-1
 0 1092 l 1,5,-1
 136 1092 l 1,6,-1
 136 682 l 1,7,-1
 0 682 l 1,4,-1
409 682 m 1,8,-1
 409 1092 l 1,9,-1
 546 1092 l 1,10,-1
 546 682 l 1,11,-1
 409 682 l 1,8,-1
136 1092 m 1,12,-1
 136 1228 l 1,13,-1
 409 1228 l 1,14,-1
 409 1092 l 1,15,-1
 136 1092 l 1,12,-1
EndSplineSet
EndChar

StartChar: guillemotright
Encoding: 187 187 122
Width: 955
GlyphClass: 1
Flags: W
LayerCount: 2
Fore
SplineSet
0 136 m 1,0,-1
 0 273 l 1,1,-1
 136 273 l 1,2,-1
 136 136 l 1,3,-1
 0 136 l 1,0,-1
409 136 m 1,4,-1
 409 273 l 1,5,-1
 546 273 l 1,6,-1
 546 136 l 1,7,-1
 409 136 l 1,4,-1
136 273 m 1,8,-1
 136 409 l 1,9,-1
 273 409 l 1,10,-1
 273 273 l 1,11,-1
 136 273 l 1,8,-1
546 273 m 1,12,-1
 546 409 l 1,13,-1
 682 409 l 1,14,-1
 682 273 l 1,15,-1
 546 273 l 1,12,-1
273 409 m 1,16,-1
 273 546 l 1,17,-1
 409 546 l 1,18,-1
 409 409 l 1,19,-1
 273 409 l 1,16,-1
682 409 m 1,20,-1
 682 546 l 1,21,-1
 819 546 l 1,22,-1
 819 409 l 1,23,-1
 682 409 l 1,20,-1
136 546 m 1,24,-1
 136 682 l 1,25,-1
 273 682 l 1,26,-1
 273 546 l 1,27,-1
 136 546 l 1,24,-1
546 546 m 1,28,-1
 546 682 l 1,29,-1
 682 682 l 1,30,-1
 682 546 l 1,31,-1
 546 546 l 1,28,-1
0 682 m 1,32,-1
 0 819 l 1,33,-1
 136 819 l 1,34,-1
 136 682 l 1,35,-1
 0 682 l 1,32,-1
409 682 m 1,36,-1
 409 819 l 1,37,-1
 546 819 l 1,38,-1
 546 682 l 1,39,-1
 409 682 l 1,36,-1
EndSplineSet
EndChar

StartChar: onequarter
Encoding: 188 188 123
Width: 1092
GlyphClass: 1
Flags: W
LayerCount: 2
Fore
SplineSet
136 0 m 1,0,-1
 136 273 l 1,1,-1
 273 273 l 1,2,-1
 273 0 l 1,3,-1
 136 0 l 1,0,-1
273 273 m 1,4,-1
 273 546 l 1,5,-1
 409 546 l 1,6,-1
 409 273 l 1,7,-1
 273 273 l 1,4,-1
819 0 m 1,8,-1
 819 136 l 1,9,-1
 546 136 l 1,10,-1
 546 546 l 1,11,-1
 682 546 l 1,12,-1
 682 273 l 1,13,-1
 819 273 l 1,14,-1
 819 546 l 1,15,-1
 955 546 l 1,16,-1
 955 0 l 1,17,-1
 819 0 l 1,8,-1
409 546 m 1,18,-1
 409 682 l 1,19,-1
 546 682 l 1,20,-1
 546 546 l 1,21,-1
 409 546 l 1,18,-1
546 682 m 1,22,-1
 546 955 l 1,23,-1
 682 955 l 1,24,-1
 682 682 l 1,25,-1
 546 682 l 1,22,-1
0 682 m 1,26,-1
 0 819 l 1,27,-1
 136 819 l 1,28,-1
 136 1092 l 1,29,-1
 0 1092 l 1,30,-1
 0 1228 l 1,31,-1
 273 1228 l 1,32,-1
 273 819 l 1,33,-1
 409 819 l 1,34,-1
 409 682 l 1,35,-1
 0 682 l 1,26,-1
682 955 m 1,36,-1
 682 1228 l 1,37,-1
 819 1228 l 1,38,-1
 819 955 l 1,39,-1
 682 955 l 1,36,-1
EndSplineSet
EndChar

StartChar: onehalf
Encoding: 189 189 124
Width: 1092
GlyphClass: 1
Flags: W
LayerCount: 2
Fore
SplineSet
136 0 m 1,0,-1
 136 273 l 1,1,-1
 273 273 l 1,2,-1
 273 0 l 1,3,-1
 136 0 l 1,0,-1
546 0 m 1,4,-1
 546 136 l 1,5,-1
 682 136 l 1,6,-1
 682 273 l 1,7,-1
 819 273 l 1,8,-1
 819 136 l 1,9,-1
 955 136 l 1,10,-1
 955 0 l 1,11,-1
 546 0 l 1,4,-1
819 273 m 1,12,-1
 819 409 l 1,13,-1
 955 409 l 1,14,-1
 955 273 l 1,15,-1
 819 273 l 1,12,-1
273 273 m 1,16,-1
 273 546 l 1,17,-1
 409 546 l 1,18,-1
 409 273 l 1,19,-1
 273 273 l 1,16,-1
546 409 m 1,20,-1
 546 546 l 1,21,-1
 819 546 l 1,22,-1
 819 409 l 1,23,-1
 546 409 l 1,20,-1
409 546 m 1,24,-1
 409 682 l 1,25,-1
 546 682 l 1,26,-1
 546 546 l 1,27,-1
 409 546 l 1,24,-1
546 682 m 1,28,-1
 546 955 l 1,29,-1
 682 955 l 1,30,-1
 682 682 l 1,31,-1
 546 682 l 1,28,-1
0 682 m 1,32,-1
 0 819 l 1,33,-1
 136 819 l 1,34,-1
 136 1092 l 1,35,-1
 0 1092 l 1,36,-1
 0 1228 l 1,37,-1
 273 1228 l 1,38,-1
 273 819 l 1,39,-1
 409 819 l 1,40,-1
 409 682 l 1,41,-1
 0 682 l 1,32,-1
682 955 m 1,42,-1
 682 1228 l 1,43,-1
 819 1228 l 1,44,-1
 819 955 l 1,45,-1
 682 955 l 1,42,-1
EndSplineSet
EndChar

StartChar: threequarters
Encoding: 190 190 125
Width: 1092
GlyphClass: 1
Flags: W
LayerCount: 2
Fore
SplineSet
136 0 m 1,0,-1
 136 273 l 1,1,-1
 273 273 l 1,2,-1
 273 0 l 1,3,-1
 136 0 l 1,0,-1
273 273 m 1,4,-1
 273 546 l 1,5,-1
 409 546 l 1,6,-1
 409 273 l 1,7,-1
 273 273 l 1,4,-1
819 0 m 1,8,-1
 819 136 l 1,9,-1
 546 136 l 1,10,-1
 546 546 l 1,11,-1
 682 546 l 1,12,-1
 682 273 l 1,13,-1
 819 273 l 1,14,-1
 819 546 l 1,15,-1
 955 546 l 1,16,-1
 955 0 l 1,17,-1
 819 0 l 1,8,-1
409 546 m 1,18,-1
 409 682 l 1,19,-1
 546 682 l 1,20,-1
 546 546 l 1,21,-1
 409 546 l 1,18,-1
0 682 m 1,22,-1
 0 819 l 1,23,-1
 273 819 l 1,24,-1
 273 682 l 1,25,-1
 0 682 l 1,22,-1
546 682 m 1,26,-1
 546 955 l 1,27,-1
 682 955 l 1,28,-1
 682 682 l 1,29,-1
 546 682 l 1,26,-1
273 819 m 1,30,-1
 273 955 l 1,31,-1
 136 955 l 1,32,-1
 136 1092 l 1,33,-1
 0 1092 l 1,34,-1
 0 1228 l 1,35,-1
 409 1228 l 1,36,-1
 409 819 l 1,37,-1
 273 819 l 1,30,-1
682 955 m 1,38,-1
 682 1228 l 1,39,-1
 819 1228 l 1,40,-1
 819 955 l 1,41,-1
 682 955 l 1,38,-1
EndSplineSet
EndChar

StartChar: questiondown
Encoding: 191 191 126
Width: 819
GlyphClass: 1
Flags: W
LayerCount: 2
Fore
SplineSet
136 -273 m 1,0,-1
 136 -136 l 1,1,-1
 546 -136 l 1,2,-1
 546 -273 l 1,3,-1
 136 -273 l 1,0,-1
546 -136 m 1,4,-1
 546 136 l 1,5,-1
 682 136 l 1,6,-1
 682 -136 l 1,7,-1
 546 -136 l 1,4,-1
0 -136 m 1,8,-1
 0 273 l 1,9,-1
 136 273 l 1,10,-1
 136 -136 l 1,11,-1
 0 -136 l 1,8,-1
409 136 m 1,12,-1
 409 273 l 1,13,-1
 546 273 l 1,14,-1
 546 136 l 1,15,-1
 409 136 l 1,12,-1
136 273 m 1,16,-1
 136 409 l 1,17,-1
 273 409 l 1,18,-1
 273 273 l 1,19,-1
 136 273 l 1,16,-1
273 409 m 1,20,-1
 273 682 l 1,21,-1
 409 682 l 1,22,-1
 409 409 l 1,23,-1
 273 409 l 1,20,-1
273 819 m 1,24,-1
 273 955 l 1,25,-1
 409 955 l 1,26,-1
 409 819 l 1,27,-1
 273 819 l 1,24,-1
EndSplineSet
EndChar

StartChar: Agrave
Encoding: 192 192 127
Width: 1092
GlyphClass: 1
Flags: W
LayerCount: 2
Fore
SplineSet
0 0 m 1,0,-1
 0 409 l 1,1,-1
 136 409 l 1,2,-1
 136 0 l 1,3,-1
 0 0 l 1,0,-1
819 0 m 1,4,-1
 819 409 l 1,5,-1
 955 409 l 1,6,-1
 955 0 l 1,7,-1
 819 0 l 1,4,-1
136 409 m 1,8,-1
 136 819 l 1,9,-1
 273 819 l 1,10,-1
 273 546 l 1,11,-1
 682 546 l 1,12,-1
 682 819 l 1,13,-1
 819 819 l 1,14,-1
 819 409 l 1,15,-1
 136 409 l 1,8,-1
273 819 m 1,16,-1
 273 1092 l 1,17,-1
 409 1092 l 1,18,-1
 409 819 l 1,19,-1
 273 819 l 1,16,-1
546 819 m 1,20,-1
 546 1092 l 1,21,-1
 682 1092 l 1,22,-1
 682 819 l 1,23,-1
 546 819 l 1,20,-1
409 1092 m 1,24,-1
 409 1228 l 1,25,-1
 546 1228 l 1,26,-1
 546 1092 l 1,27,-1
 409 1092 l 1,24,-1
409 1365 m 1,28,-1
 409 1501 l 1,29,-1
 546 1501 l 1,30,-1
 546 1365 l 1,31,-1
 409 1365 l 1,28,-1
273 1501 m 1,32,-1
 273 1638 l 1,33,-1
 409 1638 l 1,34,-1
 409 1501 l 1,35,-1
 273 1501 l 1,32,-1
EndSplineSet
EndChar

StartChar: Aacute
Encoding: 193 193 128
Width: 1092
GlyphClass: 1
Flags: W
LayerCount: 2
Fore
SplineSet
0 0 m 1,0,-1
 0 409 l 1,1,-1
 136 409 l 1,2,-1
 136 0 l 1,3,-1
 0 0 l 1,0,-1
819 0 m 1,4,-1
 819 409 l 1,5,-1
 955 409 l 1,6,-1
 955 0 l 1,7,-1
 819 0 l 1,4,-1
136 409 m 1,8,-1
 136 819 l 1,9,-1
 273 819 l 1,10,-1
 273 546 l 1,11,-1
 682 546 l 1,12,-1
 682 819 l 1,13,-1
 819 819 l 1,14,-1
 819 409 l 1,15,-1
 136 409 l 1,8,-1
273 819 m 1,16,-1
 273 1092 l 1,17,-1
 409 1092 l 1,18,-1
 409 819 l 1,19,-1
 273 819 l 1,16,-1
546 819 m 1,20,-1
 546 1092 l 1,21,-1
 682 1092 l 1,22,-1
 682 819 l 1,23,-1
 546 819 l 1,20,-1
409 1092 m 1,24,-1
 409 1228 l 1,25,-1
 546 1228 l 1,26,-1
 546 1092 l 1,27,-1
 409 1092 l 1,24,-1
409 1365 m 1,28,-1
 409 1501 l 1,29,-1
 546 1501 l 1,30,-1
 546 1365 l 1,31,-1
 409 1365 l 1,28,-1
546 1501 m 1,32,-1
 546 1638 l 1,33,-1
 682 1638 l 1,34,-1
 682 1501 l 1,35,-1
 546 1501 l 1,32,-1
EndSplineSet
EndChar

StartChar: Acircumflex
Encoding: 194 194 129
Width: 1092
GlyphClass: 1
Flags: W
LayerCount: 2
Fore
SplineSet
0 0 m 1,0,-1
 0 409 l 1,1,-1
 136 409 l 1,2,-1
 136 0 l 1,3,-1
 0 0 l 1,0,-1
819 0 m 1,4,-1
 819 409 l 1,5,-1
 955 409 l 1,6,-1
 955 0 l 1,7,-1
 819 0 l 1,4,-1
136 409 m 1,8,-1
 136 819 l 1,9,-1
 273 819 l 1,10,-1
 273 546 l 1,11,-1
 682 546 l 1,12,-1
 682 819 l 1,13,-1
 819 819 l 1,14,-1
 819 409 l 1,15,-1
 136 409 l 1,8,-1
273 819 m 1,16,-1
 273 1092 l 1,17,-1
 409 1092 l 1,18,-1
 409 819 l 1,19,-1
 273 819 l 1,16,-1
546 819 m 1,20,-1
 546 1092 l 1,21,-1
 682 1092 l 1,22,-1
 682 819 l 1,23,-1
 546 819 l 1,20,-1
409 1092 m 1,24,-1
 409 1228 l 1,25,-1
 546 1228 l 1,26,-1
 546 1092 l 1,27,-1
 409 1092 l 1,24,-1
273 1365 m 1,28,-1
 273 1501 l 1,29,-1
 409 1501 l 1,30,-1
 409 1365 l 1,31,-1
 273 1365 l 1,28,-1
546 1365 m 1,32,-1
 546 1501 l 1,33,-1
 682 1501 l 1,34,-1
 682 1365 l 1,35,-1
 546 1365 l 1,32,-1
409 1501 m 1,36,-1
 409 1638 l 1,37,-1
 546 1638 l 1,38,-1
 546 1501 l 1,39,-1
 409 1501 l 1,36,-1
EndSplineSet
EndChar

StartChar: Atilde
Encoding: 195 195 130
Width: 1092
GlyphClass: 1
Flags: W
LayerCount: 2
Fore
SplineSet
0 0 m 1,0,-1
 0 409 l 1,1,-1
 136 409 l 1,2,-1
 136 0 l 1,3,-1
 0 0 l 1,0,-1
819 0 m 1,4,-1
 819 409 l 1,5,-1
 955 409 l 1,6,-1
 955 0 l 1,7,-1
 819 0 l 1,4,-1
136 409 m 1,8,-1
 136 819 l 1,9,-1
 273 819 l 1,10,-1
 273 546 l 1,11,-1
 682 546 l 1,12,-1
 682 819 l 1,13,-1
 819 819 l 1,14,-1
 819 409 l 1,15,-1
 136 409 l 1,8,-1
273 819 m 1,16,-1
 273 1092 l 1,17,-1
 409 1092 l 1,18,-1
 409 819 l 1,19,-1
 273 819 l 1,16,-1
546 819 m 1,20,-1
 546 1092 l 1,21,-1
 682 1092 l 1,22,-1
 682 819 l 1,23,-1
 546 819 l 1,20,-1
409 1092 m 1,24,-1
 409 1228 l 1,25,-1
 546 1228 l 1,26,-1
 546 1092 l 1,27,-1
 409 1092 l 1,24,-1
136 1365 m 1,28,-1
 136 1501 l 1,29,-1
 273 1501 l 1,30,-1
 273 1365 l 1,31,-1
 136 1365 l 1,28,-1
409 1365 m 1,32,-1
 409 1501 l 1,33,-1
 682 1501 l 1,34,-1
 682 1365 l 1,35,-1
 409 1365 l 1,32,-1
273 1501 m 1,36,-1
 273 1638 l 1,37,-1
 409 1638 l 1,38,-1
 409 1501 l 1,39,-1
 273 1501 l 1,36,-1
682 1501 m 1,40,-1
 682 1638 l 1,41,-1
 819 1638 l 1,42,-1
 819 1501 l 1,43,-1
 682 1501 l 1,40,-1
EndSplineSet
EndChar

StartChar: Adieresis
Encoding: 196 196 131
Width: 1092
GlyphClass: 1
Flags: W
LayerCount: 2
Fore
SplineSet
0 0 m 1,0,-1
 0 409 l 1,1,-1
 136 409 l 1,2,-1
 136 0 l 1,3,-1
 0 0 l 1,0,-1
819 0 m 1,4,-1
 819 409 l 1,5,-1
 955 409 l 1,6,-1
 955 0 l 1,7,-1
 819 0 l 1,4,-1
136 409 m 1,8,-1
 136 819 l 1,9,-1
 273 819 l 1,10,-1
 273 546 l 1,11,-1
 682 546 l 1,12,-1
 682 819 l 1,13,-1
 819 819 l 1,14,-1
 819 409 l 1,15,-1
 136 409 l 1,8,-1
273 819 m 1,16,-1
 273 1092 l 1,17,-1
 409 1092 l 1,18,-1
 409 819 l 1,19,-1
 273 819 l 1,16,-1
546 819 m 1,20,-1
 546 1092 l 1,21,-1
 682 1092 l 1,22,-1
 682 819 l 1,23,-1
 546 819 l 1,20,-1
409 1092 m 1,24,-1
 409 1228 l 1,25,-1
 546 1228 l 1,26,-1
 546 1092 l 1,27,-1
 409 1092 l 1,24,-1
273 1365 m 1,28,-1
 273 1501 l 1,29,-1
 409 1501 l 1,30,-1
 409 1365 l 1,31,-1
 273 1365 l 1,28,-1
546 1365 m 1,32,-1
 546 1501 l 1,33,-1
 682 1501 l 1,34,-1
 682 1365 l 1,35,-1
 546 1365 l 1,32,-1
EndSplineSet
EndChar

StartChar: Aring
Encoding: 197 197 132
Width: 1092
GlyphClass: 1
Flags: W
LayerCount: 2
Fore
SplineSet
0 0 m 1,0,-1
 0 409 l 1,1,-1
 136 409 l 1,2,-1
 136 0 l 1,3,-1
 0 0 l 1,0,-1
819 0 m 1,4,-1
 819 409 l 1,5,-1
 955 409 l 1,6,-1
 955 0 l 1,7,-1
 819 0 l 1,4,-1
136 409 m 1,8,-1
 136 819 l 1,9,-1
 273 819 l 1,10,-1
 273 546 l 1,11,-1
 682 546 l 1,12,-1
 682 819 l 1,13,-1
 819 819 l 1,14,-1
 819 409 l 1,15,-1
 136 409 l 1,8,-1
273 819 m 1,16,-1
 273 1092 l 1,17,-1
 409 1092 l 1,18,-1
 409 819 l 1,19,-1
 273 819 l 1,16,-1
546 819 m 1,20,-1
 546 1092 l 1,21,-1
 682 1092 l 1,22,-1
 682 819 l 1,23,-1
 546 819 l 1,20,-1
409 1092 m 1,24,-1
 409 1228 l 1,25,-1
 546 1228 l 1,26,-1
 546 1092 l 1,27,-1
 409 1092 l 1,24,-1
273 1228 m 1,28,-1
 273 1501 l 1,29,-1
 409 1501 l 1,30,-1
 409 1228 l 1,31,-1
 273 1228 l 1,28,-1
546 1228 m 1,32,-1
 546 1501 l 1,33,-1
 682 1501 l 1,34,-1
 682 1228 l 1,35,-1
 546 1228 l 1,32,-1
409 1501 m 1,36,-1
 409 1638 l 1,37,-1
 546 1638 l 1,38,-1
 546 1501 l 1,39,-1
 409 1501 l 1,36,-1
EndSplineSet
EndChar

StartChar: AE
Encoding: 198 198 133
Width: 1228
GlyphClass: 1
Flags: W
LayerCount: 2
Fore
SplineSet
0 0 m 1,0,-1
 0 409 l 1,1,-1
 136 409 l 1,2,-1
 136 0 l 1,3,-1
 0 0 l 1,0,-1
273 682 m 1,4,-1
 273 955 l 1,5,-1
 409 955 l 1,6,-1
 409 682 l 1,7,-1
 273 682 l 1,4,-1
546 0 m 1,8,-1
 546 409 l 1,9,-1
 136 409 l 1,10,-1
 136 682 l 1,11,-1
 273 682 l 1,12,-1
 273 546 l 1,13,-1
 546 546 l 1,14,-1
 546 955 l 1,15,-1
 409 955 l 1,16,-1
 409 1092 l 1,17,-1
 546 1092 l 1,18,-1
 546 1228 l 1,19,-1
 1092 1228 l 1,20,-1
 1092 1092 l 1,21,-1
 682 1092 l 1,22,-1
 682 682 l 1,23,-1
 955 682 l 1,24,-1
 955 546 l 1,25,-1
 682 546 l 1,26,-1
 682 136 l 1,27,-1
 1092 136 l 1,28,-1
 1092 0 l 1,29,-1
 546 0 l 1,8,-1
EndSplineSet
EndChar

StartChar: Ccedilla
Encoding: 199 199 134
Width: 955
GlyphClass: 1
Flags: W
LayerCount: 2
Fore
SplineSet
409 -409 m 1,0,-1
 409 -273 l 1,1,-1
 546 -273 l 1,2,-1
 546 -409 l 1,3,-1
 409 -409 l 1,0,-1
546 -273 m 1,4,-1
 546 -136 l 1,5,-1
 682 -136 l 1,6,-1
 682 -273 l 1,7,-1
 546 -273 l 1,4,-1
409 -136 m 1,8,-1
 409 0 l 1,9,-1
 136 0 l 1,10,-1
 136 136 l 1,11,-1
 682 136 l 1,12,-1
 682 0 l 1,13,-1
 546 0 l 1,14,-1
 546 -136 l 1,15,-1
 409 -136 l 1,8,-1
682 136 m 1,16,-1
 682 273 l 1,17,-1
 819 273 l 1,18,-1
 819 136 l 1,19,-1
 682 136 l 1,16,-1
0 136 m 1,20,-1
 0 1092 l 1,21,-1
 136 1092 l 1,22,-1
 136 136 l 1,23,-1
 0 136 l 1,20,-1
682 682 m 1,24,-1
 682 1092 l 1,25,-1
 819 1092 l 1,26,-1
 819 682 l 1,27,-1
 682 682 l 1,24,-1
136 1092 m 1,28,-1
 136 1228 l 1,29,-1
 682 1228 l 1,30,-1
 682 1092 l 1,31,-1
 136 1092 l 1,28,-1
EndSplineSet
EndChar

StartChar: Egrave
Encoding: 200 200 135
Width: 819
GlyphClass: 1
Flags: W
LayerCount: 2
Fore
SplineSet
0 0 m 1,0,-1
 0 1228 l 1,1,-1
 682 1228 l 1,2,-1
 682 1092 l 1,3,-1
 136 1092 l 1,4,-1
 136 682 l 1,5,-1
 546 682 l 1,6,-1
 546 546 l 1,7,-1
 136 546 l 1,8,-1
 136 136 l 1,9,-1
 682 136 l 1,10,-1
 682 0 l 1,11,-1
 0 0 l 1,0,-1
273 1365 m 1,12,-1
 273 1501 l 1,13,-1
 409 1501 l 1,14,-1
 409 1365 l 1,15,-1
 273 1365 l 1,12,-1
136 1501 m 1,16,-1
 136 1638 l 1,17,-1
 273 1638 l 1,18,-1
 273 1501 l 1,19,-1
 136 1501 l 1,16,-1
EndSplineSet
EndChar

StartChar: Eacute
Encoding: 201 201 136
Width: 819
GlyphClass: 1
Flags: W
LayerCount: 2
Fore
SplineSet
0 0 m 1,0,-1
 0 1228 l 1,1,-1
 682 1228 l 1,2,-1
 682 1092 l 1,3,-1
 136 1092 l 1,4,-1
 136 682 l 1,5,-1
 546 682 l 1,6,-1
 546 546 l 1,7,-1
 136 546 l 1,8,-1
 136 136 l 1,9,-1
 682 136 l 1,10,-1
 682 0 l 1,11,-1
 0 0 l 1,0,-1
273 1365 m 1,12,-1
 273 1501 l 1,13,-1
 409 1501 l 1,14,-1
 409 1365 l 1,15,-1
 273 1365 l 1,12,-1
409 1501 m 1,16,-1
 409 1638 l 1,17,-1
 546 1638 l 1,18,-1
 546 1501 l 1,19,-1
 409 1501 l 1,16,-1
EndSplineSet
EndChar

StartChar: Ecircumflex
Encoding: 202 202 137
Width: 819
GlyphClass: 1
Flags: W
LayerCount: 2
Fore
SplineSet
0 0 m 1,0,-1
 0 1228 l 1,1,-1
 682 1228 l 1,2,-1
 682 1092 l 1,3,-1
 136 1092 l 1,4,-1
 136 682 l 1,5,-1
 546 682 l 1,6,-1
 546 546 l 1,7,-1
 136 546 l 1,8,-1
 136 136 l 1,9,-1
 682 136 l 1,10,-1
 682 0 l 1,11,-1
 0 0 l 1,0,-1
136 1365 m 1,12,-1
 136 1501 l 1,13,-1
 273 1501 l 1,14,-1
 273 1365 l 1,15,-1
 136 1365 l 1,12,-1
409 1365 m 1,16,-1
 409 1501 l 1,17,-1
 546 1501 l 1,18,-1
 546 1365 l 1,19,-1
 409 1365 l 1,16,-1
273 1501 m 1,20,-1
 273 1638 l 1,21,-1
 409 1638 l 1,22,-1
 409 1501 l 1,23,-1
 273 1501 l 1,20,-1
EndSplineSet
EndChar

StartChar: Edieresis
Encoding: 203 203 138
Width: 819
GlyphClass: 1
Flags: W
LayerCount: 2
Fore
SplineSet
0 0 m 1,0,-1
 0 1228 l 1,1,-1
 682 1228 l 1,2,-1
 682 1092 l 1,3,-1
 136 1092 l 1,4,-1
 136 682 l 1,5,-1
 546 682 l 1,6,-1
 546 546 l 1,7,-1
 136 546 l 1,8,-1
 136 136 l 1,9,-1
 682 136 l 1,10,-1
 682 0 l 1,11,-1
 0 0 l 1,0,-1
136 1365 m 1,12,-1
 136 1501 l 1,13,-1
 273 1501 l 1,14,-1
 273 1365 l 1,15,-1
 136 1365 l 1,12,-1
409 1365 m 1,16,-1
 409 1501 l 1,17,-1
 546 1501 l 1,18,-1
 546 1365 l 1,19,-1
 409 1365 l 1,16,-1
EndSplineSet
EndChar

StartChar: Igrave
Encoding: 204 204 139
Width: 819
GlyphClass: 1
Flags: W
LayerCount: 2
Fore
SplineSet
0 0 m 1,0,-1
 0 136 l 1,1,-1
 273 136 l 1,2,-1
 273 1092 l 1,3,-1
 0 1092 l 1,4,-1
 0 1228 l 1,5,-1
 682 1228 l 1,6,-1
 682 1092 l 1,7,-1
 409 1092 l 1,8,-1
 409 136 l 1,9,-1
 682 136 l 1,10,-1
 682 0 l 1,11,-1
 0 0 l 1,0,-1
273 1365 m 1,12,-1
 273 1501 l 1,13,-1
 409 1501 l 1,14,-1
 409 1365 l 1,15,-1
 273 1365 l 1,12,-1
136 1501 m 1,16,-1
 136 1638 l 1,17,-1
 273 1638 l 1,18,-1
 273 1501 l 1,19,-1
 136 1501 l 1,16,-1
EndSplineSet
EndChar

StartChar: Iacute
Encoding: 205 205 140
Width: 819
GlyphClass: 1
Flags: W
LayerCount: 2
Fore
SplineSet
0 0 m 1,0,-1
 0 136 l 1,1,-1
 273 136 l 1,2,-1
 273 1092 l 1,3,-1
 0 1092 l 1,4,-1
 0 1228 l 1,5,-1
 682 1228 l 1,6,-1
 682 1092 l 1,7,-1
 409 1092 l 1,8,-1
 409 136 l 1,9,-1
 682 136 l 1,10,-1
 682 0 l 1,11,-1
 0 0 l 1,0,-1
273 1365 m 1,12,-1
 273 1501 l 1,13,-1
 409 1501 l 1,14,-1
 409 1365 l 1,15,-1
 273 1365 l 1,12,-1
409 1501 m 1,16,-1
 409 1638 l 1,17,-1
 546 1638 l 1,18,-1
 546 1501 l 1,19,-1
 409 1501 l 1,16,-1
EndSplineSet
EndChar

StartChar: Icircumflex
Encoding: 206 206 141
Width: 819
GlyphClass: 1
Flags: W
LayerCount: 2
Fore
SplineSet
0 0 m 1,0,-1
 0 136 l 1,1,-1
 273 136 l 1,2,-1
 273 1092 l 1,3,-1
 0 1092 l 1,4,-1
 0 1228 l 1,5,-1
 682 1228 l 1,6,-1
 682 1092 l 1,7,-1
 409 1092 l 1,8,-1
 409 136 l 1,9,-1
 682 136 l 1,10,-1
 682 0 l 1,11,-1
 0 0 l 1,0,-1
136 1365 m 1,12,-1
 136 1501 l 1,13,-1
 273 1501 l 1,14,-1
 273 1365 l 1,15,-1
 136 1365 l 1,12,-1
409 1365 m 1,16,-1
 409 1501 l 1,17,-1
 546 1501 l 1,18,-1
 546 1365 l 1,19,-1
 409 1365 l 1,16,-1
273 1501 m 1,20,-1
 273 1638 l 1,21,-1
 409 1638 l 1,22,-1
 409 1501 l 1,23,-1
 273 1501 l 1,20,-1
EndSplineSet
EndChar

StartChar: Idieresis
Encoding: 207 207 142
Width: 819
GlyphClass: 1
Flags: W
LayerCount: 2
Fore
SplineSet
0 0 m 1,0,-1
 0 136 l 1,1,-1
 273 136 l 1,2,-1
 273 1092 l 1,3,-1
 0 1092 l 1,4,-1
 0 1228 l 1,5,-1
 682 1228 l 1,6,-1
 682 1092 l 1,7,-1
 409 1092 l 1,8,-1
 409 136 l 1,9,-1
 682 136 l 1,10,-1
 682 0 l 1,11,-1
 0 0 l 1,0,-1
136 1365 m 1,12,-1
 136 1501 l 1,13,-1
 273 1501 l 1,14,-1
 273 1365 l 1,15,-1
 136 1365 l 1,12,-1
409 1365 m 1,16,-1
 409 1501 l 1,17,-1
 546 1501 l 1,18,-1
 546 1365 l 1,19,-1
 409 1365 l 1,16,-1
EndSplineSet
EndChar

StartChar: Eth
Encoding: 208 208 143
Width: 1092
GlyphClass: 1
Flags: W
LayerCount: 2
Fore
SplineSet
682 136 m 1,0,-1
 682 273 l 1,1,-1
 819 273 l 1,2,-1
 819 136 l 1,3,-1
 682 136 l 1,0,-1
819 273 m 1,4,-1
 819 1092 l 1,5,-1
 955 1092 l 1,6,-1
 955 273 l 1,7,-1
 819 273 l 1,4,-1
136 0 m 1,8,-1
 136 546 l 1,9,-1
 0 546 l 1,10,-1
 0 682 l 1,11,-1
 136 682 l 1,12,-1
 136 1228 l 1,13,-1
 819 1228 l 1,14,-1
 819 1092 l 1,15,-1
 273 1092 l 1,16,-1
 273 682 l 1,17,-1
 546 682 l 1,18,-1
 546 546 l 1,19,-1
 273 546 l 1,20,-1
 273 136 l 1,21,-1
 682 136 l 1,22,-1
 682 0 l 1,23,-1
 136 0 l 1,8,-1
EndSplineSet
EndChar

StartChar: Ntilde
Encoding: 209 209 144
Width: 955
GlyphClass: 1
Flags: W
LayerCount: 2
Fore
SplineSet
409 136 m 1,0,-1
 409 546 l 1,1,-1
 546 546 l 1,2,-1
 546 136 l 1,3,-1
 409 136 l 1,0,-1
273 546 m 1,4,-1
 273 1092 l 1,5,-1
 409 1092 l 1,6,-1
 409 546 l 1,7,-1
 273 546 l 1,4,-1
0 0 m 1,8,-1
 0 1228 l 1,9,-1
 273 1228 l 1,10,-1
 273 1092 l 1,11,-1
 136 1092 l 1,12,-1
 136 0 l 1,13,-1
 0 0 l 1,8,-1
546 0 m 1,14,-1
 546 136 l 1,15,-1
 682 136 l 1,16,-1
 682 1228 l 1,17,-1
 819 1228 l 1,18,-1
 819 0 l 1,19,-1
 546 0 l 1,14,-1
136 1365 m 1,20,-1
 136 1501 l 1,21,-1
 273 1501 l 1,22,-1
 273 1365 l 1,23,-1
 136 1365 l 1,20,-1
409 1365 m 1,24,-1
 409 1501 l 1,25,-1
 546 1501 l 1,26,-1
 546 1365 l 1,27,-1
 409 1365 l 1,24,-1
273 1501 m 1,28,-1
 273 1638 l 1,29,-1
 409 1638 l 1,30,-1
 409 1501 l 1,31,-1
 273 1501 l 1,28,-1
546 1501 m 1,32,-1
 546 1638 l 1,33,-1
 682 1638 l 1,34,-1
 682 1501 l 1,35,-1
 546 1501 l 1,32,-1
EndSplineSet
EndChar

StartChar: Ograve
Encoding: 210 210 145
Width: 955
GlyphClass: 1
Flags: W
LayerCount: 2
Fore
SplineSet
136 0 m 1,0,-1
 136 136 l 1,1,-1
 682 136 l 1,2,-1
 682 0 l 1,3,-1
 136 0 l 1,0,-1
0 136 m 1,4,-1
 0 1092 l 1,5,-1
 136 1092 l 1,6,-1
 136 136 l 1,7,-1
 0 136 l 1,4,-1
682 136 m 1,8,-1
 682 1092 l 1,9,-1
 819 1092 l 1,10,-1
 819 136 l 1,11,-1
 682 136 l 1,8,-1
136 1092 m 1,12,-1
 136 1228 l 1,13,-1
 682 1228 l 1,14,-1
 682 1092 l 1,15,-1
 136 1092 l 1,12,-1
409 1365 m 1,16,-1
 409 1501 l 1,17,-1
 546 1501 l 1,18,-1
 546 1365 l 1,19,-1
 409 1365 l 1,16,-1
273 1501 m 1,20,-1
 273 1638 l 1,21,-1
 409 1638 l 1,22,-1
 409 1501 l 1,23,-1
 273 1501 l 1,20,-1
EndSplineSet
EndChar

StartChar: Oacute
Encoding: 211 211 146
Width: 955
GlyphClass: 1
Flags: W
LayerCount: 2
Fore
SplineSet
136 0 m 1,0,-1
 136 136 l 1,1,-1
 682 136 l 1,2,-1
 682 0 l 1,3,-1
 136 0 l 1,0,-1
0 136 m 1,4,-1
 0 1092 l 1,5,-1
 136 1092 l 1,6,-1
 136 136 l 1,7,-1
 0 136 l 1,4,-1
682 136 m 1,8,-1
 682 1092 l 1,9,-1
 819 1092 l 1,10,-1
 819 136 l 1,11,-1
 682 136 l 1,8,-1
136 1092 m 1,12,-1
 136 1228 l 1,13,-1
 682 1228 l 1,14,-1
 682 1092 l 1,15,-1
 136 1092 l 1,12,-1
273 1365 m 1,16,-1
 273 1501 l 1,17,-1
 409 1501 l 1,18,-1
 409 1365 l 1,19,-1
 273 1365 l 1,16,-1
409 1501 m 1,20,-1
 409 1638 l 1,21,-1
 546 1638 l 1,22,-1
 546 1501 l 1,23,-1
 409 1501 l 1,20,-1
EndSplineSet
EndChar

StartChar: Ocircumflex
Encoding: 212 212 147
Width: 955
GlyphClass: 1
Flags: W
LayerCount: 2
Fore
SplineSet
136 0 m 1,0,-1
 136 136 l 1,1,-1
 682 136 l 1,2,-1
 682 0 l 1,3,-1
 136 0 l 1,0,-1
0 136 m 1,4,-1
 0 1092 l 1,5,-1
 136 1092 l 1,6,-1
 136 136 l 1,7,-1
 0 136 l 1,4,-1
682 136 m 1,8,-1
 682 1092 l 1,9,-1
 819 1092 l 1,10,-1
 819 136 l 1,11,-1
 682 136 l 1,8,-1
136 1092 m 1,12,-1
 136 1228 l 1,13,-1
 682 1228 l 1,14,-1
 682 1092 l 1,15,-1
 136 1092 l 1,12,-1
136 1365 m 1,16,-1
 136 1501 l 1,17,-1
 273 1501 l 1,18,-1
 273 1365 l 1,19,-1
 136 1365 l 1,16,-1
546 1365 m 1,20,-1
 546 1501 l 1,21,-1
 682 1501 l 1,22,-1
 682 1365 l 1,23,-1
 546 1365 l 1,20,-1
273 1501 m 1,24,-1
 273 1638 l 1,25,-1
 546 1638 l 1,26,-1
 546 1501 l 1,27,-1
 273 1501 l 1,24,-1
EndSplineSet
EndChar

StartChar: Otilde
Encoding: 213 213 148
Width: 955
GlyphClass: 1
Flags: W
LayerCount: 2
Fore
SplineSet
136 0 m 1,0,-1
 136 136 l 1,1,-1
 682 136 l 1,2,-1
 682 0 l 1,3,-1
 136 0 l 1,0,-1
0 136 m 1,4,-1
 0 1092 l 1,5,-1
 136 1092 l 1,6,-1
 136 136 l 1,7,-1
 0 136 l 1,4,-1
682 136 m 1,8,-1
 682 1092 l 1,9,-1
 819 1092 l 1,10,-1
 819 136 l 1,11,-1
 682 136 l 1,8,-1
136 1092 m 1,12,-1
 136 1228 l 1,13,-1
 682 1228 l 1,14,-1
 682 1092 l 1,15,-1
 136 1092 l 1,12,-1
136 1365 m 1,16,-1
 136 1501 l 1,17,-1
 273 1501 l 1,18,-1
 273 1365 l 1,19,-1
 136 1365 l 1,16,-1
409 1365 m 1,20,-1
 409 1501 l 1,21,-1
 546 1501 l 1,22,-1
 546 1365 l 1,23,-1
 409 1365 l 1,20,-1
273 1501 m 1,24,-1
 273 1638 l 1,25,-1
 409 1638 l 1,26,-1
 409 1501 l 1,27,-1
 273 1501 l 1,24,-1
546 1501 m 1,28,-1
 546 1638 l 1,29,-1
 682 1638 l 1,30,-1
 682 1501 l 1,31,-1
 546 1501 l 1,28,-1
EndSplineSet
EndChar

StartChar: Odieresis
Encoding: 214 214 149
Width: 955
GlyphClass: 1
Flags: W
LayerCount: 2
Fore
SplineSet
136 0 m 1,0,-1
 136 136 l 1,1,-1
 682 136 l 1,2,-1
 682 0 l 1,3,-1
 136 0 l 1,0,-1
0 136 m 1,4,-1
 0 1092 l 1,5,-1
 136 1092 l 1,6,-1
 136 136 l 1,7,-1
 0 136 l 1,4,-1
682 136 m 1,8,-1
 682 1092 l 1,9,-1
 819 1092 l 1,10,-1
 819 136 l 1,11,-1
 682 136 l 1,8,-1
136 1092 m 1,12,-1
 136 1228 l 1,13,-1
 682 1228 l 1,14,-1
 682 1092 l 1,15,-1
 136 1092 l 1,12,-1
136 1365 m 1,16,-1
 136 1501 l 1,17,-1
 273 1501 l 1,18,-1
 273 1365 l 1,19,-1
 136 1365 l 1,16,-1
546 1365 m 1,20,-1
 546 1501 l 1,21,-1
 682 1501 l 1,22,-1
 682 1365 l 1,23,-1
 546 1365 l 1,20,-1
EndSplineSet
EndChar

StartChar: multiply
Encoding: 215 215 150
Width: 819
GlyphClass: 1
Flags: W
LayerCount: 2
Fore
SplineSet
0 136 m 1,0,-1
 0 273 l 1,1,-1
 136 273 l 1,2,-1
 136 136 l 1,3,-1
 0 136 l 1,0,-1
546 136 m 1,4,-1
 546 273 l 1,5,-1
 682 273 l 1,6,-1
 682 136 l 1,7,-1
 546 136 l 1,4,-1
136 273 m 1,8,-1
 136 409 l 1,9,-1
 273 409 l 1,10,-1
 273 273 l 1,11,-1
 136 273 l 1,8,-1
409 273 m 1,12,-1
 409 409 l 1,13,-1
 546 409 l 1,14,-1
 546 273 l 1,15,-1
 409 273 l 1,12,-1
273 409 m 1,16,-1
 273 546 l 1,17,-1
 409 546 l 1,18,-1
 409 409 l 1,19,-1
 273 409 l 1,16,-1
136 546 m 1,20,-1
 136 682 l 1,21,-1
 273 682 l 1,22,-1
 273 546 l 1,23,-1
 136 546 l 1,20,-1
409 546 m 1,24,-1
 409 682 l 1,25,-1
 546 682 l 1,26,-1
 546 546 l 1,27,-1
 409 546 l 1,24,-1
0 682 m 1,28,-1
 0 819 l 1,29,-1
 136 819 l 1,30,-1
 136 682 l 1,31,-1
 0 682 l 1,28,-1
546 682 m 1,32,-1
 546 819 l 1,33,-1
 682 819 l 1,34,-1
 682 682 l 1,35,-1
 546 682 l 1,32,-1
EndSplineSet
EndChar

StartChar: Oslash
Encoding: 216 216 151
Width: 955
GlyphClass: 1
Flags: W
LayerCount: 2
Fore
SplineSet
0 0 m 1,0,-1
 0 136 l 1,1,-1
 136 136 l 1,2,-1
 136 0 l 1,3,-1
 0 0 l 1,0,-1
273 0 m 1,4,-1
 273 136 l 1,5,-1
 682 136 l 1,6,-1
 682 0 l 1,7,-1
 273 0 l 1,4,-1
136 136 m 1,8,-1
 136 273 l 1,9,-1
 273 273 l 1,10,-1
 273 136 l 1,11,-1
 136 136 l 1,8,-1
273 273 m 1,12,-1
 273 546 l 1,13,-1
 409 546 l 1,14,-1
 409 273 l 1,15,-1
 273 273 l 1,12,-1
409 546 m 1,16,-1
 409 955 l 1,17,-1
 546 955 l 1,18,-1
 546 546 l 1,19,-1
 409 546 l 1,16,-1
682 136 m 1,20,-1
 682 955 l 1,21,-1
 819 955 l 1,22,-1
 819 136 l 1,23,-1
 682 136 l 1,20,-1
0 273 m 1,24,-1
 0 1092 l 1,25,-1
 136 1092 l 1,26,-1
 136 273 l 1,27,-1
 0 273 l 1,24,-1
546 955 m 1,28,-1
 546 1092 l 1,29,-1
 682 1092 l 1,30,-1
 682 955 l 1,31,-1
 546 955 l 1,28,-1
136 1092 m 1,32,-1
 136 1228 l 1,33,-1
 546 1228 l 1,34,-1
 546 1092 l 1,35,-1
 136 1092 l 1,32,-1
682 1092 m 1,36,-1
 682 1228 l 1,37,-1
 819 1228 l 1,38,-1
 819 1092 l 1,39,-1
 682 1092 l 1,36,-1
EndSplineSet
EndChar

StartChar: Ugrave
Encoding: 217 217 152
Width: 955
GlyphClass: 1
Flags: W
LayerCount: 2
Fore
SplineSet
136 0 m 1,0,-1
 136 136 l 1,1,-1
 682 136 l 1,2,-1
 682 0 l 1,3,-1
 136 0 l 1,0,-1
0 136 m 1,4,-1
 0 1228 l 1,5,-1
 136 1228 l 1,6,-1
 136 136 l 1,7,-1
 0 136 l 1,4,-1
682 136 m 1,8,-1
 682 1228 l 1,9,-1
 819 1228 l 1,10,-1
 819 136 l 1,11,-1
 682 136 l 1,8,-1
409 1365 m 1,12,-1
 409 1501 l 1,13,-1
 546 1501 l 1,14,-1
 546 1365 l 1,15,-1
 409 1365 l 1,12,-1
273 1501 m 1,16,-1
 273 1638 l 1,17,-1
 409 1638 l 1,18,-1
 409 1501 l 1,19,-1
 273 1501 l 1,16,-1
EndSplineSet
EndChar

StartChar: Uacute
Encoding: 218 218 153
Width: 955
GlyphClass: 1
Flags: W
LayerCount: 2
Fore
SplineSet
136 0 m 1,0,-1
 136 136 l 1,1,-1
 682 136 l 1,2,-1
 682 0 l 1,3,-1
 136 0 l 1,0,-1
0 136 m 1,4,-1
 0 1228 l 1,5,-1
 136 1228 l 1,6,-1
 136 136 l 1,7,-1
 0 136 l 1,4,-1
682 136 m 1,8,-1
 682 1228 l 1,9,-1
 819 1228 l 1,10,-1
 819 136 l 1,11,-1
 682 136 l 1,8,-1
273 1365 m 1,12,-1
 273 1501 l 1,13,-1
 409 1501 l 1,14,-1
 409 1365 l 1,15,-1
 273 1365 l 1,12,-1
409 1501 m 1,16,-1
 409 1638 l 1,17,-1
 546 1638 l 1,18,-1
 546 1501 l 1,19,-1
 409 1501 l 1,16,-1
EndSplineSet
EndChar

StartChar: Ucircumflex
Encoding: 219 219 154
Width: 955
GlyphClass: 1
Flags: W
LayerCount: 2
Fore
SplineSet
136 0 m 1,0,-1
 136 136 l 1,1,-1
 682 136 l 1,2,-1
 682 0 l 1,3,-1
 136 0 l 1,0,-1
0 136 m 1,4,-1
 0 1228 l 1,5,-1
 136 1228 l 1,6,-1
 136 136 l 1,7,-1
 0 136 l 1,4,-1
682 136 m 1,8,-1
 682 1228 l 1,9,-1
 819 1228 l 1,10,-1
 819 136 l 1,11,-1
 682 136 l 1,8,-1
136 1365 m 1,12,-1
 136 1501 l 1,13,-1
 273 1501 l 1,14,-1
 273 1365 l 1,15,-1
 136 1365 l 1,12,-1
546 1365 m 1,16,-1
 546 1501 l 1,17,-1
 682 1501 l 1,18,-1
 682 1365 l 1,19,-1
 546 1365 l 1,16,-1
273 1501 m 1,20,-1
 273 1638 l 1,21,-1
 546 1638 l 1,22,-1
 546 1501 l 1,23,-1
 273 1501 l 1,20,-1
EndSplineSet
EndChar

StartChar: Udieresis
Encoding: 220 220 155
Width: 955
GlyphClass: 1
Flags: W
LayerCount: 2
Fore
SplineSet
136 0 m 1,0,-1
 136 136 l 1,1,-1
 682 136 l 1,2,-1
 682 0 l 1,3,-1
 136 0 l 1,0,-1
0 136 m 1,4,-1
 0 1228 l 1,5,-1
 136 1228 l 1,6,-1
 136 136 l 1,7,-1
 0 136 l 1,4,-1
682 136 m 1,8,-1
 682 1228 l 1,9,-1
 819 1228 l 1,10,-1
 819 136 l 1,11,-1
 682 136 l 1,8,-1
136 1365 m 1,12,-1
 136 1501 l 1,13,-1
 273 1501 l 1,14,-1
 273 1365 l 1,15,-1
 136 1365 l 1,12,-1
546 1365 m 1,16,-1
 546 1501 l 1,17,-1
 682 1501 l 1,18,-1
 682 1365 l 1,19,-1
 546 1365 l 1,16,-1
EndSplineSet
EndChar

StartChar: Yacute
Encoding: 221 221 156
Width: 819
GlyphClass: 1
Flags: W
LayerCount: 2
Fore
SplineSet
273 0 m 1,0,-1
 273 682 l 1,1,-1
 409 682 l 1,2,-1
 409 0 l 1,3,-1
 273 0 l 1,0,-1
136 682 m 1,4,-1
 136 819 l 1,5,-1
 273 819 l 1,6,-1
 273 682 l 1,7,-1
 136 682 l 1,4,-1
409 682 m 1,8,-1
 409 819 l 1,9,-1
 546 819 l 1,10,-1
 546 682 l 1,11,-1
 409 682 l 1,8,-1
0 819 m 1,12,-1
 0 1228 l 1,13,-1
 136 1228 l 1,14,-1
 136 819 l 1,15,-1
 0 819 l 1,12,-1
546 819 m 1,16,-1
 546 1228 l 1,17,-1
 682 1228 l 1,18,-1
 682 819 l 1,19,-1
 546 819 l 1,16,-1
273 1365 m 1,20,-1
 273 1501 l 1,21,-1
 409 1501 l 1,22,-1
 409 1365 l 1,23,-1
 273 1365 l 1,20,-1
409 1501 m 1,24,-1
 409 1638 l 1,25,-1
 546 1638 l 1,26,-1
 546 1501 l 1,27,-1
 409 1501 l 1,24,-1
EndSplineSet
EndChar

StartChar: Thorn
Encoding: 222 222 157
Width: 819
GlyphClass: 1
Flags: W
LayerCount: 2
Fore
SplineSet
546 409 m 1,0,-1
 546 819 l 1,1,-1
 682 819 l 1,2,-1
 682 409 l 1,3,-1
 546 409 l 1,0,-1
0 0 m 1,4,-1
 0 1228 l 1,5,-1
 136 1228 l 1,6,-1
 136 955 l 1,7,-1
 546 955 l 1,8,-1
 546 819 l 1,9,-1
 136 819 l 1,10,-1
 136 409 l 1,11,-1
 546 409 l 1,12,-1
 546 273 l 1,13,-1
 136 273 l 1,14,-1
 136 0 l 1,15,-1
 0 0 l 1,4,-1
EndSplineSet
EndChar

StartChar: germandbls
Encoding: 223 223 158
Width: 819
GlyphClass: 1
Flags: W
LayerCount: 2
Fore
SplineSet
273 0 m 1,0,-1
 273 136 l 1,1,-1
 546 136 l 1,2,-1
 546 0 l 1,3,-1
 273 0 l 1,0,-1
546 136 m 1,4,-1
 546 409 l 1,5,-1
 682 409 l 1,6,-1
 682 136 l 1,7,-1
 546 136 l 1,4,-1
409 409 m 1,8,-1
 409 546 l 1,9,-1
 546 546 l 1,10,-1
 546 409 l 1,11,-1
 409 409 l 1,8,-1
273 546 m 1,12,-1
 273 819 l 1,13,-1
 409 819 l 1,14,-1
 409 546 l 1,15,-1
 273 546 l 1,12,-1
0 0 m 1,16,-1
 0 1092 l 1,17,-1
 136 1092 l 1,18,-1
 136 0 l 1,19,-1
 0 0 l 1,16,-1
409 819 m 1,20,-1
 409 1092 l 1,21,-1
 546 1092 l 1,22,-1
 546 819 l 1,23,-1
 409 819 l 1,20,-1
136 1092 m 1,24,-1
 136 1228 l 1,25,-1
 409 1228 l 1,26,-1
 409 1092 l 1,27,-1
 136 1092 l 1,24,-1
EndSplineSet
EndChar

StartChar: agrave
Encoding: 224 224 159
Width: 956
GlyphClass: 1
Flags: W
LayerCount: 2
Fore
SplineSet
136 0 m 1,0,-1
 136 136 l 1,1,-1
 546 136 l 1,2,-1
 546 0 l 1,3,-1
 136 0 l 1,0,-1
682 0 m 1,4,-1
 682 136 l 1,5,-1
 819 136 l 1,6,-1
 819 0 l 1,7,-1
 682 0 l 1,4,-1
0 136 m 1,8,-1
 0 273 l 1,9,-1
 136 273 l 1,10,-1
 136 136 l 1,11,-1
 0 136 l 1,8,-1
136 273 m 1,12,-1
 136 409 l 1,13,-1
 273 409 l 1,14,-1
 273 273 l 1,15,-1
 136 273 l 1,12,-1
0 546 m 1,16,-1
 0 819 l 1,17,-1
 136 819 l 1,18,-1
 136 546 l 1,19,-1
 0 546 l 1,16,-1
546 136 m 1,20,-1
 546 409 l 1,21,-1
 273 409 l 1,22,-1
 273 546 l 1,23,-1
 546 546 l 1,24,-1
 546 819 l 1,25,-1
 682 819 l 1,26,-1
 682 136 l 1,27,-1
 546 136 l 1,20,-1
136 819 m 1,28,-1
 136 955 l 1,29,-1
 546 955 l 1,30,-1
 546 819 l 1,31,-1
 136 819 l 1,28,-1
273 1092 m 1,32,-1
 273 1228 l 1,33,-1
 409 1228 l 1,34,-1
 409 1092 l 1,35,-1
 273 1092 l 1,32,-1
136 1228 m 1,36,-1
 136 1365 l 1,37,-1
 273 1365 l 1,38,-1
 273 1228 l 1,39,-1
 136 1228 l 1,36,-1
EndSplineSet
EndChar

StartChar: aacute
Encoding: 225 225 160
Width: 956
GlyphClass: 1
Flags: W
LayerCount: 2
Fore
SplineSet
136 0 m 1,0,-1
 136 136 l 1,1,-1
 546 136 l 1,2,-1
 546 0 l 1,3,-1
 136 0 l 1,0,-1
682 0 m 1,4,-1
 682 136 l 1,5,-1
 819 136 l 1,6,-1
 819 0 l 1,7,-1
 682 0 l 1,4,-1
0 136 m 1,8,-1
 0 273 l 1,9,-1
 136 273 l 1,10,-1
 136 136 l 1,11,-1
 0 136 l 1,8,-1
136 273 m 1,12,-1
 136 409 l 1,13,-1
 273 409 l 1,14,-1
 273 273 l 1,15,-1
 136 273 l 1,12,-1
0 546 m 1,16,-1
 0 819 l 1,17,-1
 136 819 l 1,18,-1
 136 546 l 1,19,-1
 0 546 l 1,16,-1
546 136 m 1,20,-1
 546 409 l 1,21,-1
 273 409 l 1,22,-1
 273 546 l 1,23,-1
 546 546 l 1,24,-1
 546 819 l 1,25,-1
 682 819 l 1,26,-1
 682 136 l 1,27,-1
 546 136 l 1,20,-1
136 819 m 1,28,-1
 136 955 l 1,29,-1
 546 955 l 1,30,-1
 546 819 l 1,31,-1
 136 819 l 1,28,-1
273 1092 m 1,32,-1
 273 1228 l 1,33,-1
 409 1228 l 1,34,-1
 409 1092 l 1,35,-1
 273 1092 l 1,32,-1
409 1228 m 1,36,-1
 409 1365 l 1,37,-1
 546 1365 l 1,38,-1
 546 1228 l 1,39,-1
 409 1228 l 1,36,-1
EndSplineSet
EndChar

StartChar: acircumflex
Encoding: 226 226 161
Width: 956
GlyphClass: 1
Flags: W
LayerCount: 2
Fore
SplineSet
136 0 m 1,0,-1
 136 136 l 1,1,-1
 546 136 l 1,2,-1
 546 0 l 1,3,-1
 136 0 l 1,0,-1
682 0 m 1,4,-1
 682 136 l 1,5,-1
 819 136 l 1,6,-1
 819 0 l 1,7,-1
 682 0 l 1,4,-1
0 136 m 1,8,-1
 0 273 l 1,9,-1
 136 273 l 1,10,-1
 136 136 l 1,11,-1
 0 136 l 1,8,-1
136 273 m 1,12,-1
 136 409 l 1,13,-1
 273 409 l 1,14,-1
 273 273 l 1,15,-1
 136 273 l 1,12,-1
0 546 m 1,16,-1
 0 819 l 1,17,-1
 136 819 l 1,18,-1
 136 546 l 1,19,-1
 0 546 l 1,16,-1
546 136 m 1,20,-1
 546 409 l 1,21,-1
 273 409 l 1,22,-1
 273 546 l 1,23,-1
 546 546 l 1,24,-1
 546 819 l 1,25,-1
 682 819 l 1,26,-1
 682 136 l 1,27,-1
 546 136 l 1,20,-1
136 819 m 1,28,-1
 136 955 l 1,29,-1
 546 955 l 1,30,-1
 546 819 l 1,31,-1
 136 819 l 1,28,-1
136 1092 m 1,32,-1
 136 1228 l 1,33,-1
 273 1228 l 1,34,-1
 273 1092 l 1,35,-1
 136 1092 l 1,32,-1
409 1092 m 1,36,-1
 409 1228 l 1,37,-1
 546 1228 l 1,38,-1
 546 1092 l 1,39,-1
 409 1092 l 1,36,-1
273 1228 m 1,40,-1
 273 1365 l 1,41,-1
 409 1365 l 1,42,-1
 409 1228 l 1,43,-1
 273 1228 l 1,40,-1
EndSplineSet
EndChar

StartChar: atilde
Encoding: 227 227 162
Width: 956
GlyphClass: 1
Flags: W
LayerCount: 2
Fore
SplineSet
136 0 m 1,0,-1
 136 136 l 1,1,-1
 546 136 l 1,2,-1
 546 0 l 1,3,-1
 136 0 l 1,0,-1
682 0 m 1,4,-1
 682 136 l 1,5,-1
 819 136 l 1,6,-1
 819 0 l 1,7,-1
 682 0 l 1,4,-1
0 136 m 1,8,-1
 0 273 l 1,9,-1
 136 273 l 1,10,-1
 136 136 l 1,11,-1
 0 136 l 1,8,-1
136 273 m 1,12,-1
 136 409 l 1,13,-1
 273 409 l 1,14,-1
 273 273 l 1,15,-1
 136 273 l 1,12,-1
0 546 m 1,16,-1
 0 819 l 1,17,-1
 136 819 l 1,18,-1
 136 546 l 1,19,-1
 0 546 l 1,16,-1
546 136 m 1,20,-1
 546 409 l 1,21,-1
 273 409 l 1,22,-1
 273 546 l 1,23,-1
 546 546 l 1,24,-1
 546 819 l 1,25,-1
 682 819 l 1,26,-1
 682 136 l 1,27,-1
 546 136 l 1,20,-1
136 819 m 1,28,-1
 136 955 l 1,29,-1
 546 955 l 1,30,-1
 546 819 l 1,31,-1
 136 819 l 1,28,-1
136 1092 m 1,32,-1
 136 1228 l 1,33,-1
 273 1228 l 1,34,-1
 273 1092 l 1,35,-1
 136 1092 l 1,32,-1
409 1092 m 1,36,-1
 409 1228 l 1,37,-1
 546 1228 l 1,38,-1
 546 1092 l 1,39,-1
 409 1092 l 1,36,-1
273 1228 m 1,40,-1
 273 1365 l 1,41,-1
 409 1365 l 1,42,-1
 409 1228 l 1,43,-1
 273 1228 l 1,40,-1
546 1228 m 1,44,-1
 546 1365 l 1,45,-1
 682 1365 l 1,46,-1
 682 1228 l 1,47,-1
 546 1228 l 1,44,-1
EndSplineSet
EndChar

StartChar: adieresis
Encoding: 228 228 163
Width: 956
GlyphClass: 1
Flags: W
LayerCount: 2
Fore
SplineSet
136 0 m 1,0,-1
 136 136 l 1,1,-1
 546 136 l 1,2,-1
 546 0 l 1,3,-1
 136 0 l 1,0,-1
682 0 m 1,4,-1
 682 136 l 1,5,-1
 819 136 l 1,6,-1
 819 0 l 1,7,-1
 682 0 l 1,4,-1
0 136 m 1,8,-1
 0 273 l 1,9,-1
 136 273 l 1,10,-1
 136 136 l 1,11,-1
 0 136 l 1,8,-1
136 273 m 1,12,-1
 136 409 l 1,13,-1
 273 409 l 1,14,-1
 273 273 l 1,15,-1
 136 273 l 1,12,-1
0 546 m 1,16,-1
 0 819 l 1,17,-1
 136 819 l 1,18,-1
 136 546 l 1,19,-1
 0 546 l 1,16,-1
546 136 m 1,20,-1
 546 409 l 1,21,-1
 273 409 l 1,22,-1
 273 546 l 1,23,-1
 546 546 l 1,24,-1
 546 819 l 1,25,-1
 682 819 l 1,26,-1
 682 136 l 1,27,-1
 546 136 l 1,20,-1
136 819 m 1,28,-1
 136 955 l 1,29,-1
 546 955 l 1,30,-1
 546 819 l 1,31,-1
 136 819 l 1,28,-1
136 1092 m 1,32,-1
 136 1228 l 1,33,-1
 273 1228 l 1,34,-1
 273 1092 l 1,35,-1
 136 1092 l 1,32,-1
409 1092 m 1,36,-1
 409 1228 l 1,37,-1
 546 1228 l 1,38,-1
 546 1092 l 1,39,-1
 409 1092 l 1,36,-1
EndSplineSet
EndChar

StartChar: aring
Encoding: 229 229 164
Width: 956
GlyphClass: 1
Flags: W
LayerCount: 2
Fore
SplineSet
136 0 m 1,0,-1
 136 136 l 1,1,-1
 546 136 l 1,2,-1
 546 0 l 1,3,-1
 136 0 l 1,0,-1
682 0 m 1,4,-1
 682 136 l 1,5,-1
 819 136 l 1,6,-1
 819 0 l 1,7,-1
 682 0 l 1,4,-1
0 136 m 1,8,-1
 0 273 l 1,9,-1
 136 273 l 1,10,-1
 136 136 l 1,11,-1
 0 136 l 1,8,-1
136 273 m 1,12,-1
 136 409 l 1,13,-1
 273 409 l 1,14,-1
 273 273 l 1,15,-1
 136 273 l 1,12,-1
0 546 m 1,16,-1
 0 819 l 1,17,-1
 136 819 l 1,18,-1
 136 546 l 1,19,-1
 0 546 l 1,16,-1
546 136 m 1,20,-1
 546 409 l 1,21,-1
 273 409 l 1,22,-1
 273 546 l 1,23,-1
 546 546 l 1,24,-1
 546 819 l 1,25,-1
 682 819 l 1,26,-1
 682 136 l 1,27,-1
 546 136 l 1,20,-1
136 819 m 1,28,-1
 136 955 l 1,29,-1
 273 955 l 1,30,-1
 273 1092 l 1,31,-1
 409 1092 l 1,32,-1
 409 955 l 1,33,-1
 546 955 l 1,34,-1
 546 819 l 1,35,-1
 136 819 l 1,28,-1
136 1092 m 1,36,-1
 136 1228 l 1,37,-1
 273 1228 l 1,38,-1
 273 1092 l 1,39,-1
 136 1092 l 1,36,-1
409 1092 m 1,40,-1
 409 1228 l 1,41,-1
 546 1228 l 1,42,-1
 546 1092 l 1,43,-1
 409 1092 l 1,40,-1
273 1228 m 1,44,-1
 273 1365 l 1,45,-1
 409 1365 l 1,46,-1
 409 1228 l 1,47,-1
 273 1228 l 1,44,-1
EndSplineSet
EndChar

StartChar: ae
Encoding: 230 230 165
Width: 1092
GlyphClass: 1
Flags: W
LayerCount: 2
Fore
SplineSet
136 0 m 1,0,-1
 136 136 l 1,1,-1
 409 136 l 1,2,-1
 409 0 l 1,3,-1
 136 0 l 1,0,-1
546 0 m 1,4,-1
 546 136 l 1,5,-1
 819 136 l 1,6,-1
 819 0 l 1,7,-1
 546 0 l 1,4,-1
0 136 m 1,8,-1
 0 273 l 1,9,-1
 136 273 l 1,10,-1
 136 136 l 1,11,-1
 0 136 l 1,8,-1
819 136 m 1,12,-1
 819 273 l 1,13,-1
 955 273 l 1,14,-1
 955 136 l 1,15,-1
 819 136 l 1,12,-1
136 273 m 1,16,-1
 136 409 l 1,17,-1
 273 409 l 1,18,-1
 273 273 l 1,19,-1
 136 273 l 1,16,-1
0 546 m 1,20,-1
 0 819 l 1,21,-1
 136 819 l 1,22,-1
 136 546 l 1,23,-1
 0 546 l 1,20,-1
409 136 m 1,24,-1
 409 409 l 1,25,-1
 273 409 l 1,26,-1
 273 546 l 1,27,-1
 409 546 l 1,28,-1
 409 819 l 1,29,-1
 546 819 l 1,30,-1
 546 546 l 1,31,-1
 819 546 l 1,32,-1
 819 819 l 1,33,-1
 955 819 l 1,34,-1
 955 409 l 1,35,-1
 546 409 l 1,36,-1
 546 136 l 1,37,-1
 409 136 l 1,24,-1
136 819 m 1,38,-1
 136 955 l 1,39,-1
 409 955 l 1,40,-1
 409 819 l 1,41,-1
 136 819 l 1,38,-1
546 819 m 1,42,-1
 546 955 l 1,43,-1
 819 955 l 1,44,-1
 819 819 l 1,45,-1
 546 819 l 1,42,-1
EndSplineSet
EndChar

StartChar: ccedilla
Encoding: 231 231 166
Width: 819
GlyphClass: 1
Flags: W
LayerCount: 2
Fore
SplineSet
273 -409 m 1,0,-1
 273 -273 l 1,1,-1
 409 -273 l 1,2,-1
 409 -409 l 1,3,-1
 273 -409 l 1,0,-1
409 -273 m 1,4,-1
 409 -136 l 1,5,-1
 546 -136 l 1,6,-1
 546 -273 l 1,7,-1
 409 -273 l 1,4,-1
273 -136 m 1,8,-1
 273 0 l 1,9,-1
 136 0 l 1,10,-1
 136 136 l 1,11,-1
 546 136 l 1,12,-1
 546 0 l 1,13,-1
 409 0 l 1,14,-1
 409 -136 l 1,15,-1
 273 -136 l 1,8,-1
546 136 m 1,16,-1
 546 273 l 1,17,-1
 682 273 l 1,18,-1
 682 136 l 1,19,-1
 546 136 l 1,16,-1
0 136 m 1,20,-1
 0 819 l 1,21,-1
 136 819 l 1,22,-1
 136 136 l 1,23,-1
 0 136 l 1,20,-1
546 546 m 1,24,-1
 546 819 l 1,25,-1
 682 819 l 1,26,-1
 682 546 l 1,27,-1
 546 546 l 1,24,-1
136 819 m 1,28,-1
 136 955 l 1,29,-1
 546 955 l 1,30,-1
 546 819 l 1,31,-1
 136 819 l 1,28,-1
EndSplineSet
EndChar

StartChar: egrave
Encoding: 232 232 167
Width: 819
GlyphClass: 1
Flags: W
LayerCount: 2
Fore
SplineSet
136 0 m 1,0,-1
 136 136 l 1,1,-1
 546 136 l 1,2,-1
 546 0 l 1,3,-1
 136 0 l 1,0,-1
546 136 m 1,4,-1
 546 273 l 1,5,-1
 682 273 l 1,6,-1
 682 136 l 1,7,-1
 546 136 l 1,4,-1
0 136 m 1,8,-1
 0 819 l 1,9,-1
 136 819 l 1,10,-1
 136 546 l 1,11,-1
 546 546 l 1,12,-1
 546 819 l 1,13,-1
 682 819 l 1,14,-1
 682 409 l 1,15,-1
 136 409 l 1,16,-1
 136 136 l 1,17,-1
 0 136 l 1,8,-1
136 819 m 1,18,-1
 136 955 l 1,19,-1
 546 955 l 1,20,-1
 546 819 l 1,21,-1
 136 819 l 1,18,-1
273 1092 m 1,22,-1
 273 1228 l 1,23,-1
 409 1228 l 1,24,-1
 409 1092 l 1,25,-1
 273 1092 l 1,22,-1
136 1228 m 1,26,-1
 136 1365 l 1,27,-1
 273 1365 l 1,28,-1
 273 1228 l 1,29,-1
 136 1228 l 1,26,-1
EndSplineSet
EndChar

StartChar: eacute
Encoding: 233 233 168
Width: 819
GlyphClass: 1
Flags: W
LayerCount: 2
Fore
SplineSet
136 0 m 1,0,-1
 136 136 l 1,1,-1
 546 136 l 1,2,-1
 546 0 l 1,3,-1
 136 0 l 1,0,-1
546 136 m 1,4,-1
 546 273 l 1,5,-1
 682 273 l 1,6,-1
 682 136 l 1,7,-1
 546 136 l 1,4,-1
0 136 m 1,8,-1
 0 819 l 1,9,-1
 136 819 l 1,10,-1
 136 546 l 1,11,-1
 546 546 l 1,12,-1
 546 819 l 1,13,-1
 682 819 l 1,14,-1
 682 409 l 1,15,-1
 136 409 l 1,16,-1
 136 136 l 1,17,-1
 0 136 l 1,8,-1
136 819 m 1,18,-1
 136 955 l 1,19,-1
 546 955 l 1,20,-1
 546 819 l 1,21,-1
 136 819 l 1,18,-1
273 1092 m 1,22,-1
 273 1228 l 1,23,-1
 409 1228 l 1,24,-1
 409 1092 l 1,25,-1
 273 1092 l 1,22,-1
409 1228 m 1,26,-1
 409 1365 l 1,27,-1
 546 1365 l 1,28,-1
 546 1228 l 1,29,-1
 409 1228 l 1,26,-1
EndSplineSet
EndChar

StartChar: ecircumflex
Encoding: 234 234 169
Width: 819
GlyphClass: 1
Flags: W
LayerCount: 2
Fore
SplineSet
136 0 m 1,0,-1
 136 136 l 1,1,-1
 546 136 l 1,2,-1
 546 0 l 1,3,-1
 136 0 l 1,0,-1
546 136 m 1,4,-1
 546 273 l 1,5,-1
 682 273 l 1,6,-1
 682 136 l 1,7,-1
 546 136 l 1,4,-1
0 136 m 1,8,-1
 0 819 l 1,9,-1
 136 819 l 1,10,-1
 136 546 l 1,11,-1
 546 546 l 1,12,-1
 546 819 l 1,13,-1
 682 819 l 1,14,-1
 682 409 l 1,15,-1
 136 409 l 1,16,-1
 136 136 l 1,17,-1
 0 136 l 1,8,-1
136 819 m 1,18,-1
 136 955 l 1,19,-1
 546 955 l 1,20,-1
 546 819 l 1,21,-1
 136 819 l 1,18,-1
136 1092 m 1,22,-1
 136 1228 l 1,23,-1
 273 1228 l 1,24,-1
 273 1092 l 1,25,-1
 136 1092 l 1,22,-1
409 1092 m 1,26,-1
 409 1228 l 1,27,-1
 546 1228 l 1,28,-1
 546 1092 l 1,29,-1
 409 1092 l 1,26,-1
273 1228 m 1,30,-1
 273 1365 l 1,31,-1
 409 1365 l 1,32,-1
 409 1228 l 1,33,-1
 273 1228 l 1,30,-1
EndSplineSet
EndChar

StartChar: edieresis
Encoding: 235 235 170
Width: 819
GlyphClass: 1
Flags: W
LayerCount: 2
Fore
SplineSet
136 0 m 1,0,-1
 136 136 l 1,1,-1
 546 136 l 1,2,-1
 546 0 l 1,3,-1
 136 0 l 1,0,-1
546 136 m 1,4,-1
 546 273 l 1,5,-1
 682 273 l 1,6,-1
 682 136 l 1,7,-1
 546 136 l 1,4,-1
0 136 m 1,8,-1
 0 819 l 1,9,-1
 136 819 l 1,10,-1
 136 546 l 1,11,-1
 546 546 l 1,12,-1
 546 819 l 1,13,-1
 682 819 l 1,14,-1
 682 409 l 1,15,-1
 136 409 l 1,16,-1
 136 136 l 1,17,-1
 0 136 l 1,8,-1
136 819 m 1,18,-1
 136 955 l 1,19,-1
 546 955 l 1,20,-1
 546 819 l 1,21,-1
 136 819 l 1,18,-1
136 1092 m 1,22,-1
 136 1228 l 1,23,-1
 273 1228 l 1,24,-1
 273 1092 l 1,25,-1
 136 1092 l 1,22,-1
409 1092 m 1,26,-1
 409 1228 l 1,27,-1
 546 1228 l 1,28,-1
 546 1092 l 1,29,-1
 409 1092 l 1,26,-1
EndSplineSet
EndChar

StartChar: igrave
Encoding: 236 236 171
Width: 273
GlyphClass: 1
Flags: W
LayerCount: 2
Fore
SplineSet
0 0 m 1,0,-1
 0 955 l 1,1,-1
 136 955 l 1,2,-1
 136 0 l 1,3,-1
 0 0 l 1,0,-1
0 1092 m 1,4,-1
 0 1228 l 1,5,-1
 136 1228 l 1,6,-1
 136 1092 l 1,7,-1
 0 1092 l 1,4,-1
-136 1228 m 1,8,-1
 -136 1365 l 1,9,-1
 0 1365 l 1,10,-1
 0 1228 l 1,11,-1
 -136 1228 l 1,8,-1
EndSplineSet
EndChar

StartChar: iacute
Encoding: 237 237 172
Width: 273
GlyphClass: 1
Flags: W
LayerCount: 2
Fore
SplineSet
0 0 m 1,0,-1
 0 955 l 1,1,-1
 136 955 l 1,2,-1
 136 0 l 1,3,-1
 0 0 l 1,0,-1
0 1092 m 1,4,-1
 0 1228 l 1,5,-1
 136 1228 l 1,6,-1
 136 1092 l 1,7,-1
 0 1092 l 1,4,-1
136 1228 m 1,8,-1
 136 1365 l 1,9,-1
 273 1365 l 1,10,-1
 273 1228 l 1,11,-1
 136 1228 l 1,8,-1
EndSplineSet
EndChar

StartChar: icircumflex
Encoding: 238 238 173
Width: 273
GlyphClass: 1
Flags: W
LayerCount: 2
Fore
SplineSet
0 0 m 1,0,-1
 0 955 l 1,1,-1
 136 955 l 1,2,-1
 136 0 l 1,3,-1
 0 0 l 1,0,-1
-136 1092 m 1,4,-1
 -136 1228 l 1,5,-1
 0 1228 l 1,6,-1
 0 1092 l 1,7,-1
 -136 1092 l 1,4,-1
136 1092 m 1,8,-1
 136 1228 l 1,9,-1
 273 1228 l 1,10,-1
 273 1092 l 1,11,-1
 136 1092 l 1,8,-1
0 1228 m 1,12,-1
 0 1365 l 1,13,-1
 136 1365 l 1,14,-1
 136 1228 l 1,15,-1
 0 1228 l 1,12,-1
EndSplineSet
EndChar

StartChar: idieresis
Encoding: 239 239 174
Width: 273
GlyphClass: 1
Flags: W
LayerCount: 2
Fore
SplineSet
0 0 m 1,0,-1
 0 955 l 1,1,-1
 136 955 l 1,2,-1
 136 0 l 1,3,-1
 0 0 l 1,0,-1
-136 1092 m 1,4,-1
 -136 1228 l 1,5,-1
 0 1228 l 1,6,-1
 0 1092 l 1,7,-1
 -136 1092 l 1,4,-1
136 1092 m 1,8,-1
 136 1228 l 1,9,-1
 273 1228 l 1,10,-1
 273 1092 l 1,11,-1
 136 1092 l 1,8,-1
EndSplineSet
EndChar

StartChar: eth
Encoding: 240 240 175
Width: 819
GlyphClass: 1
Flags: W
LayerCount: 2
Fore
SplineSet
136 0 m 1,0,-1
 136 136 l 1,1,-1
 546 136 l 1,2,-1
 546 0 l 1,3,-1
 136 0 l 1,0,-1
0 136 m 1,4,-1
 0 682 l 1,5,-1
 136 682 l 1,6,-1
 136 136 l 1,7,-1
 0 136 l 1,4,-1
546 136 m 1,8,-1
 546 682 l 1,9,-1
 136 682 l 1,10,-1
 136 819 l 1,11,-1
 409 819 l 1,12,-1
 409 955 l 1,13,-1
 136 955 l 1,14,-1
 136 1092 l 1,15,-1
 273 1092 l 1,16,-1
 273 1228 l 1,17,-1
 409 1228 l 1,18,-1
 409 1092 l 1,19,-1
 682 1092 l 1,20,-1
 682 955 l 1,21,-1
 546 955 l 1,22,-1
 546 819 l 1,23,-1
 682 819 l 1,24,-1
 682 136 l 1,25,-1
 546 136 l 1,8,-1
136 1228 m 1,26,-1
 136 1365 l 1,27,-1
 273 1365 l 1,28,-1
 273 1228 l 1,29,-1
 136 1228 l 1,26,-1
EndSplineSet
EndChar

StartChar: ntilde
Encoding: 241 241 176
Width: 819
GlyphClass: 1
Flags: W
LayerCount: 2
Fore
SplineSet
546 0 m 1,0,-1
 546 819 l 1,1,-1
 682 819 l 1,2,-1
 682 0 l 1,3,-1
 546 0 l 1,0,-1
0 0 m 1,4,-1
 0 955 l 1,5,-1
 136 955 l 1,6,-1
 136 819 l 1,7,-1
 273 819 l 1,8,-1
 273 682 l 1,9,-1
 136 682 l 1,10,-1
 136 0 l 1,11,-1
 0 0 l 1,4,-1
273 819 m 1,12,-1
 273 955 l 1,13,-1
 546 955 l 1,14,-1
 546 819 l 1,15,-1
 273 819 l 1,12,-1
136 1092 m 1,16,-1
 136 1228 l 1,17,-1
 273 1228 l 1,18,-1
 273 1092 l 1,19,-1
 136 1092 l 1,16,-1
409 1092 m 1,20,-1
 409 1228 l 1,21,-1
 546 1228 l 1,22,-1
 546 1092 l 1,23,-1
 409 1092 l 1,20,-1
273 1228 m 1,24,-1
 273 1365 l 1,25,-1
 409 1365 l 1,26,-1
 409 1228 l 1,27,-1
 273 1228 l 1,24,-1
546 1228 m 1,28,-1
 546 1365 l 1,29,-1
 682 1365 l 1,30,-1
 682 1228 l 1,31,-1
 546 1228 l 1,28,-1
EndSplineSet
EndChar

StartChar: ograve
Encoding: 242 242 177
Width: 819
GlyphClass: 1
Flags: W
LayerCount: 2
Fore
SplineSet
136 0 m 1,0,-1
 136 136 l 1,1,-1
 546 136 l 1,2,-1
 546 0 l 1,3,-1
 136 0 l 1,0,-1
0 136 m 1,4,-1
 0 819 l 1,5,-1
 136 819 l 1,6,-1
 136 136 l 1,7,-1
 0 136 l 1,4,-1
546 136 m 1,8,-1
 546 819 l 1,9,-1
 682 819 l 1,10,-1
 682 136 l 1,11,-1
 546 136 l 1,8,-1
136 819 m 1,12,-1
 136 955 l 1,13,-1
 546 955 l 1,14,-1
 546 819 l 1,15,-1
 136 819 l 1,12,-1
273 1092 m 1,16,-1
 273 1228 l 1,17,-1
 409 1228 l 1,18,-1
 409 1092 l 1,19,-1
 273 1092 l 1,16,-1
136 1228 m 1,20,-1
 136 1365 l 1,21,-1
 273 1365 l 1,22,-1
 273 1228 l 1,23,-1
 136 1228 l 1,20,-1
EndSplineSet
EndChar

StartChar: oacute
Encoding: 243 243 178
Width: 819
GlyphClass: 1
Flags: W
LayerCount: 2
Fore
SplineSet
136 0 m 1,0,-1
 136 136 l 1,1,-1
 546 136 l 1,2,-1
 546 0 l 1,3,-1
 136 0 l 1,0,-1
0 136 m 1,4,-1
 0 819 l 1,5,-1
 136 819 l 1,6,-1
 136 136 l 1,7,-1
 0 136 l 1,4,-1
546 136 m 1,8,-1
 546 819 l 1,9,-1
 682 819 l 1,10,-1
 682 136 l 1,11,-1
 546 136 l 1,8,-1
136 819 m 1,12,-1
 136 955 l 1,13,-1
 546 955 l 1,14,-1
 546 819 l 1,15,-1
 136 819 l 1,12,-1
273 1092 m 1,16,-1
 273 1228 l 1,17,-1
 409 1228 l 1,18,-1
 409 1092 l 1,19,-1
 273 1092 l 1,16,-1
409 1228 m 1,20,-1
 409 1365 l 1,21,-1
 546 1365 l 1,22,-1
 546 1228 l 1,23,-1
 409 1228 l 1,20,-1
EndSplineSet
EndChar

StartChar: ocircumflex
Encoding: 244 244 179
Width: 819
GlyphClass: 1
Flags: W
LayerCount: 2
Fore
SplineSet
136 0 m 1,0,-1
 136 136 l 1,1,-1
 546 136 l 1,2,-1
 546 0 l 1,3,-1
 136 0 l 1,0,-1
0 136 m 1,4,-1
 0 819 l 1,5,-1
 136 819 l 1,6,-1
 136 136 l 1,7,-1
 0 136 l 1,4,-1
546 136 m 1,8,-1
 546 819 l 1,9,-1
 682 819 l 1,10,-1
 682 136 l 1,11,-1
 546 136 l 1,8,-1
136 819 m 1,12,-1
 136 955 l 1,13,-1
 546 955 l 1,14,-1
 546 819 l 1,15,-1
 136 819 l 1,12,-1
136 1092 m 1,16,-1
 136 1228 l 1,17,-1
 273 1228 l 1,18,-1
 273 1092 l 1,19,-1
 136 1092 l 1,16,-1
409 1092 m 1,20,-1
 409 1228 l 1,21,-1
 546 1228 l 1,22,-1
 546 1092 l 1,23,-1
 409 1092 l 1,20,-1
273 1228 m 1,24,-1
 273 1365 l 1,25,-1
 409 1365 l 1,26,-1
 409 1228 l 1,27,-1
 273 1228 l 1,24,-1
EndSplineSet
EndChar

StartChar: otilde
Encoding: 245 245 180
Width: 819
GlyphClass: 1
Flags: W
LayerCount: 2
Fore
SplineSet
136 0 m 1,0,-1
 136 136 l 1,1,-1
 546 136 l 1,2,-1
 546 0 l 1,3,-1
 136 0 l 1,0,-1
0 136 m 1,4,-1
 0 819 l 1,5,-1
 136 819 l 1,6,-1
 136 136 l 1,7,-1
 0 136 l 1,4,-1
546 136 m 1,8,-1
 546 819 l 1,9,-1
 682 819 l 1,10,-1
 682 136 l 1,11,-1
 546 136 l 1,8,-1
136 819 m 1,12,-1
 136 955 l 1,13,-1
 546 955 l 1,14,-1
 546 819 l 1,15,-1
 136 819 l 1,12,-1
136 1092 m 1,16,-1
 136 1228 l 1,17,-1
 273 1228 l 1,18,-1
 273 1092 l 1,19,-1
 136 1092 l 1,16,-1
409 1092 m 1,20,-1
 409 1228 l 1,21,-1
 546 1228 l 1,22,-1
 546 1092 l 1,23,-1
 409 1092 l 1,20,-1
273 1228 m 1,24,-1
 273 1365 l 1,25,-1
 409 1365 l 1,26,-1
 409 1228 l 1,27,-1
 273 1228 l 1,24,-1
546 1228 m 1,28,-1
 546 1365 l 1,29,-1
 682 1365 l 1,30,-1
 682 1228 l 1,31,-1
 546 1228 l 1,28,-1
EndSplineSet
EndChar

StartChar: odieresis
Encoding: 246 246 181
Width: 819
GlyphClass: 1
Flags: W
LayerCount: 2
Fore
SplineSet
136 0 m 1,0,-1
 136 136 l 1,1,-1
 546 136 l 1,2,-1
 546 0 l 1,3,-1
 136 0 l 1,0,-1
0 136 m 1,4,-1
 0 819 l 1,5,-1
 136 819 l 1,6,-1
 136 136 l 1,7,-1
 0 136 l 1,4,-1
546 136 m 1,8,-1
 546 819 l 1,9,-1
 682 819 l 1,10,-1
 682 136 l 1,11,-1
 546 136 l 1,8,-1
136 819 m 1,12,-1
 136 955 l 1,13,-1
 546 955 l 1,14,-1
 546 819 l 1,15,-1
 136 819 l 1,12,-1
136 1092 m 1,16,-1
 136 1228 l 1,17,-1
 273 1228 l 1,18,-1
 273 1092 l 1,19,-1
 136 1092 l 1,16,-1
409 1092 m 1,20,-1
 409 1228 l 1,21,-1
 546 1228 l 1,22,-1
 546 1092 l 1,23,-1
 409 1092 l 1,20,-1
EndSplineSet
EndChar

StartChar: divide
Encoding: 247 247 182
Width: 819
GlyphClass: 1
Flags: W
LayerCount: 2
Fore
SplineSet
273 136 m 1,0,-1
 273 273 l 1,1,-1
 409 273 l 1,2,-1
 409 136 l 1,3,-1
 273 136 l 1,0,-1
0 409 m 1,4,-1
 0 546 l 1,5,-1
 682 546 l 1,6,-1
 682 409 l 1,7,-1
 0 409 l 1,4,-1
273 682 m 1,8,-1
 273 819 l 1,9,-1
 409 819 l 1,10,-1
 409 682 l 1,11,-1
 273 682 l 1,8,-1
EndSplineSet
EndChar

StartChar: oslash
Encoding: 248 248 183
Width: 819
GlyphClass: 1
Flags: W
LayerCount: 2
Fore
SplineSet
0 0 m 1,0,-1
 0 136 l 1,1,-1
 136 136 l 1,2,-1
 136 0 l 1,3,-1
 0 0 l 1,0,-1
273 0 m 1,4,-1
 273 136 l 1,5,-1
 546 136 l 1,6,-1
 546 0 l 1,7,-1
 273 0 l 1,4,-1
136 136 m 1,8,-1
 136 273 l 1,9,-1
 273 273 l 1,10,-1
 273 136 l 1,11,-1
 136 136 l 1,8,-1
273 273 m 1,12,-1
 273 682 l 1,13,-1
 409 682 l 1,14,-1
 409 273 l 1,15,-1
 273 273 l 1,12,-1
546 136 m 1,16,-1
 546 682 l 1,17,-1
 682 682 l 1,18,-1
 682 136 l 1,19,-1
 546 136 l 1,16,-1
0 273 m 1,20,-1
 0 819 l 1,21,-1
 136 819 l 1,22,-1
 136 273 l 1,23,-1
 0 273 l 1,20,-1
409 682 m 1,24,-1
 409 819 l 1,25,-1
 546 819 l 1,26,-1
 546 682 l 1,27,-1
 409 682 l 1,24,-1
136 819 m 1,28,-1
 136 955 l 1,29,-1
 409 955 l 1,30,-1
 409 819 l 1,31,-1
 136 819 l 1,28,-1
546 819 m 1,32,-1
 546 955 l 1,33,-1
 682 955 l 1,34,-1
 682 819 l 1,35,-1
 546 819 l 1,32,-1
EndSplineSet
EndChar

StartChar: ugrave
Encoding: 249 249 184
Width: 819
GlyphClass: 1
Flags: W
LayerCount: 2
Fore
SplineSet
136 0 m 1,0,-1
 136 136 l 1,1,-1
 409 136 l 1,2,-1
 409 0 l 1,3,-1
 136 0 l 1,0,-1
0 136 m 1,4,-1
 0 955 l 1,5,-1
 136 955 l 1,6,-1
 136 136 l 1,7,-1
 0 136 l 1,4,-1
546 0 m 1,8,-1
 546 136 l 1,9,-1
 409 136 l 1,10,-1
 409 273 l 1,11,-1
 546 273 l 1,12,-1
 546 955 l 1,13,-1
 682 955 l 1,14,-1
 682 0 l 1,15,-1
 546 0 l 1,8,-1
273 1092 m 1,16,-1
 273 1228 l 1,17,-1
 409 1228 l 1,18,-1
 409 1092 l 1,19,-1
 273 1092 l 1,16,-1
136 1228 m 1,20,-1
 136 1365 l 1,21,-1
 273 1365 l 1,22,-1
 273 1228 l 1,23,-1
 136 1228 l 1,20,-1
EndSplineSet
EndChar

StartChar: uacute
Encoding: 250 250 185
Width: 819
GlyphClass: 1
Flags: W
LayerCount: 2
Fore
SplineSet
136 0 m 1,0,-1
 136 136 l 1,1,-1
 409 136 l 1,2,-1
 409 0 l 1,3,-1
 136 0 l 1,0,-1
0 136 m 1,4,-1
 0 955 l 1,5,-1
 136 955 l 1,6,-1
 136 136 l 1,7,-1
 0 136 l 1,4,-1
546 0 m 1,8,-1
 546 136 l 1,9,-1
 409 136 l 1,10,-1
 409 273 l 1,11,-1
 546 273 l 1,12,-1
 546 955 l 1,13,-1
 682 955 l 1,14,-1
 682 0 l 1,15,-1
 546 0 l 1,8,-1
273 1092 m 1,16,-1
 273 1228 l 1,17,-1
 409 1228 l 1,18,-1
 409 1092 l 1,19,-1
 273 1092 l 1,16,-1
409 1228 m 1,20,-1
 409 1365 l 1,21,-1
 546 1365 l 1,22,-1
 546 1228 l 1,23,-1
 409 1228 l 1,20,-1
EndSplineSet
EndChar

StartChar: ucircumflex
Encoding: 251 251 186
Width: 819
GlyphClass: 1
Flags: W
LayerCount: 2
Fore
SplineSet
136 0 m 1,0,-1
 136 136 l 1,1,-1
 409 136 l 1,2,-1
 409 0 l 1,3,-1
 136 0 l 1,0,-1
0 136 m 1,4,-1
 0 955 l 1,5,-1
 136 955 l 1,6,-1
 136 136 l 1,7,-1
 0 136 l 1,4,-1
546 0 m 1,8,-1
 546 136 l 1,9,-1
 409 136 l 1,10,-1
 409 273 l 1,11,-1
 546 273 l 1,12,-1
 546 955 l 1,13,-1
 682 955 l 1,14,-1
 682 0 l 1,15,-1
 546 0 l 1,8,-1
136 1092 m 1,16,-1
 136 1228 l 1,17,-1
 273 1228 l 1,18,-1
 273 1092 l 1,19,-1
 136 1092 l 1,16,-1
409 1092 m 1,20,-1
 409 1228 l 1,21,-1
 546 1228 l 1,22,-1
 546 1092 l 1,23,-1
 409 1092 l 1,20,-1
273 1228 m 1,24,-1
 273 1365 l 1,25,-1
 409 1365 l 1,26,-1
 409 1228 l 1,27,-1
 273 1228 l 1,24,-1
EndSplineSet
EndChar

StartChar: udieresis
Encoding: 252 252 187
Width: 819
GlyphClass: 1
Flags: W
LayerCount: 2
Fore
SplineSet
136 0 m 1,0,-1
 136 136 l 1,1,-1
 409 136 l 1,2,-1
 409 0 l 1,3,-1
 136 0 l 1,0,-1
0 136 m 1,4,-1
 0 955 l 1,5,-1
 136 955 l 1,6,-1
 136 136 l 1,7,-1
 0 136 l 1,4,-1
546 0 m 1,8,-1
 546 136 l 1,9,-1
 409 136 l 1,10,-1
 409 273 l 1,11,-1
 546 273 l 1,12,-1
 546 955 l 1,13,-1
 682 955 l 1,14,-1
 682 0 l 1,15,-1
 546 0 l 1,8,-1
136 1092 m 1,16,-1
 136 1228 l 1,17,-1
 273 1228 l 1,18,-1
 273 1092 l 1,19,-1
 136 1092 l 1,16,-1
409 1092 m 1,20,-1
 409 1228 l 1,21,-1
 546 1228 l 1,22,-1
 546 1092 l 1,23,-1
 409 1092 l 1,20,-1
EndSplineSet
EndChar

StartChar: yacute
Encoding: 253 253 188
Width: 819
GlyphClass: 1
Flags: W
LayerCount: 2
Fore
SplineSet
0 -273 m 1,0,-1
 0 -136 l 1,1,-1
 273 -136 l 1,2,-1
 273 -273 l 1,3,-1
 0 -273 l 1,0,-1
273 -136 m 1,4,-1
 273 136 l 1,5,-1
 409 136 l 1,6,-1
 409 -136 l 1,7,-1
 273 -136 l 1,4,-1
136 136 m 1,8,-1
 136 546 l 1,9,-1
 273 546 l 1,10,-1
 273 136 l 1,11,-1
 136 136 l 1,8,-1
409 136 m 1,12,-1
 409 546 l 1,13,-1
 546 546 l 1,14,-1
 546 136 l 1,15,-1
 409 136 l 1,12,-1
0 546 m 1,16,-1
 0 955 l 1,17,-1
 136 955 l 1,18,-1
 136 546 l 1,19,-1
 0 546 l 1,16,-1
546 546 m 1,20,-1
 546 955 l 1,21,-1
 682 955 l 1,22,-1
 682 546 l 1,23,-1
 546 546 l 1,20,-1
273 1092 m 1,24,-1
 273 1228 l 1,25,-1
 409 1228 l 1,26,-1
 409 1092 l 1,27,-1
 273 1092 l 1,24,-1
409 1228 m 1,28,-1
 409 1365 l 1,29,-1
 546 1365 l 1,30,-1
 546 1228 l 1,31,-1
 409 1228 l 1,28,-1
EndSplineSet
EndChar

StartChar: thorn
Encoding: 254 254 189
Width: 819
GlyphClass: 1
Flags: W
LayerCount: 2
Fore
SplineSet
273 0 m 1,0,-1
 273 136 l 1,1,-1
 546 136 l 1,2,-1
 546 0 l 1,3,-1
 273 0 l 1,0,-1
546 136 m 1,4,-1
 546 819 l 1,5,-1
 682 819 l 1,6,-1
 682 136 l 1,7,-1
 546 136 l 1,4,-1
273 819 m 1,8,-1
 273 955 l 1,9,-1
 546 955 l 1,10,-1
 546 819 l 1,11,-1
 273 819 l 1,8,-1
0 -273 m 1,12,-1
 0 1228 l 1,13,-1
 136 1228 l 1,14,-1
 136 819 l 1,15,-1
 273 819 l 1,16,-1
 273 682 l 1,17,-1
 136 682 l 1,18,-1
 136 273 l 1,19,-1
 273 273 l 1,20,-1
 273 136 l 1,21,-1
 136 136 l 1,22,-1
 136 -273 l 1,23,-1
 0 -273 l 1,12,-1
EndSplineSet
EndChar

StartChar: ydieresis
Encoding: 255 255 190
Width: 819
GlyphClass: 1
Flags: W
LayerCount: 2
Fore
SplineSet
0 -273 m 1,0,-1
 0 -136 l 1,1,-1
 273 -136 l 1,2,-1
 273 -273 l 1,3,-1
 0 -273 l 1,0,-1
273 -136 m 1,4,-1
 273 136 l 1,5,-1
 409 136 l 1,6,-1
 409 -136 l 1,7,-1
 273 -136 l 1,4,-1
136 136 m 1,8,-1
 136 546 l 1,9,-1
 273 546 l 1,10,-1
 273 136 l 1,11,-1
 136 136 l 1,8,-1
409 136 m 1,12,-1
 409 546 l 1,13,-1
 546 546 l 1,14,-1
 546 136 l 1,15,-1
 409 136 l 1,12,-1
0 546 m 1,16,-1
 0 955 l 1,17,-1
 136 955 l 1,18,-1
 136 546 l 1,19,-1
 0 546 l 1,16,-1
546 546 m 1,20,-1
 546 955 l 1,21,-1
 682 955 l 1,22,-1
 682 546 l 1,23,-1
 546 546 l 1,20,-1
136 1092 m 1,24,-1
 136 1228 l 1,25,-1
 273 1228 l 1,26,-1
 273 1092 l 1,27,-1
 136 1092 l 1,24,-1
409 1092 m 1,28,-1
 409 1228 l 1,29,-1
 546 1228 l 1,30,-1
 546 1092 l 1,31,-1
 409 1092 l 1,28,-1
EndSplineSet
EndChar

StartChar: Abreve
Encoding: 258 258 191
Width: 1092
GlyphClass: 1
Flags: W
LayerCount: 2
Fore
SplineSet
0 0 m 1,0,-1
 0 409 l 1,1,-1
 136 409 l 1,2,-1
 136 0 l 1,3,-1
 0 0 l 1,0,-1
819 0 m 1,4,-1
 819 409 l 1,5,-1
 955 409 l 1,6,-1
 955 0 l 1,7,-1
 819 0 l 1,4,-1
136 409 m 1,8,-1
 136 819 l 1,9,-1
 273 819 l 1,10,-1
 273 546 l 1,11,-1
 682 546 l 1,12,-1
 682 819 l 1,13,-1
 819 819 l 1,14,-1
 819 409 l 1,15,-1
 136 409 l 1,8,-1
273 819 m 1,16,-1
 273 1092 l 1,17,-1
 409 1092 l 1,18,-1
 409 819 l 1,19,-1
 273 819 l 1,16,-1
546 819 m 1,20,-1
 546 1092 l 1,21,-1
 682 1092 l 1,22,-1
 682 819 l 1,23,-1
 546 819 l 1,20,-1
409 1092 m 1,24,-1
 409 1228 l 1,25,-1
 546 1228 l 1,26,-1
 546 1092 l 1,27,-1
 409 1092 l 1,24,-1
273 1365 m 1,28,-1
 273 1638 l 1,29,-1
 409 1638 l 1,30,-1
 409 1501 l 1,31,-1
 546 1501 l 1,32,-1
 546 1638 l 1,33,-1
 682 1638 l 1,34,-1
 682 1365 l 1,35,-1
 273 1365 l 1,28,-1
EndSplineSet
EndChar

StartChar: abreve
Encoding: 259 259 192
Width: 887
GlyphClass: 1
Flags: W
LayerCount: 2
Fore
SplineSet
136 0 m 1,0,-1
 136 136 l 1,1,-1
 546 136 l 1,2,-1
 546 0 l 1,3,-1
 136 0 l 1,0,-1
682 0 m 1,4,-1
 682 136 l 1,5,-1
 819 136 l 1,6,-1
 819 0 l 1,7,-1
 682 0 l 1,4,-1
0 136 m 1,8,-1
 0 273 l 1,9,-1
 136 273 l 1,10,-1
 136 136 l 1,11,-1
 0 136 l 1,8,-1
136 273 m 1,12,-1
 136 409 l 1,13,-1
 273 409 l 1,14,-1
 273 273 l 1,15,-1
 136 273 l 1,12,-1
0 546 m 1,16,-1
 0 819 l 1,17,-1
 136 819 l 1,18,-1
 136 546 l 1,19,-1
 0 546 l 1,16,-1
546 136 m 1,20,-1
 546 409 l 1,21,-1
 273 409 l 1,22,-1
 273 546 l 1,23,-1
 546 546 l 1,24,-1
 546 819 l 1,25,-1
 682 819 l 1,26,-1
 682 136 l 1,27,-1
 546 136 l 1,20,-1
136 819 m 1,28,-1
 136 955 l 1,29,-1
 546 955 l 1,30,-1
 546 819 l 1,31,-1
 136 819 l 1,28,-1
136 1092 m 1,32,-1
 136 1365 l 1,33,-1
 273 1365 l 1,34,-1
 273 1228 l 1,35,-1
 409 1228 l 1,36,-1
 409 1365 l 1,37,-1
 546 1365 l 1,38,-1
 546 1092 l 1,39,-1
 136 1092 l 1,32,-1
EndSplineSet
EndChar

StartChar: Dcroat
Encoding: 272 272 193
Width: 1092
GlyphClass: 1
Flags: W
LayerCount: 2
Fore
SplineSet
682 136 m 1,0,-1
 682 273 l 1,1,-1
 819 273 l 1,2,-1
 819 136 l 1,3,-1
 682 136 l 1,0,-1
819 273 m 1,4,-1
 819 1092 l 1,5,-1
 955 1092 l 1,6,-1
 955 273 l 1,7,-1
 819 273 l 1,4,-1
136 0 m 1,8,-1
 136 546 l 1,9,-1
 0 546 l 1,10,-1
 0 682 l 1,11,-1
 136 682 l 1,12,-1
 136 1228 l 1,13,-1
 819 1228 l 1,14,-1
 819 1092 l 1,15,-1
 273 1092 l 1,16,-1
 273 682 l 1,17,-1
 546 682 l 1,18,-1
 546 546 l 1,19,-1
 273 546 l 1,20,-1
 273 136 l 1,21,-1
 682 136 l 1,22,-1
 682 0 l 1,23,-1
 136 0 l 1,8,-1
EndSplineSet
EndChar

StartChar: dcroat
Encoding: 273 273 194
Width: 887
GlyphClass: 1
Flags: W
LayerCount: 2
Fore
SplineSet
136 0 m 1,0,-1
 136 136 l 1,1,-1
 409 136 l 1,2,-1
 409 0 l 1,3,-1
 136 0 l 1,0,-1
0 136 m 1,4,-1
 0 682 l 1,5,-1
 136 682 l 1,6,-1
 136 136 l 1,7,-1
 0 136 l 1,4,-1
546 0 m 1,8,-1
 546 136 l 1,9,-1
 409 136 l 1,10,-1
 409 273 l 1,11,-1
 546 273 l 1,12,-1
 546 682 l 1,13,-1
 136 682 l 1,14,-1
 136 819 l 1,15,-1
 546 819 l 1,16,-1
 546 955 l 1,17,-1
 273 955 l 1,18,-1
 273 1092 l 1,19,-1
 546 1092 l 1,20,-1
 546 1228 l 1,21,-1
 682 1228 l 1,22,-1
 682 1092 l 1,23,-1
 819 1092 l 1,24,-1
 819 955 l 1,25,-1
 682 955 l 1,26,-1
 682 0 l 1,27,-1
 546 0 l 1,8,-1
EndSplineSet
EndChar

StartChar: Itilde
Encoding: 296 296 195
Width: 819
GlyphClass: 1
Flags: W
LayerCount: 2
Fore
SplineSet
0 0 m 1,0,-1
 0 136 l 1,1,-1
 273 136 l 1,2,-1
 273 1092 l 1,3,-1
 0 1092 l 1,4,-1
 0 1228 l 1,5,-1
 682 1228 l 1,6,-1
 682 1092 l 1,7,-1
 409 1092 l 1,8,-1
 409 136 l 1,9,-1
 682 136 l 1,10,-1
 682 0 l 1,11,-1
 0 0 l 1,0,-1
136 1365 m 1,12,-1
 136 1501 l 1,13,-1
 273 1501 l 1,14,-1
 273 1365 l 1,15,-1
 136 1365 l 1,12,-1
409 1365 m 1,16,-1
 409 1501 l 1,17,-1
 546 1501 l 1,18,-1
 546 1365 l 1,19,-1
 409 1365 l 1,16,-1
273 1501 m 1,20,-1
 273 1638 l 1,21,-1
 409 1638 l 1,22,-1
 409 1501 l 1,23,-1
 273 1501 l 1,20,-1
546 1501 m 1,24,-1
 546 1638 l 1,25,-1
 682 1638 l 1,26,-1
 682 1501 l 1,27,-1
 546 1501 l 1,24,-1
EndSplineSet
EndChar

StartChar: itilde
Encoding: 297 297 196
Width: 273
GlyphClass: 1
Flags: W
LayerCount: 2
Fore
SplineSet
0 0 m 1,0,-1
 0 955 l 1,1,-1
 136 955 l 1,2,-1
 136 0 l 1,3,-1
 0 0 l 1,0,-1
-136 1092 m 1,4,-1
 -136 1228 l 1,5,-1
 0 1228 l 1,6,-1
 0 1365 l 1,7,-1
 273 1365 l 1,8,-1
 273 1228 l 1,9,-1
 136 1228 l 1,10,-1
 136 1092 l 1,11,-1
 -136 1092 l 1,4,-1
EndSplineSet
EndChar

StartChar: Idotaccent
Encoding: 304 304 197
Width: 819
GlyphClass: 1
Flags: W
LayerCount: 2
Fore
SplineSet
0 0 m 1,0,-1
 0 136 l 1,1,-1
 273 136 l 1,2,-1
 273 819 l 1,3,-1
 0 819 l 1,4,-1
 0 955 l 1,5,-1
 682 955 l 1,6,-1
 682 819 l 1,7,-1
 409 819 l 1,8,-1
 409 136 l 1,9,-1
 682 136 l 1,10,-1
 682 0 l 1,11,-1
 0 0 l 1,0,-1
273 1092 m 1,12,-1
 273 1228 l 1,13,-1
 409 1228 l 1,14,-1
 409 1092 l 1,15,-1
 273 1092 l 1,12,-1
EndSplineSet
EndChar

StartChar: dotlessi
Encoding: 305 305 198
Width: 273
GlyphClass: 1
Flags: W
LayerCount: 2
Fore
SplineSet
0 0 m 1,0,-1
 0 955 l 1,1,-1
 136 955 l 1,2,-1
 136 0 l 1,3,-1
 0 0 l 1,0,-1
EndSplineSet
EndChar

StartChar: OE
Encoding: 338 338 199
Width: 1092
GlyphClass: 1
Flags: W
LayerCount: 2
Fore
SplineSet
0 136 m 1,0,-1
 0 1092 l 1,1,-1
 136 1092 l 1,2,-1
 136 136 l 1,3,-1
 0 136 l 1,0,-1
136 0 m 1,4,-1
 136 136 l 1,5,-1
 409 136 l 1,6,-1
 409 1092 l 1,7,-1
 136 1092 l 1,8,-1
 136 1228 l 1,9,-1
 955 1228 l 1,10,-1
 955 1092 l 1,11,-1
 546 1092 l 1,12,-1
 546 682 l 1,13,-1
 819 682 l 1,14,-1
 819 546 l 1,15,-1
 546 546 l 1,16,-1
 546 136 l 1,17,-1
 955 136 l 1,18,-1
 955 0 l 1,19,-1
 136 0 l 1,4,-1
EndSplineSet
EndChar

StartChar: oe
Encoding: 339 339 200
Width: 1092
GlyphClass: 1
Flags: W
LayerCount: 2
Fore
SplineSet
136 0 m 1,0,-1
 136 136 l 1,1,-1
 409 136 l 1,2,-1
 409 0 l 1,3,-1
 136 0 l 1,0,-1
546 0 m 1,4,-1
 546 136 l 1,5,-1
 819 136 l 1,6,-1
 819 0 l 1,7,-1
 546 0 l 1,4,-1
819 136 m 1,8,-1
 819 273 l 1,9,-1
 955 273 l 1,10,-1
 955 136 l 1,11,-1
 819 136 l 1,8,-1
0 136 m 1,12,-1
 0 819 l 1,13,-1
 136 819 l 1,14,-1
 136 136 l 1,15,-1
 0 136 l 1,12,-1
409 136 m 1,16,-1
 409 819 l 1,17,-1
 546 819 l 1,18,-1
 546 546 l 1,19,-1
 819 546 l 1,20,-1
 819 819 l 1,21,-1
 955 819 l 1,22,-1
 955 409 l 1,23,-1
 546 409 l 1,24,-1
 546 136 l 1,25,-1
 409 136 l 1,16,-1
136 819 m 1,26,-1
 136 955 l 1,27,-1
 409 955 l 1,28,-1
 409 819 l 1,29,-1
 136 819 l 1,26,-1
546 819 m 1,30,-1
 546 955 l 1,31,-1
 819 955 l 1,32,-1
 819 819 l 1,33,-1
 546 819 l 1,30,-1
EndSplineSet
EndChar

StartChar: Utilde
Encoding: 360 360 201
Width: 955
GlyphClass: 1
Flags: W
LayerCount: 2
Fore
SplineSet
136 0 m 1,0,-1
 136 136 l 1,1,-1
 682 136 l 1,2,-1
 682 0 l 1,3,-1
 136 0 l 1,0,-1
0 136 m 1,4,-1
 0 1228 l 1,5,-1
 136 1228 l 1,6,-1
 136 136 l 1,7,-1
 0 136 l 1,4,-1
682 136 m 1,8,-1
 682 1228 l 1,9,-1
 819 1228 l 1,10,-1
 819 136 l 1,11,-1
 682 136 l 1,8,-1
136 1365 m 1,12,-1
 136 1501 l 1,13,-1
 273 1501 l 1,14,-1
 273 1365 l 1,15,-1
 136 1365 l 1,12,-1
409 1365 m 1,16,-1
 409 1501 l 1,17,-1
 546 1501 l 1,18,-1
 546 1365 l 1,19,-1
 409 1365 l 1,16,-1
273 1501 m 1,20,-1
 273 1638 l 1,21,-1
 409 1638 l 1,22,-1
 409 1501 l 1,23,-1
 273 1501 l 1,20,-1
546 1501 m 1,24,-1
 546 1638 l 1,25,-1
 682 1638 l 1,26,-1
 682 1501 l 1,27,-1
 546 1501 l 1,24,-1
EndSplineSet
EndChar

StartChar: utilde
Encoding: 361 361 202
Width: 819
GlyphClass: 1
Flags: W
LayerCount: 2
Fore
SplineSet
136 0 m 1,0,-1
 136 136 l 1,1,-1
 409 136 l 1,2,-1
 409 0 l 1,3,-1
 136 0 l 1,0,-1
0 136 m 1,4,-1
 0 955 l 1,5,-1
 136 955 l 1,6,-1
 136 136 l 1,7,-1
 0 136 l 1,4,-1
546 0 m 1,8,-1
 546 136 l 1,9,-1
 409 136 l 1,10,-1
 409 273 l 1,11,-1
 546 273 l 1,12,-1
 546 955 l 1,13,-1
 682 955 l 1,14,-1
 682 0 l 1,15,-1
 546 0 l 1,8,-1
136 1092 m 1,16,-1
 136 1228 l 1,17,-1
 273 1228 l 1,18,-1
 273 1092 l 1,19,-1
 136 1092 l 1,16,-1
409 1092 m 1,20,-1
 409 1228 l 1,21,-1
 546 1228 l 1,22,-1
 546 1092 l 1,23,-1
 409 1092 l 1,20,-1
273 1228 m 1,24,-1
 273 1365 l 1,25,-1
 409 1365 l 1,26,-1
 409 1228 l 1,27,-1
 273 1228 l 1,24,-1
546 1228 m 1,28,-1
 546 1365 l 1,29,-1
 682 1365 l 1,30,-1
 682 1228 l 1,31,-1
 546 1228 l 1,28,-1
EndSplineSet
EndChar

StartChar: Ydieresis
Encoding: 376 376 203
Width: 819
GlyphClass: 1
Flags: W
LayerCount: 2
Fore
SplineSet
273 0 m 1,0,-1
 273 682 l 1,1,-1
 409 682 l 1,2,-1
 409 0 l 1,3,-1
 273 0 l 1,0,-1
136 682 m 1,4,-1
 136 819 l 1,5,-1
 273 819 l 1,6,-1
 273 682 l 1,7,-1
 136 682 l 1,4,-1
409 682 m 1,8,-1
 409 819 l 1,9,-1
 546 819 l 1,10,-1
 546 682 l 1,11,-1
 409 682 l 1,8,-1
0 819 m 1,12,-1
 0 1228 l 1,13,-1
 136 1228 l 1,14,-1
 136 819 l 1,15,-1
 0 819 l 1,12,-1
546 819 m 1,16,-1
 546 1228 l 1,17,-1
 682 1228 l 1,18,-1
 682 819 l 1,19,-1
 546 819 l 1,16,-1
136 1365 m 1,20,-1
 136 1501 l 1,21,-1
 273 1501 l 1,22,-1
 273 1365 l 1,23,-1
 136 1365 l 1,20,-1
409 1365 m 1,24,-1
 409 1501 l 1,25,-1
 546 1501 l 1,26,-1
 546 1365 l 1,27,-1
 409 1365 l 1,24,-1
EndSplineSet
EndChar

StartChar: longs
Encoding: 383 383 204
Width: 819
GlyphClass: 1
Flags: W
LayerCount: 2
Fore
SplineSet
136 0 m 1,0,-1
 136 682 l 1,1,-1
 0 682 l 1,2,-1
 0 819 l 1,3,-1
 136 819 l 1,4,-1
 136 1092 l 1,5,-1
 273 1092 l 1,6,-1
 273 0 l 1,7,-1
 136 0 l 1,0,-1
546 955 m 1,8,-1
 546 1092 l 1,9,-1
 682 1092 l 1,10,-1
 682 955 l 1,11,-1
 546 955 l 1,8,-1
273 1092 m 1,12,-1
 273 1228 l 1,13,-1
 546 1228 l 1,14,-1
 546 1092 l 1,15,-1
 273 1092 l 1,12,-1
EndSplineSet
EndChar

StartChar: Ohorn
Encoding: 416 416 205
Width: 1024
GlyphClass: 1
Flags: W
LayerCount: 2
Fore
SplineSet
136 0 m 1,0,-1
 136 136 l 1,1,-1
 682 136 l 1,2,-1
 682 0 l 1,3,-1
 136 0 l 1,0,-1
0 136 m 1,4,-1
 0 1092 l 1,5,-1
 136 1092 l 1,6,-1
 136 136 l 1,7,-1
 0 136 l 1,4,-1
682 136 m 1,8,-1
 682 1092 l 1,9,-1
 819 1092 l 1,10,-1
 819 136 l 1,11,-1
 682 136 l 1,8,-1
136 1092 m 1,12,-1
 136 1228 l 1,13,-1
 682 1228 l 1,14,-1
 682 1092 l 1,15,-1
 136 1092 l 1,12,-1
819 1092 m 1,16,-1
 819 1365 l 1,17,-1
 682 1365 l 1,18,-1
 682 1501 l 1,19,-1
 955 1501 l 1,20,-1
 955 1092 l 1,21,-1
 819 1092 l 1,16,-1
EndSplineSet
EndChar

StartChar: ohorn
Encoding: 417 417 206
Width: 887
GlyphClass: 1
Flags: W
LayerCount: 2
Fore
SplineSet
136 0 m 1,0,-1
 136 136 l 1,1,-1
 546 136 l 1,2,-1
 546 0 l 1,3,-1
 136 0 l 1,0,-1
0 136 m 1,4,-1
 0 819 l 1,5,-1
 136 819 l 1,6,-1
 136 136 l 1,7,-1
 0 136 l 1,4,-1
546 136 m 1,8,-1
 546 819 l 1,9,-1
 682 819 l 1,10,-1
 682 136 l 1,11,-1
 546 136 l 1,8,-1
136 819 m 1,12,-1
 136 955 l 1,13,-1
 546 955 l 1,14,-1
 546 819 l 1,15,-1
 136 819 l 1,12,-1
682 819 m 1,16,-1
 682 1092 l 1,17,-1
 546 1092 l 1,18,-1
 546 1228 l 1,19,-1
 819 1228 l 1,20,-1
 819 819 l 1,21,-1
 682 819 l 1,16,-1
EndSplineSet
EndChar

StartChar: Uhorn
Encoding: 431 431 207
Width: 1024
GlyphClass: 1
Flags: W
LayerCount: 2
Fore
SplineSet
136 0 m 1,0,-1
 136 136 l 1,1,-1
 682 136 l 1,2,-1
 682 0 l 1,3,-1
 136 0 l 1,0,-1
0 136 m 1,4,-1
 0 1228 l 1,5,-1
 136 1228 l 1,6,-1
 136 136 l 1,7,-1
 0 136 l 1,4,-1
682 136 m 1,8,-1
 682 1228 l 1,9,-1
 819 1228 l 1,10,-1
 819 136 l 1,11,-1
 682 136 l 1,8,-1
819 1228 m 1,12,-1
 819 1365 l 1,13,-1
 682 1365 l 1,14,-1
 682 1501 l 1,15,-1
 955 1501 l 1,16,-1
 955 1228 l 1,17,-1
 819 1228 l 1,12,-1
EndSplineSet
EndChar

StartChar: uhorn
Encoding: 432 432 208
Width: 887
GlyphClass: 1
Flags: W
LayerCount: 2
Fore
SplineSet
136 0 m 1,0,-1
 136 136 l 1,1,-1
 409 136 l 1,2,-1
 409 0 l 1,3,-1
 136 0 l 1,0,-1
0 136 m 1,4,-1
 0 955 l 1,5,-1
 136 955 l 1,6,-1
 136 136 l 1,7,-1
 0 136 l 1,4,-1
546 0 m 1,8,-1
 546 136 l 1,9,-1
 409 136 l 1,10,-1
 409 273 l 1,11,-1
 546 273 l 1,12,-1
 546 955 l 1,13,-1
 682 955 l 1,14,-1
 682 0 l 1,15,-1
 546 0 l 1,8,-1
682 955 m 1,16,-1
 682 1092 l 1,17,-1
 546 1092 l 1,18,-1
 546 1228 l 1,19,-1
 819 1228 l 1,20,-1
 819 955 l 1,21,-1
 682 955 l 1,16,-1
EndSplineSet
EndChar

StartChar: circumflex
Encoding: 710 710 209
Width: 546
GlyphClass: 1
Flags: W
LayerCount: 2
Fore
SplineSet
0 955 m 1,0,-1
 0 1092 l 1,1,-1
 136 1092 l 1,2,-1
 136 955 l 1,3,-1
 0 955 l 1,0,-1
273 955 m 1,4,-1
 273 1092 l 1,5,-1
 409 1092 l 1,6,-1
 409 955 l 1,7,-1
 273 955 l 1,4,-1
136 1092 m 1,8,-1
 136 1228 l 1,9,-1
 273 1228 l 1,10,-1
 273 1092 l 1,11,-1
 136 1092 l 1,8,-1
EndSplineSet
EndChar

StartChar: ring
Encoding: 730 730 210
Width: 546
GlyphClass: 1
Flags: W
LayerCount: 2
Fore
SplineSet
136 819 m 1,0,-1
 136 955 l 1,1,-1
 273 955 l 1,2,-1
 273 819 l 1,3,-1
 136 819 l 1,0,-1
0 955 m 1,4,-1
 0 1092 l 1,5,-1
 136 1092 l 1,6,-1
 136 955 l 1,7,-1
 0 955 l 1,4,-1
273 955 m 1,8,-1
 273 1092 l 1,9,-1
 409 1092 l 1,10,-1
 409 955 l 1,11,-1
 273 955 l 1,8,-1
136 1092 m 1,12,-1
 136 1228 l 1,13,-1
 273 1228 l 1,14,-1
 273 1092 l 1,15,-1
 136 1092 l 1,12,-1
EndSplineSet
EndChar

StartChar: tilde
Encoding: 732 732 211
Width: 682
GlyphClass: 1
Flags: W
LayerCount: 2
Fore
SplineSet
0 955 m 1,0,-1
 0 1092 l 1,1,-1
 136 1092 l 1,2,-1
 136 955 l 1,3,-1
 0 955 l 1,0,-1
273 955 m 1,4,-1
 273 1092 l 1,5,-1
 409 1092 l 1,6,-1
 409 955 l 1,7,-1
 273 955 l 1,4,-1
136 1092 m 1,8,-1
 136 1228 l 1,9,-1
 273 1228 l 1,10,-1
 273 1092 l 1,11,-1
 136 1092 l 1,8,-1
409 1092 m 1,12,-1
 409 1228 l 1,13,-1
 546 1228 l 1,14,-1
 546 1092 l 1,15,-1
 409 1092 l 1,12,-1
EndSplineSet
EndChar

StartChar: uni1E9E
Encoding: 7838 7838 212
Width: 955
GlyphClass: 1
Flags: W
LayerCount: 2
Fore
SplineSet
409 0 m 1,0,-1
 409 136 l 1,1,-1
 682 136 l 1,2,-1
 682 0 l 1,3,-1
 409 0 l 1,0,-1
273 136 m 1,4,-1
 273 273 l 1,5,-1
 409 273 l 1,6,-1
 409 136 l 1,7,-1
 273 136 l 1,4,-1
682 136 m 1,8,-1
 682 409 l 1,9,-1
 819 409 l 1,10,-1
 819 136 l 1,11,-1
 682 136 l 1,8,-1
546 409 m 1,12,-1
 546 546 l 1,13,-1
 682 546 l 1,14,-1
 682 409 l 1,15,-1
 546 409 l 1,12,-1
409 546 m 1,16,-1
 409 682 l 1,17,-1
 546 682 l 1,18,-1
 546 546 l 1,19,-1
 409 546 l 1,16,-1
546 682 m 1,20,-1
 546 819 l 1,21,-1
 682 819 l 1,22,-1
 682 682 l 1,23,-1
 546 682 l 1,20,-1
0 0 m 1,24,-1
 0 1092 l 1,25,-1
 136 1092 l 1,26,-1
 136 0 l 1,27,-1
 0 0 l 1,24,-1
682 819 m 1,28,-1
 682 1092 l 1,29,-1
 819 1092 l 1,30,-1
 819 819 l 1,31,-1
 682 819 l 1,28,-1
136 1092 m 1,32,-1
 136 1228 l 1,33,-1
 682 1228 l 1,34,-1
 682 1092 l 1,35,-1
 136 1092 l 1,32,-1
EndSplineSet
EndChar

StartChar: uni1EA0
Encoding: 7840 7840 213
Width: 1092
GlyphClass: 1
Flags: W
LayerCount: 2
Fore
SplineSet
409 -273 m 1,0,-1
 409 -136 l 1,1,-1
 546 -136 l 1,2,-1
 546 -273 l 1,3,-1
 409 -273 l 1,0,-1
0 0 m 1,4,-1
 0 409 l 1,5,-1
 136 409 l 1,6,-1
 136 0 l 1,7,-1
 0 0 l 1,4,-1
819 0 m 1,8,-1
 819 409 l 1,9,-1
 955 409 l 1,10,-1
 955 0 l 1,11,-1
 819 0 l 1,8,-1
136 409 m 1,12,-1
 136 819 l 1,13,-1
 273 819 l 1,14,-1
 273 546 l 1,15,-1
 682 546 l 1,16,-1
 682 819 l 1,17,-1
 819 819 l 1,18,-1
 819 409 l 1,19,-1
 136 409 l 1,12,-1
273 819 m 1,20,-1
 273 1092 l 1,21,-1
 409 1092 l 1,22,-1
 409 819 l 1,23,-1
 273 819 l 1,20,-1
546 819 m 1,24,-1
 546 1092 l 1,25,-1
 682 1092 l 1,26,-1
 682 819 l 1,27,-1
 546 819 l 1,24,-1
409 1092 m 1,28,-1
 409 1228 l 1,29,-1
 546 1228 l 1,30,-1
 546 1092 l 1,31,-1
 409 1092 l 1,28,-1
EndSplineSet
EndChar

StartChar: uni1EA1
Encoding: 7841 7841 214
Width: 956
GlyphClass: 1
Flags: W
LayerCount: 2
Fore
SplineSet
273 -273 m 1,0,-1
 273 -136 l 1,1,-1
 409 -136 l 1,2,-1
 409 -273 l 1,3,-1
 273 -273 l 1,0,-1
136 0 m 1,4,-1
 136 136 l 1,5,-1
 546 136 l 1,6,-1
 546 0 l 1,7,-1
 136 0 l 1,4,-1
682 0 m 1,8,-1
 682 136 l 1,9,-1
 819 136 l 1,10,-1
 819 0 l 1,11,-1
 682 0 l 1,8,-1
0 136 m 1,12,-1
 0 273 l 1,13,-1
 136 273 l 1,14,-1
 136 136 l 1,15,-1
 0 136 l 1,12,-1
136 273 m 1,16,-1
 136 409 l 1,17,-1
 273 409 l 1,18,-1
 273 273 l 1,19,-1
 136 273 l 1,16,-1
0 546 m 1,20,-1
 0 819 l 1,21,-1
 136 819 l 1,22,-1
 136 546 l 1,23,-1
 0 546 l 1,20,-1
546 136 m 1,24,-1
 546 409 l 1,25,-1
 273 409 l 1,26,-1
 273 546 l 1,27,-1
 546 546 l 1,28,-1
 546 819 l 1,29,-1
 682 819 l 1,30,-1
 682 136 l 1,31,-1
 546 136 l 1,24,-1
136 819 m 1,32,-1
 136 955 l 1,33,-1
 546 955 l 1,34,-1
 546 819 l 1,35,-1
 136 819 l 1,32,-1
EndSplineSet
EndChar

StartChar: uni1EA2
Encoding: 7842 7842 215
Width: 1092
GlyphClass: 1
Flags: W
LayerCount: 2
Fore
SplineSet
0 0 m 1,0,-1
 0 409 l 1,1,-1
 136 409 l 1,2,-1
 136 0 l 1,3,-1
 0 0 l 1,0,-1
819 0 m 1,4,-1
 819 409 l 1,5,-1
 955 409 l 1,6,-1
 955 0 l 1,7,-1
 819 0 l 1,4,-1
136 409 m 1,8,-1
 136 819 l 1,9,-1
 273 819 l 1,10,-1
 273 546 l 1,11,-1
 682 546 l 1,12,-1
 682 819 l 1,13,-1
 819 819 l 1,14,-1
 819 409 l 1,15,-1
 136 409 l 1,8,-1
273 819 m 1,16,-1
 273 1092 l 1,17,-1
 409 1092 l 1,18,-1
 409 819 l 1,19,-1
 273 819 l 1,16,-1
546 819 m 1,20,-1
 546 1092 l 1,21,-1
 682 1092 l 1,22,-1
 682 819 l 1,23,-1
 546 819 l 1,20,-1
409 1092 m 1,24,-1
 409 1228 l 1,25,-1
 546 1228 l 1,26,-1
 546 1092 l 1,27,-1
 409 1092 l 1,24,-1
409 1365 m 1,28,-1
 409 1501 l 1,29,-1
 273 1501 l 1,30,-1
 273 1638 l 1,31,-1
 546 1638 l 1,32,-1
 546 1365 l 1,33,-1
 409 1365 l 1,28,-1
EndSplineSet
EndChar

StartChar: uni1EA3
Encoding: 7843 7843 216
Width: 956
GlyphClass: 1
Flags: W
LayerCount: 2
Fore
SplineSet
136 0 m 1,0,-1
 136 136 l 1,1,-1
 546 136 l 1,2,-1
 546 0 l 1,3,-1
 136 0 l 1,0,-1
682 0 m 1,4,-1
 682 136 l 1,5,-1
 819 136 l 1,6,-1
 819 0 l 1,7,-1
 682 0 l 1,4,-1
0 136 m 1,8,-1
 0 273 l 1,9,-1
 136 273 l 1,10,-1
 136 136 l 1,11,-1
 0 136 l 1,8,-1
136 273 m 1,12,-1
 136 409 l 1,13,-1
 273 409 l 1,14,-1
 273 273 l 1,15,-1
 136 273 l 1,12,-1
0 546 m 1,16,-1
 0 819 l 1,17,-1
 136 819 l 1,18,-1
 136 546 l 1,19,-1
 0 546 l 1,16,-1
546 136 m 1,20,-1
 546 409 l 1,21,-1
 273 409 l 1,22,-1
 273 546 l 1,23,-1
 546 546 l 1,24,-1
 546 819 l 1,25,-1
 682 819 l 1,26,-1
 682 136 l 1,27,-1
 546 136 l 1,20,-1
136 819 m 1,28,-1
 136 955 l 1,29,-1
 546 955 l 1,30,-1
 546 819 l 1,31,-1
 136 819 l 1,28,-1
409 1092 m 1,32,-1
 409 1228 l 1,33,-1
 273 1228 l 1,34,-1
 273 1365 l 1,35,-1
 546 1365 l 1,36,-1
 546 1092 l 1,37,-1
 409 1092 l 1,32,-1
EndSplineSet
EndChar

StartChar: uni1EA4
Encoding: 7844 7844 217
Width: 1092
GlyphClass: 1
Flags: W
LayerCount: 2
Fore
SplineSet
0 0 m 1,0,-1
 0 409 l 1,1,-1
 136 409 l 1,2,-1
 136 0 l 1,3,-1
 0 0 l 1,0,-1
819 0 m 1,4,-1
 819 409 l 1,5,-1
 955 409 l 1,6,-1
 955 0 l 1,7,-1
 819 0 l 1,4,-1
136 409 m 1,8,-1
 136 819 l 1,9,-1
 273 819 l 1,10,-1
 273 546 l 1,11,-1
 682 546 l 1,12,-1
 682 819 l 1,13,-1
 819 819 l 1,14,-1
 819 409 l 1,15,-1
 136 409 l 1,8,-1
273 819 m 1,16,-1
 273 1092 l 1,17,-1
 409 1092 l 1,18,-1
 409 819 l 1,19,-1
 273 819 l 1,16,-1
546 819 m 1,20,-1
 546 1092 l 1,21,-1
 682 1092 l 1,22,-1
 682 819 l 1,23,-1
 546 819 l 1,20,-1
409 1092 m 1,24,-1
 409 1228 l 1,25,-1
 546 1228 l 1,26,-1
 546 1092 l 1,27,-1
 409 1092 l 1,24,-1
273 1365 m 1,28,-1
 273 1501 l 1,29,-1
 409 1501 l 1,30,-1
 409 1365 l 1,31,-1
 273 1365 l 1,28,-1
546 1365 m 1,32,-1
 546 1501 l 1,33,-1
 682 1501 l 1,34,-1
 682 1365 l 1,35,-1
 546 1365 l 1,32,-1
409 1501 m 1,36,-1
 409 1638 l 1,37,-1
 546 1638 l 1,38,-1
 546 1501 l 1,39,-1
 409 1501 l 1,36,-1
682 1638 m 1,40,-1
 682 1774 l 1,41,-1
 819 1774 l 1,42,-1
 819 1638 l 1,43,-1
 682 1638 l 1,40,-1
819 1774 m 1,44,-1
 819 1911 l 1,45,-1
 955 1911 l 1,46,-1
 955 1774 l 1,47,-1
 819 1774 l 1,44,-1
EndSplineSet
EndChar

StartChar: uni1EA5
Encoding: 7845 7845 218
Width: 956
GlyphClass: 1
Flags: W
LayerCount: 2
Fore
SplineSet
136 0 m 1,0,-1
 136 136 l 1,1,-1
 546 136 l 1,2,-1
 546 0 l 1,3,-1
 136 0 l 1,0,-1
682 0 m 1,4,-1
 682 136 l 1,5,-1
 819 136 l 1,6,-1
 819 0 l 1,7,-1
 682 0 l 1,4,-1
0 136 m 1,8,-1
 0 273 l 1,9,-1
 136 273 l 1,10,-1
 136 136 l 1,11,-1
 0 136 l 1,8,-1
136 273 m 1,12,-1
 136 409 l 1,13,-1
 273 409 l 1,14,-1
 273 273 l 1,15,-1
 136 273 l 1,12,-1
0 546 m 1,16,-1
 0 819 l 1,17,-1
 136 819 l 1,18,-1
 136 546 l 1,19,-1
 0 546 l 1,16,-1
546 136 m 1,20,-1
 546 409 l 1,21,-1
 273 409 l 1,22,-1
 273 546 l 1,23,-1
 546 546 l 1,24,-1
 546 819 l 1,25,-1
 682 819 l 1,26,-1
 682 136 l 1,27,-1
 546 136 l 1,20,-1
136 819 m 1,28,-1
 136 955 l 1,29,-1
 546 955 l 1,30,-1
 546 819 l 1,31,-1
 136 819 l 1,28,-1
136 1092 m 1,32,-1
 136 1228 l 1,33,-1
 273 1228 l 1,34,-1
 273 1092 l 1,35,-1
 136 1092 l 1,32,-1
409 1092 m 1,36,-1
 409 1228 l 1,37,-1
 546 1228 l 1,38,-1
 546 1092 l 1,39,-1
 409 1092 l 1,36,-1
273 1228 m 1,40,-1
 273 1365 l 1,41,-1
 409 1365 l 1,42,-1
 409 1228 l 1,43,-1
 273 1228 l 1,40,-1
546 1365 m 1,44,-1
 546 1501 l 1,45,-1
 682 1501 l 1,46,-1
 682 1365 l 1,47,-1
 546 1365 l 1,44,-1
682 1501 m 1,48,-1
 682 1638 l 1,49,-1
 819 1638 l 1,50,-1
 819 1501 l 1,51,-1
 682 1501 l 1,48,-1
EndSplineSet
EndChar

StartChar: uni1EA6
Encoding: 7846 7846 219
Width: 1092
GlyphClass: 1
Flags: W
LayerCount: 2
Fore
SplineSet
0 0 m 1,0,-1
 0 409 l 1,1,-1
 136 409 l 1,2,-1
 136 0 l 1,3,-1
 0 0 l 1,0,-1
819 0 m 1,4,-1
 819 409 l 1,5,-1
 955 409 l 1,6,-1
 955 0 l 1,7,-1
 819 0 l 1,4,-1
136 409 m 1,8,-1
 136 819 l 1,9,-1
 273 819 l 1,10,-1
 273 546 l 1,11,-1
 682 546 l 1,12,-1
 682 819 l 1,13,-1
 819 819 l 1,14,-1
 819 409 l 1,15,-1
 136 409 l 1,8,-1
273 819 m 1,16,-1
 273 1092 l 1,17,-1
 409 1092 l 1,18,-1
 409 819 l 1,19,-1
 273 819 l 1,16,-1
546 819 m 1,20,-1
 546 1092 l 1,21,-1
 682 1092 l 1,22,-1
 682 819 l 1,23,-1
 546 819 l 1,20,-1
409 1092 m 1,24,-1
 409 1228 l 1,25,-1
 546 1228 l 1,26,-1
 546 1092 l 1,27,-1
 409 1092 l 1,24,-1
273 1365 m 1,28,-1
 273 1501 l 1,29,-1
 409 1501 l 1,30,-1
 409 1365 l 1,31,-1
 273 1365 l 1,28,-1
546 1365 m 1,32,-1
 546 1501 l 1,33,-1
 682 1501 l 1,34,-1
 682 1365 l 1,35,-1
 546 1365 l 1,32,-1
409 1501 m 1,36,-1
 409 1638 l 1,37,-1
 546 1638 l 1,38,-1
 546 1501 l 1,39,-1
 409 1501 l 1,36,-1
682 1638 m 1,40,-1
 682 1774 l 1,41,-1
 819 1774 l 1,42,-1
 819 1638 l 1,43,-1
 682 1638 l 1,40,-1
546 1774 m 1,44,-1
 546 1911 l 1,45,-1
 682 1911 l 1,46,-1
 682 1774 l 1,47,-1
 546 1774 l 1,44,-1
EndSplineSet
EndChar

StartChar: uni1EA7
Encoding: 7847 7847 220
Width: 956
GlyphClass: 1
Flags: W
LayerCount: 2
Fore
SplineSet
136 0 m 1,0,-1
 136 136 l 1,1,-1
 546 136 l 1,2,-1
 546 0 l 1,3,-1
 136 0 l 1,0,-1
682 0 m 1,4,-1
 682 136 l 1,5,-1
 819 136 l 1,6,-1
 819 0 l 1,7,-1
 682 0 l 1,4,-1
0 136 m 1,8,-1
 0 273 l 1,9,-1
 136 273 l 1,10,-1
 136 136 l 1,11,-1
 0 136 l 1,8,-1
136 273 m 1,12,-1
 136 409 l 1,13,-1
 273 409 l 1,14,-1
 273 273 l 1,15,-1
 136 273 l 1,12,-1
0 546 m 1,16,-1
 0 819 l 1,17,-1
 136 819 l 1,18,-1
 136 546 l 1,19,-1
 0 546 l 1,16,-1
546 136 m 1,20,-1
 546 409 l 1,21,-1
 273 409 l 1,22,-1
 273 546 l 1,23,-1
 546 546 l 1,24,-1
 546 819 l 1,25,-1
 682 819 l 1,26,-1
 682 136 l 1,27,-1
 546 136 l 1,20,-1
136 819 m 1,28,-1
 136 955 l 1,29,-1
 546 955 l 1,30,-1
 546 819 l 1,31,-1
 136 819 l 1,28,-1
136 1092 m 1,32,-1
 136 1228 l 1,33,-1
 273 1228 l 1,34,-1
 273 1092 l 1,35,-1
 136 1092 l 1,32,-1
409 1092 m 1,36,-1
 409 1228 l 1,37,-1
 546 1228 l 1,38,-1
 546 1092 l 1,39,-1
 409 1092 l 1,36,-1
273 1228 m 1,40,-1
 273 1365 l 1,41,-1
 409 1365 l 1,42,-1
 409 1228 l 1,43,-1
 273 1228 l 1,40,-1
546 1365 m 1,44,-1
 546 1501 l 1,45,-1
 682 1501 l 1,46,-1
 682 1365 l 1,47,-1
 546 1365 l 1,44,-1
409 1501 m 1,48,-1
 409 1638 l 1,49,-1
 546 1638 l 1,50,-1
 546 1501 l 1,51,-1
 409 1501 l 1,48,-1
EndSplineSet
EndChar

StartChar: uni1EA8
Encoding: 7848 7848 221
Width: 1092
GlyphClass: 1
Flags: W
LayerCount: 2
Fore
SplineSet
0 0 m 1,0,-1
 0 409 l 1,1,-1
 136 409 l 1,2,-1
 136 0 l 1,3,-1
 0 0 l 1,0,-1
819 0 m 1,4,-1
 819 409 l 1,5,-1
 955 409 l 1,6,-1
 955 0 l 1,7,-1
 819 0 l 1,4,-1
136 409 m 1,8,-1
 136 819 l 1,9,-1
 273 819 l 1,10,-1
 273 546 l 1,11,-1
 682 546 l 1,12,-1
 682 819 l 1,13,-1
 819 819 l 1,14,-1
 819 409 l 1,15,-1
 136 409 l 1,8,-1
273 819 m 1,16,-1
 273 1092 l 1,17,-1
 409 1092 l 1,18,-1
 409 819 l 1,19,-1
 273 819 l 1,16,-1
546 819 m 1,20,-1
 546 1092 l 1,21,-1
 682 1092 l 1,22,-1
 682 819 l 1,23,-1
 546 819 l 1,20,-1
409 1092 m 1,24,-1
 409 1228 l 1,25,-1
 546 1228 l 1,26,-1
 546 1092 l 1,27,-1
 409 1092 l 1,24,-1
273 1365 m 1,28,-1
 273 1501 l 1,29,-1
 409 1501 l 1,30,-1
 409 1365 l 1,31,-1
 273 1365 l 1,28,-1
546 1365 m 1,32,-1
 546 1501 l 1,33,-1
 682 1501 l 1,34,-1
 682 1365 l 1,35,-1
 546 1365 l 1,32,-1
409 1501 m 1,36,-1
 409 1638 l 1,37,-1
 546 1638 l 1,38,-1
 546 1501 l 1,39,-1
 409 1501 l 1,36,-1
682 1638 m 1,40,-1
 682 1774 l 1,41,-1
 546 1774 l 1,42,-1
 546 1911 l 1,43,-1
 819 1911 l 1,44,-1
 819 1638 l 1,45,-1
 682 1638 l 1,40,-1
EndSplineSet
EndChar

StartChar: uni1EA9
Encoding: 7849 7849 222
Width: 956
GlyphClass: 1
Flags: W
LayerCount: 2
Fore
SplineSet
136 0 m 1,0,-1
 136 136 l 1,1,-1
 546 136 l 1,2,-1
 546 0 l 1,3,-1
 136 0 l 1,0,-1
682 0 m 1,4,-1
 682 136 l 1,5,-1
 819 136 l 1,6,-1
 819 0 l 1,7,-1
 682 0 l 1,4,-1
0 136 m 1,8,-1
 0 273 l 1,9,-1
 136 273 l 1,10,-1
 136 136 l 1,11,-1
 0 136 l 1,8,-1
136 273 m 1,12,-1
 136 409 l 1,13,-1
 273 409 l 1,14,-1
 273 273 l 1,15,-1
 136 273 l 1,12,-1
0 546 m 1,16,-1
 0 819 l 1,17,-1
 136 819 l 1,18,-1
 136 546 l 1,19,-1
 0 546 l 1,16,-1
546 136 m 1,20,-1
 546 409 l 1,21,-1
 273 409 l 1,22,-1
 273 546 l 1,23,-1
 546 546 l 1,24,-1
 546 819 l 1,25,-1
 682 819 l 1,26,-1
 682 136 l 1,27,-1
 546 136 l 1,20,-1
136 819 m 1,28,-1
 136 955 l 1,29,-1
 546 955 l 1,30,-1
 546 819 l 1,31,-1
 136 819 l 1,28,-1
136 1092 m 1,32,-1
 136 1228 l 1,33,-1
 273 1228 l 1,34,-1
 273 1092 l 1,35,-1
 136 1092 l 1,32,-1
409 1092 m 1,36,-1
 409 1228 l 1,37,-1
 546 1228 l 1,38,-1
 546 1092 l 1,39,-1
 409 1092 l 1,36,-1
273 1228 m 1,40,-1
 273 1365 l 1,41,-1
 409 1365 l 1,42,-1
 409 1228 l 1,43,-1
 273 1228 l 1,40,-1
546 1365 m 1,44,-1
 546 1501 l 1,45,-1
 409 1501 l 1,46,-1
 409 1638 l 1,47,-1
 682 1638 l 1,48,-1
 682 1365 l 1,49,-1
 546 1365 l 1,44,-1
EndSplineSet
EndChar

StartChar: uni1EAA
Encoding: 7850 7850 223
Width: 1092
GlyphClass: 1
Flags: W
LayerCount: 2
Fore
SplineSet
0 0 m 1,0,-1
 0 409 l 1,1,-1
 136 409 l 1,2,-1
 136 0 l 1,3,-1
 0 0 l 1,0,-1
819 0 m 1,4,-1
 819 409 l 1,5,-1
 955 409 l 1,6,-1
 955 0 l 1,7,-1
 819 0 l 1,4,-1
136 409 m 1,8,-1
 136 819 l 1,9,-1
 273 819 l 1,10,-1
 273 546 l 1,11,-1
 682 546 l 1,12,-1
 682 819 l 1,13,-1
 819 819 l 1,14,-1
 819 409 l 1,15,-1
 136 409 l 1,8,-1
273 819 m 1,16,-1
 273 1092 l 1,17,-1
 409 1092 l 1,18,-1
 409 819 l 1,19,-1
 273 819 l 1,16,-1
546 819 m 1,20,-1
 546 1092 l 1,21,-1
 682 1092 l 1,22,-1
 682 819 l 1,23,-1
 546 819 l 1,20,-1
409 1092 m 1,24,-1
 409 1228 l 1,25,-1
 546 1228 l 1,26,-1
 546 1092 l 1,27,-1
 409 1092 l 1,24,-1
273 1365 m 1,28,-1
 273 1501 l 1,29,-1
 409 1501 l 1,30,-1
 409 1365 l 1,31,-1
 273 1365 l 1,28,-1
546 1365 m 1,32,-1
 546 1501 l 1,33,-1
 682 1501 l 1,34,-1
 682 1365 l 1,35,-1
 546 1365 l 1,32,-1
409 1501 m 1,36,-1
 409 1638 l 1,37,-1
 546 1638 l 1,38,-1
 546 1501 l 1,39,-1
 409 1501 l 1,36,-1
136 1638 m 1,40,-1
 136 1774 l 1,41,-1
 273 1774 l 1,42,-1
 273 1638 l 1,43,-1
 136 1638 l 1,40,-1
682 1638 m 1,44,-1
 682 1774 l 1,45,-1
 819 1774 l 1,46,-1
 819 1638 l 1,47,-1
 682 1638 l 1,44,-1
273 1774 m 1,48,-1
 273 1911 l 1,49,-1
 682 1911 l 1,50,-1
 682 1774 l 1,51,-1
 273 1774 l 1,48,-1
819 1774 m 1,52,-1
 819 1911 l 1,53,-1
 955 1911 l 1,54,-1
 955 1774 l 1,55,-1
 819 1774 l 1,52,-1
EndSplineSet
EndChar

StartChar: uni1EAB
Encoding: 7851 7851 224
Width: 956
GlyphClass: 1
Flags: W
LayerCount: 2
Fore
SplineSet
136 0 m 1,0,-1
 136 136 l 1,1,-1
 546 136 l 1,2,-1
 546 0 l 1,3,-1
 136 0 l 1,0,-1
682 0 m 1,4,-1
 682 136 l 1,5,-1
 819 136 l 1,6,-1
 819 0 l 1,7,-1
 682 0 l 1,4,-1
0 136 m 1,8,-1
 0 273 l 1,9,-1
 136 273 l 1,10,-1
 136 136 l 1,11,-1
 0 136 l 1,8,-1
136 273 m 1,12,-1
 136 409 l 1,13,-1
 273 409 l 1,14,-1
 273 273 l 1,15,-1
 136 273 l 1,12,-1
0 546 m 1,16,-1
 0 819 l 1,17,-1
 136 819 l 1,18,-1
 136 546 l 1,19,-1
 0 546 l 1,16,-1
546 136 m 1,20,-1
 546 409 l 1,21,-1
 273 409 l 1,22,-1
 273 546 l 1,23,-1
 546 546 l 1,24,-1
 546 819 l 1,25,-1
 682 819 l 1,26,-1
 682 136 l 1,27,-1
 546 136 l 1,20,-1
136 819 m 1,28,-1
 136 955 l 1,29,-1
 546 955 l 1,30,-1
 546 819 l 1,31,-1
 136 819 l 1,28,-1
136 1092 m 1,32,-1
 136 1228 l 1,33,-1
 273 1228 l 1,34,-1
 273 1092 l 1,35,-1
 136 1092 l 1,32,-1
409 1092 m 1,36,-1
 409 1228 l 1,37,-1
 546 1228 l 1,38,-1
 546 1092 l 1,39,-1
 409 1092 l 1,36,-1
273 1228 m 1,40,-1
 273 1365 l 1,41,-1
 409 1365 l 1,42,-1
 409 1228 l 1,43,-1
 273 1228 l 1,40,-1
0 1365 m 1,44,-1
 0 1501 l 1,45,-1
 136 1501 l 1,46,-1
 136 1365 l 1,47,-1
 0 1365 l 1,44,-1
546 1365 m 1,48,-1
 546 1501 l 1,49,-1
 682 1501 l 1,50,-1
 682 1365 l 1,51,-1
 546 1365 l 1,48,-1
136 1501 m 1,52,-1
 136 1638 l 1,53,-1
 546 1638 l 1,54,-1
 546 1501 l 1,55,-1
 136 1501 l 1,52,-1
682 1501 m 1,56,-1
 682 1638 l 1,57,-1
 819 1638 l 1,58,-1
 819 1501 l 1,59,-1
 682 1501 l 1,56,-1
EndSplineSet
EndChar

StartChar: uni1EAC
Encoding: 7852 7852 225
Width: 1092
GlyphClass: 1
Flags: W
LayerCount: 2
Fore
SplineSet
409 -273 m 1,0,-1
 409 -136 l 1,1,-1
 546 -136 l 1,2,-1
 546 -273 l 1,3,-1
 409 -273 l 1,0,-1
0 0 m 1,4,-1
 0 409 l 1,5,-1
 136 409 l 1,6,-1
 136 0 l 1,7,-1
 0 0 l 1,4,-1
819 0 m 1,8,-1
 819 409 l 1,9,-1
 955 409 l 1,10,-1
 955 0 l 1,11,-1
 819 0 l 1,8,-1
136 409 m 1,12,-1
 136 819 l 1,13,-1
 273 819 l 1,14,-1
 273 546 l 1,15,-1
 682 546 l 1,16,-1
 682 819 l 1,17,-1
 819 819 l 1,18,-1
 819 409 l 1,19,-1
 136 409 l 1,12,-1
273 819 m 1,20,-1
 273 1092 l 1,21,-1
 409 1092 l 1,22,-1
 409 819 l 1,23,-1
 273 819 l 1,20,-1
546 819 m 1,24,-1
 546 1092 l 1,25,-1
 682 1092 l 1,26,-1
 682 819 l 1,27,-1
 546 819 l 1,24,-1
409 1092 m 1,28,-1
 409 1228 l 1,29,-1
 546 1228 l 1,30,-1
 546 1092 l 1,31,-1
 409 1092 l 1,28,-1
273 1365 m 1,32,-1
 273 1501 l 1,33,-1
 409 1501 l 1,34,-1
 409 1365 l 1,35,-1
 273 1365 l 1,32,-1
546 1365 m 1,36,-1
 546 1501 l 1,37,-1
 682 1501 l 1,38,-1
 682 1365 l 1,39,-1
 546 1365 l 1,36,-1
409 1501 m 1,40,-1
 409 1638 l 1,41,-1
 546 1638 l 1,42,-1
 546 1501 l 1,43,-1
 409 1501 l 1,40,-1
EndSplineSet
EndChar

StartChar: uni1EAD
Encoding: 7853 7853 226
Width: 956
GlyphClass: 1
Flags: W
LayerCount: 2
Fore
SplineSet
273 -273 m 1,0,-1
 273 -136 l 1,1,-1
 409 -136 l 1,2,-1
 409 -273 l 1,3,-1
 273 -273 l 1,0,-1
136 0 m 1,4,-1
 136 136 l 1,5,-1
 546 136 l 1,6,-1
 546 0 l 1,7,-1
 136 0 l 1,4,-1
682 0 m 1,8,-1
 682 136 l 1,9,-1
 819 136 l 1,10,-1
 819 0 l 1,11,-1
 682 0 l 1,8,-1
0 136 m 1,12,-1
 0 273 l 1,13,-1
 136 273 l 1,14,-1
 136 136 l 1,15,-1
 0 136 l 1,12,-1
136 273 m 1,16,-1
 136 409 l 1,17,-1
 273 409 l 1,18,-1
 273 273 l 1,19,-1
 136 273 l 1,16,-1
0 546 m 1,20,-1
 0 819 l 1,21,-1
 136 819 l 1,22,-1
 136 546 l 1,23,-1
 0 546 l 1,20,-1
546 136 m 1,24,-1
 546 409 l 1,25,-1
 273 409 l 1,26,-1
 273 546 l 1,27,-1
 546 546 l 1,28,-1
 546 819 l 1,29,-1
 682 819 l 1,30,-1
 682 136 l 1,31,-1
 546 136 l 1,24,-1
136 819 m 1,32,-1
 136 955 l 1,33,-1
 546 955 l 1,34,-1
 546 819 l 1,35,-1
 136 819 l 1,32,-1
136 1092 m 1,36,-1
 136 1228 l 1,37,-1
 273 1228 l 1,38,-1
 273 1092 l 1,39,-1
 136 1092 l 1,36,-1
409 1092 m 1,40,-1
 409 1228 l 1,41,-1
 546 1228 l 1,42,-1
 546 1092 l 1,43,-1
 409 1092 l 1,40,-1
273 1228 m 1,44,-1
 273 1365 l 1,45,-1
 409 1365 l 1,46,-1
 409 1228 l 1,47,-1
 273 1228 l 1,44,-1
EndSplineSet
EndChar

StartChar: uni1EAE
Encoding: 7854 7854 227
Width: 1092
GlyphClass: 1
Flags: W
LayerCount: 2
Fore
SplineSet
0 0 m 1,0,-1
 0 409 l 1,1,-1
 136 409 l 1,2,-1
 136 0 l 1,3,-1
 0 0 l 1,0,-1
819 0 m 1,4,-1
 819 409 l 1,5,-1
 955 409 l 1,6,-1
 955 0 l 1,7,-1
 819 0 l 1,4,-1
136 409 m 1,8,-1
 136 819 l 1,9,-1
 273 819 l 1,10,-1
 273 546 l 1,11,-1
 682 546 l 1,12,-1
 682 819 l 1,13,-1
 819 819 l 1,14,-1
 819 409 l 1,15,-1
 136 409 l 1,8,-1
273 819 m 1,16,-1
 273 1092 l 1,17,-1
 409 1092 l 1,18,-1
 409 819 l 1,19,-1
 273 819 l 1,16,-1
546 819 m 1,20,-1
 546 1092 l 1,21,-1
 682 1092 l 1,22,-1
 682 819 l 1,23,-1
 546 819 l 1,20,-1
409 1092 m 1,24,-1
 409 1228 l 1,25,-1
 546 1228 l 1,26,-1
 546 1092 l 1,27,-1
 409 1092 l 1,24,-1
273 1365 m 1,28,-1
 273 1638 l 1,29,-1
 409 1638 l 1,30,-1
 409 1501 l 1,31,-1
 546 1501 l 1,32,-1
 546 1638 l 1,33,-1
 682 1638 l 1,34,-1
 682 1365 l 1,35,-1
 273 1365 l 1,28,-1
682 1638 m 1,36,-1
 682 1774 l 1,37,-1
 819 1774 l 1,38,-1
 819 1638 l 1,39,-1
 682 1638 l 1,36,-1
819 1774 m 1,40,-1
 819 1911 l 1,41,-1
 955 1911 l 1,42,-1
 955 1774 l 1,43,-1
 819 1774 l 1,40,-1
EndSplineSet
EndChar

StartChar: uni1EAF
Encoding: 7855 7855 228
Width: 956
GlyphClass: 1
Flags: W
LayerCount: 2
Fore
SplineSet
136 0 m 1,0,-1
 136 136 l 1,1,-1
 546 136 l 1,2,-1
 546 0 l 1,3,-1
 136 0 l 1,0,-1
682 0 m 1,4,-1
 682 136 l 1,5,-1
 819 136 l 1,6,-1
 819 0 l 1,7,-1
 682 0 l 1,4,-1
0 136 m 1,8,-1
 0 273 l 1,9,-1
 136 273 l 1,10,-1
 136 136 l 1,11,-1
 0 136 l 1,8,-1
136 273 m 1,12,-1
 136 409 l 1,13,-1
 273 409 l 1,14,-1
 273 273 l 1,15,-1
 136 273 l 1,12,-1
0 546 m 1,16,-1
 0 819 l 1,17,-1
 136 819 l 1,18,-1
 136 546 l 1,19,-1
 0 546 l 1,16,-1
546 136 m 1,20,-1
 546 409 l 1,21,-1
 273 409 l 1,22,-1
 273 546 l 1,23,-1
 546 546 l 1,24,-1
 546 819 l 1,25,-1
 682 819 l 1,26,-1
 682 136 l 1,27,-1
 546 136 l 1,20,-1
136 819 m 1,28,-1
 136 955 l 1,29,-1
 546 955 l 1,30,-1
 546 819 l 1,31,-1
 136 819 l 1,28,-1
136 1092 m 1,32,-1
 136 1365 l 1,33,-1
 273 1365 l 1,34,-1
 273 1228 l 1,35,-1
 409 1228 l 1,36,-1
 409 1365 l 1,37,-1
 546 1365 l 1,38,-1
 546 1092 l 1,39,-1
 136 1092 l 1,32,-1
546 1365 m 1,40,-1
 546 1501 l 1,41,-1
 682 1501 l 1,42,-1
 682 1365 l 1,43,-1
 546 1365 l 1,40,-1
682 1501 m 1,44,-1
 682 1638 l 1,45,-1
 819 1638 l 1,46,-1
 819 1501 l 1,47,-1
 682 1501 l 1,44,-1
EndSplineSet
EndChar

StartChar: uni1EB0
Encoding: 7856 7856 229
Width: 1092
GlyphClass: 1
Flags: W
LayerCount: 2
Fore
SplineSet
0 0 m 1,0,-1
 0 409 l 1,1,-1
 136 409 l 1,2,-1
 136 0 l 1,3,-1
 0 0 l 1,0,-1
819 0 m 1,4,-1
 819 409 l 1,5,-1
 955 409 l 1,6,-1
 955 0 l 1,7,-1
 819 0 l 1,4,-1
136 409 m 1,8,-1
 136 819 l 1,9,-1
 273 819 l 1,10,-1
 273 546 l 1,11,-1
 682 546 l 1,12,-1
 682 819 l 1,13,-1
 819 819 l 1,14,-1
 819 409 l 1,15,-1
 136 409 l 1,8,-1
273 819 m 1,16,-1
 273 1092 l 1,17,-1
 409 1092 l 1,18,-1
 409 819 l 1,19,-1
 273 819 l 1,16,-1
546 819 m 1,20,-1
 546 1092 l 1,21,-1
 682 1092 l 1,22,-1
 682 819 l 1,23,-1
 546 819 l 1,20,-1
409 1092 m 1,24,-1
 409 1228 l 1,25,-1
 546 1228 l 1,26,-1
 546 1092 l 1,27,-1
 409 1092 l 1,24,-1
273 1365 m 1,28,-1
 273 1638 l 1,29,-1
 409 1638 l 1,30,-1
 409 1501 l 1,31,-1
 546 1501 l 1,32,-1
 546 1638 l 1,33,-1
 682 1638 l 1,34,-1
 682 1365 l 1,35,-1
 273 1365 l 1,28,-1
819 1638 m 1,36,-1
 819 1774 l 1,37,-1
 955 1774 l 1,38,-1
 955 1638 l 1,39,-1
 819 1638 l 1,36,-1
682 1774 m 1,40,-1
 682 1911 l 1,41,-1
 819 1911 l 1,42,-1
 819 1774 l 1,43,-1
 682 1774 l 1,40,-1
EndSplineSet
EndChar

StartChar: uni1EB1
Encoding: 7857 7857 230
Width: 956
GlyphClass: 1
Flags: W
LayerCount: 2
Fore
SplineSet
136 0 m 1,0,-1
 136 136 l 1,1,-1
 546 136 l 1,2,-1
 546 0 l 1,3,-1
 136 0 l 1,0,-1
682 0 m 1,4,-1
 682 136 l 1,5,-1
 819 136 l 1,6,-1
 819 0 l 1,7,-1
 682 0 l 1,4,-1
0 136 m 1,8,-1
 0 273 l 1,9,-1
 136 273 l 1,10,-1
 136 136 l 1,11,-1
 0 136 l 1,8,-1
136 273 m 1,12,-1
 136 409 l 1,13,-1
 273 409 l 1,14,-1
 273 273 l 1,15,-1
 136 273 l 1,12,-1
0 546 m 1,16,-1
 0 819 l 1,17,-1
 136 819 l 1,18,-1
 136 546 l 1,19,-1
 0 546 l 1,16,-1
546 136 m 1,20,-1
 546 409 l 1,21,-1
 273 409 l 1,22,-1
 273 546 l 1,23,-1
 546 546 l 1,24,-1
 546 819 l 1,25,-1
 682 819 l 1,26,-1
 682 136 l 1,27,-1
 546 136 l 1,20,-1
136 819 m 1,28,-1
 136 955 l 1,29,-1
 546 955 l 1,30,-1
 546 819 l 1,31,-1
 136 819 l 1,28,-1
136 1092 m 1,32,-1
 136 1365 l 1,33,-1
 273 1365 l 1,34,-1
 273 1228 l 1,35,-1
 409 1228 l 1,36,-1
 409 1365 l 1,37,-1
 546 1365 l 1,38,-1
 546 1092 l 1,39,-1
 136 1092 l 1,32,-1
682 1365 m 1,40,-1
 682 1501 l 1,41,-1
 819 1501 l 1,42,-1
 819 1365 l 1,43,-1
 682 1365 l 1,40,-1
546 1501 m 1,44,-1
 546 1638 l 1,45,-1
 682 1638 l 1,46,-1
 682 1501 l 1,47,-1
 546 1501 l 1,44,-1
EndSplineSet
EndChar

StartChar: uni1EB2
Encoding: 7858 7858 231
Width: 1092
GlyphClass: 1
Flags: W
LayerCount: 2
Fore
SplineSet
0 0 m 1,0,-1
 0 409 l 1,1,-1
 136 409 l 1,2,-1
 136 0 l 1,3,-1
 0 0 l 1,0,-1
819 0 m 1,4,-1
 819 409 l 1,5,-1
 955 409 l 1,6,-1
 955 0 l 1,7,-1
 819 0 l 1,4,-1
136 409 m 1,8,-1
 136 819 l 1,9,-1
 273 819 l 1,10,-1
 273 546 l 1,11,-1
 682 546 l 1,12,-1
 682 819 l 1,13,-1
 819 819 l 1,14,-1
 819 409 l 1,15,-1
 136 409 l 1,8,-1
273 819 m 1,16,-1
 273 1092 l 1,17,-1
 409 1092 l 1,18,-1
 409 819 l 1,19,-1
 273 819 l 1,16,-1
546 819 m 1,20,-1
 546 1092 l 1,21,-1
 682 1092 l 1,22,-1
 682 819 l 1,23,-1
 546 819 l 1,20,-1
409 1092 m 1,24,-1
 409 1228 l 1,25,-1
 546 1228 l 1,26,-1
 546 1092 l 1,27,-1
 409 1092 l 1,24,-1
273 1365 m 1,28,-1
 273 1638 l 1,29,-1
 409 1638 l 1,30,-1
 409 1501 l 1,31,-1
 546 1501 l 1,32,-1
 546 1638 l 1,33,-1
 682 1638 l 1,34,-1
 682 1365 l 1,35,-1
 273 1365 l 1,28,-1
819 1638 m 1,36,-1
 819 1774 l 1,37,-1
 682 1774 l 1,38,-1
 682 1911 l 1,39,-1
 955 1911 l 1,40,-1
 955 1638 l 1,41,-1
 819 1638 l 1,36,-1
EndSplineSet
EndChar

StartChar: uni1EB3
Encoding: 7859 7859 232
Width: 956
GlyphClass: 1
Flags: W
LayerCount: 2
Fore
SplineSet
136 0 m 1,0,-1
 136 136 l 1,1,-1
 546 136 l 1,2,-1
 546 0 l 1,3,-1
 136 0 l 1,0,-1
682 0 m 1,4,-1
 682 136 l 1,5,-1
 819 136 l 1,6,-1
 819 0 l 1,7,-1
 682 0 l 1,4,-1
0 136 m 1,8,-1
 0 273 l 1,9,-1
 136 273 l 1,10,-1
 136 136 l 1,11,-1
 0 136 l 1,8,-1
136 273 m 1,12,-1
 136 409 l 1,13,-1
 273 409 l 1,14,-1
 273 273 l 1,15,-1
 136 273 l 1,12,-1
0 546 m 1,16,-1
 0 819 l 1,17,-1
 136 819 l 1,18,-1
 136 546 l 1,19,-1
 0 546 l 1,16,-1
546 136 m 1,20,-1
 546 409 l 1,21,-1
 273 409 l 1,22,-1
 273 546 l 1,23,-1
 546 546 l 1,24,-1
 546 819 l 1,25,-1
 682 819 l 1,26,-1
 682 136 l 1,27,-1
 546 136 l 1,20,-1
136 819 m 1,28,-1
 136 955 l 1,29,-1
 546 955 l 1,30,-1
 546 819 l 1,31,-1
 136 819 l 1,28,-1
136 1092 m 1,32,-1
 136 1365 l 1,33,-1
 273 1365 l 1,34,-1
 273 1228 l 1,35,-1
 409 1228 l 1,36,-1
 409 1365 l 1,37,-1
 546 1365 l 1,38,-1
 546 1092 l 1,39,-1
 136 1092 l 1,32,-1
682 1365 m 1,40,-1
 682 1501 l 1,41,-1
 546 1501 l 1,42,-1
 546 1638 l 1,43,-1
 819 1638 l 1,44,-1
 819 1365 l 1,45,-1
 682 1365 l 1,40,-1
EndSplineSet
EndChar

StartChar: uni1EB4
Encoding: 7860 7860 233
Width: 1092
GlyphClass: 1
Flags: W
LayerCount: 2
Fore
SplineSet
0 0 m 1,0,-1
 0 409 l 1,1,-1
 136 409 l 1,2,-1
 136 0 l 1,3,-1
 0 0 l 1,0,-1
819 0 m 1,4,-1
 819 409 l 1,5,-1
 955 409 l 1,6,-1
 955 0 l 1,7,-1
 819 0 l 1,4,-1
136 409 m 1,8,-1
 136 682 l 1,9,-1
 273 682 l 1,10,-1
 273 546 l 1,11,-1
 682 546 l 1,12,-1
 682 682 l 1,13,-1
 819 682 l 1,14,-1
 819 409 l 1,15,-1
 136 409 l 1,8,-1
273 682 m 1,16,-1
 273 955 l 1,17,-1
 409 955 l 1,18,-1
 409 682 l 1,19,-1
 273 682 l 1,16,-1
546 682 m 1,20,-1
 546 955 l 1,21,-1
 682 955 l 1,22,-1
 682 682 l 1,23,-1
 546 682 l 1,20,-1
409 955 m 1,24,-1
 409 1092 l 1,25,-1
 546 1092 l 1,26,-1
 546 955 l 1,27,-1
 409 955 l 1,24,-1
273 1228 m 1,28,-1
 273 1501 l 1,29,-1
 409 1501 l 1,30,-1
 409 1365 l 1,31,-1
 546 1365 l 1,32,-1
 546 1501 l 1,33,-1
 682 1501 l 1,34,-1
 682 1228 l 1,35,-1
 273 1228 l 1,28,-1
136 1638 m 1,36,-1
 136 1774 l 1,37,-1
 273 1774 l 1,38,-1
 273 1638 l 1,39,-1
 136 1638 l 1,36,-1
546 1638 m 1,40,-1
 546 1774 l 1,41,-1
 682 1774 l 1,42,-1
 682 1638 l 1,43,-1
 546 1638 l 1,40,-1
273 1774 m 1,44,-1
 273 1911 l 1,45,-1
 546 1911 l 1,46,-1
 546 1774 l 1,47,-1
 273 1774 l 1,44,-1
682 1774 m 1,48,-1
 682 1911 l 1,49,-1
 819 1911 l 1,50,-1
 819 1774 l 1,51,-1
 682 1774 l 1,48,-1
EndSplineSet
EndChar

StartChar: uni1EB5
Encoding: 7861 7861 234
Width: 956
GlyphClass: 1
Flags: W
LayerCount: 2
Fore
SplineSet
136 0 m 1,0,-1
 136 136 l 1,1,-1
 546 136 l 1,2,-1
 546 0 l 1,3,-1
 136 0 l 1,0,-1
682 0 m 1,4,-1
 682 136 l 1,5,-1
 819 136 l 1,6,-1
 819 0 l 1,7,-1
 682 0 l 1,4,-1
0 136 m 1,8,-1
 0 273 l 1,9,-1
 136 273 l 1,10,-1
 136 136 l 1,11,-1
 0 136 l 1,8,-1
136 273 m 1,12,-1
 136 409 l 1,13,-1
 273 409 l 1,14,-1
 273 273 l 1,15,-1
 136 273 l 1,12,-1
0 546 m 1,16,-1
 0 819 l 1,17,-1
 136 819 l 1,18,-1
 136 546 l 1,19,-1
 0 546 l 1,16,-1
546 136 m 1,20,-1
 546 409 l 1,21,-1
 273 409 l 1,22,-1
 273 546 l 1,23,-1
 546 546 l 1,24,-1
 546 819 l 1,25,-1
 682 819 l 1,26,-1
 682 136 l 1,27,-1
 546 136 l 1,20,-1
136 819 m 1,28,-1
 136 955 l 1,29,-1
 546 955 l 1,30,-1
 546 819 l 1,31,-1
 136 819 l 1,28,-1
136 1092 m 1,32,-1
 136 1365 l 1,33,-1
 273 1365 l 1,34,-1
 273 1228 l 1,35,-1
 409 1228 l 1,36,-1
 409 1365 l 1,37,-1
 546 1365 l 1,38,-1
 546 1092 l 1,39,-1
 136 1092 l 1,32,-1
0 1501 m 1,40,-1
 0 1638 l 1,41,-1
 136 1638 l 1,42,-1
 136 1501 l 1,43,-1
 0 1501 l 1,40,-1
409 1501 m 1,44,-1
 409 1638 l 1,45,-1
 546 1638 l 1,46,-1
 546 1501 l 1,47,-1
 409 1501 l 1,44,-1
136 1638 m 1,48,-1
 136 1774 l 1,49,-1
 409 1774 l 1,50,-1
 409 1638 l 1,51,-1
 136 1638 l 1,48,-1
546 1638 m 1,52,-1
 546 1774 l 1,53,-1
 682 1774 l 1,54,-1
 682 1638 l 1,55,-1
 546 1638 l 1,52,-1
EndSplineSet
EndChar

StartChar: uni1EB6
Encoding: 7862 7862 235
Width: 1092
GlyphClass: 1
Flags: W
LayerCount: 2
Fore
SplineSet
409 -273 m 1,0,-1
 409 -136 l 1,1,-1
 546 -136 l 1,2,-1
 546 -273 l 1,3,-1
 409 -273 l 1,0,-1
0 0 m 1,4,-1
 0 409 l 1,5,-1
 136 409 l 1,6,-1
 136 0 l 1,7,-1
 0 0 l 1,4,-1
819 0 m 1,8,-1
 819 409 l 1,9,-1
 955 409 l 1,10,-1
 955 0 l 1,11,-1
 819 0 l 1,8,-1
136 409 m 1,12,-1
 136 819 l 1,13,-1
 273 819 l 1,14,-1
 273 546 l 1,15,-1
 682 546 l 1,16,-1
 682 819 l 1,17,-1
 819 819 l 1,18,-1
 819 409 l 1,19,-1
 136 409 l 1,12,-1
273 819 m 1,20,-1
 273 1092 l 1,21,-1
 409 1092 l 1,22,-1
 409 819 l 1,23,-1
 273 819 l 1,20,-1
546 819 m 1,24,-1
 546 1092 l 1,25,-1
 682 1092 l 1,26,-1
 682 819 l 1,27,-1
 546 819 l 1,24,-1
409 1092 m 1,28,-1
 409 1228 l 1,29,-1
 546 1228 l 1,30,-1
 546 1092 l 1,31,-1
 409 1092 l 1,28,-1
273 1365 m 1,32,-1
 273 1638 l 1,33,-1
 409 1638 l 1,34,-1
 409 1501 l 1,35,-1
 546 1501 l 1,36,-1
 546 1638 l 1,37,-1
 682 1638 l 1,38,-1
 682 1365 l 1,39,-1
 273 1365 l 1,32,-1
EndSplineSet
EndChar

StartChar: uni1EB7
Encoding: 7863 7863 236
Width: 956
GlyphClass: 1
Flags: W
LayerCount: 2
Fore
SplineSet
273 -273 m 1,0,-1
 273 -136 l 1,1,-1
 409 -136 l 1,2,-1
 409 -273 l 1,3,-1
 273 -273 l 1,0,-1
136 0 m 1,4,-1
 136 136 l 1,5,-1
 546 136 l 1,6,-1
 546 0 l 1,7,-1
 136 0 l 1,4,-1
682 0 m 1,8,-1
 682 136 l 1,9,-1
 819 136 l 1,10,-1
 819 0 l 1,11,-1
 682 0 l 1,8,-1
0 136 m 1,12,-1
 0 273 l 1,13,-1
 136 273 l 1,14,-1
 136 136 l 1,15,-1
 0 136 l 1,12,-1
136 273 m 1,16,-1
 136 409 l 1,17,-1
 273 409 l 1,18,-1
 273 273 l 1,19,-1
 136 273 l 1,16,-1
0 546 m 1,20,-1
 0 819 l 1,21,-1
 136 819 l 1,22,-1
 136 546 l 1,23,-1
 0 546 l 1,20,-1
546 136 m 1,24,-1
 546 409 l 1,25,-1
 273 409 l 1,26,-1
 273 546 l 1,27,-1
 546 546 l 1,28,-1
 546 819 l 1,29,-1
 682 819 l 1,30,-1
 682 136 l 1,31,-1
 546 136 l 1,24,-1
136 819 m 1,32,-1
 136 955 l 1,33,-1
 546 955 l 1,34,-1
 546 819 l 1,35,-1
 136 819 l 1,32,-1
136 1092 m 1,36,-1
 136 1365 l 1,37,-1
 273 1365 l 1,38,-1
 273 1228 l 1,39,-1
 409 1228 l 1,40,-1
 409 1365 l 1,41,-1
 546 1365 l 1,42,-1
 546 1092 l 1,43,-1
 136 1092 l 1,36,-1
EndSplineSet
EndChar

StartChar: uni1EB8
Encoding: 7864 7864 237
Width: 819
GlyphClass: 1
Flags: W
LayerCount: 2
Fore
SplineSet
273 -273 m 1,0,-1
 273 -136 l 1,1,-1
 409 -136 l 1,2,-1
 409 -273 l 1,3,-1
 273 -273 l 1,0,-1
0 0 m 1,4,-1
 0 1228 l 1,5,-1
 682 1228 l 1,6,-1
 682 1092 l 1,7,-1
 136 1092 l 1,8,-1
 136 682 l 1,9,-1
 546 682 l 1,10,-1
 546 546 l 1,11,-1
 136 546 l 1,12,-1
 136 136 l 1,13,-1
 682 136 l 1,14,-1
 682 0 l 1,15,-1
 0 0 l 1,4,-1
EndSplineSet
EndChar

StartChar: uni1EB9
Encoding: 7865 7865 238
Width: 819
GlyphClass: 1
Flags: W
LayerCount: 2
Fore
SplineSet
273 -273 m 1,0,-1
 273 -136 l 1,1,-1
 409 -136 l 1,2,-1
 409 -273 l 1,3,-1
 273 -273 l 1,0,-1
136 0 m 1,4,-1
 136 136 l 1,5,-1
 546 136 l 1,6,-1
 546 0 l 1,7,-1
 136 0 l 1,4,-1
546 136 m 1,8,-1
 546 273 l 1,9,-1
 682 273 l 1,10,-1
 682 136 l 1,11,-1
 546 136 l 1,8,-1
0 136 m 1,12,-1
 0 819 l 1,13,-1
 136 819 l 1,14,-1
 136 546 l 1,15,-1
 546 546 l 1,16,-1
 546 819 l 1,17,-1
 682 819 l 1,18,-1
 682 409 l 1,19,-1
 136 409 l 1,20,-1
 136 136 l 1,21,-1
 0 136 l 1,12,-1
136 819 m 1,22,-1
 136 955 l 1,23,-1
 546 955 l 1,24,-1
 546 819 l 1,25,-1
 136 819 l 1,22,-1
EndSplineSet
EndChar

StartChar: uni1EBA
Encoding: 7866 7866 239
Width: 819
GlyphClass: 1
Flags: W
LayerCount: 2
Fore
SplineSet
0 0 m 1,0,-1
 0 1228 l 1,1,-1
 682 1228 l 1,2,-1
 682 1092 l 1,3,-1
 136 1092 l 1,4,-1
 136 682 l 1,5,-1
 546 682 l 1,6,-1
 546 546 l 1,7,-1
 136 546 l 1,8,-1
 136 136 l 1,9,-1
 682 136 l 1,10,-1
 682 0 l 1,11,-1
 0 0 l 1,0,-1
273 1365 m 1,12,-1
 273 1501 l 1,13,-1
 136 1501 l 1,14,-1
 136 1638 l 1,15,-1
 409 1638 l 1,16,-1
 409 1365 l 1,17,-1
 273 1365 l 1,12,-1
EndSplineSet
EndChar

StartChar: uni1EBB
Encoding: 7867 7867 240
Width: 819
GlyphClass: 1
Flags: W
LayerCount: 2
Fore
SplineSet
136 0 m 1,0,-1
 136 136 l 1,1,-1
 546 136 l 1,2,-1
 546 0 l 1,3,-1
 136 0 l 1,0,-1
546 136 m 1,4,-1
 546 273 l 1,5,-1
 682 273 l 1,6,-1
 682 136 l 1,7,-1
 546 136 l 1,4,-1
0 136 m 1,8,-1
 0 819 l 1,9,-1
 136 819 l 1,10,-1
 136 546 l 1,11,-1
 546 546 l 1,12,-1
 546 819 l 1,13,-1
 682 819 l 1,14,-1
 682 409 l 1,15,-1
 136 409 l 1,16,-1
 136 136 l 1,17,-1
 0 136 l 1,8,-1
136 819 m 1,18,-1
 136 955 l 1,19,-1
 546 955 l 1,20,-1
 546 819 l 1,21,-1
 136 819 l 1,18,-1
273 1092 m 1,22,-1
 273 1228 l 1,23,-1
 136 1228 l 1,24,-1
 136 1365 l 1,25,-1
 409 1365 l 1,26,-1
 409 1092 l 1,27,-1
 273 1092 l 1,22,-1
EndSplineSet
EndChar

StartChar: uni1EBC
Encoding: 7868 7868 241
Width: 819
GlyphClass: 1
Flags: W
LayerCount: 2
Fore
SplineSet
0 0 m 1,0,-1
 0 1228 l 1,1,-1
 682 1228 l 1,2,-1
 682 1092 l 1,3,-1
 136 1092 l 1,4,-1
 136 682 l 1,5,-1
 546 682 l 1,6,-1
 546 546 l 1,7,-1
 136 546 l 1,8,-1
 136 136 l 1,9,-1
 682 136 l 1,10,-1
 682 0 l 1,11,-1
 0 0 l 1,0,-1
136 1365 m 1,12,-1
 136 1501 l 1,13,-1
 273 1501 l 1,14,-1
 273 1365 l 1,15,-1
 136 1365 l 1,12,-1
409 1365 m 1,16,-1
 409 1501 l 1,17,-1
 546 1501 l 1,18,-1
 546 1365 l 1,19,-1
 409 1365 l 1,16,-1
273 1501 m 1,20,-1
 273 1638 l 1,21,-1
 409 1638 l 1,22,-1
 409 1501 l 1,23,-1
 273 1501 l 1,20,-1
546 1501 m 1,24,-1
 546 1638 l 1,25,-1
 682 1638 l 1,26,-1
 682 1501 l 1,27,-1
 546 1501 l 1,24,-1
EndSplineSet
EndChar

StartChar: uni1EBD
Encoding: 7869 7869 242
Width: 819
GlyphClass: 1
Flags: W
LayerCount: 2
Fore
SplineSet
136 0 m 1,0,-1
 136 136 l 1,1,-1
 546 136 l 1,2,-1
 546 0 l 1,3,-1
 136 0 l 1,0,-1
546 136 m 1,4,-1
 546 273 l 1,5,-1
 682 273 l 1,6,-1
 682 136 l 1,7,-1
 546 136 l 1,4,-1
0 136 m 1,8,-1
 0 819 l 1,9,-1
 136 819 l 1,10,-1
 136 546 l 1,11,-1
 546 546 l 1,12,-1
 546 819 l 1,13,-1
 682 819 l 1,14,-1
 682 409 l 1,15,-1
 136 409 l 1,16,-1
 136 136 l 1,17,-1
 0 136 l 1,8,-1
136 819 m 1,18,-1
 136 955 l 1,19,-1
 546 955 l 1,20,-1
 546 819 l 1,21,-1
 136 819 l 1,18,-1
136 1092 m 1,22,-1
 136 1228 l 1,23,-1
 273 1228 l 1,24,-1
 273 1092 l 1,25,-1
 136 1092 l 1,22,-1
409 1092 m 1,26,-1
 409 1228 l 1,27,-1
 546 1228 l 1,28,-1
 546 1092 l 1,29,-1
 409 1092 l 1,26,-1
273 1228 m 1,30,-1
 273 1365 l 1,31,-1
 409 1365 l 1,32,-1
 409 1228 l 1,33,-1
 273 1228 l 1,30,-1
546 1228 m 1,34,-1
 546 1365 l 1,35,-1
 682 1365 l 1,36,-1
 682 1228 l 1,37,-1
 546 1228 l 1,34,-1
EndSplineSet
EndChar

StartChar: uni1EBE
Encoding: 7870 7870 243
Width: 819
GlyphClass: 1
Flags: W
LayerCount: 2
Fore
SplineSet
0 0 m 1,0,-1
 0 1228 l 1,1,-1
 682 1228 l 1,2,-1
 682 1092 l 1,3,-1
 136 1092 l 1,4,-1
 136 682 l 1,5,-1
 546 682 l 1,6,-1
 546 546 l 1,7,-1
 136 546 l 1,8,-1
 136 136 l 1,9,-1
 682 136 l 1,10,-1
 682 0 l 1,11,-1
 0 0 l 1,0,-1
136 1365 m 1,12,-1
 136 1501 l 1,13,-1
 273 1501 l 1,14,-1
 273 1365 l 1,15,-1
 136 1365 l 1,12,-1
409 1365 m 1,16,-1
 409 1501 l 1,17,-1
 546 1501 l 1,18,-1
 546 1365 l 1,19,-1
 409 1365 l 1,16,-1
273 1501 m 1,20,-1
 273 1638 l 1,21,-1
 409 1638 l 1,22,-1
 409 1501 l 1,23,-1
 273 1501 l 1,20,-1
546 1638 m 1,24,-1
 546 1774 l 1,25,-1
 682 1774 l 1,26,-1
 682 1638 l 1,27,-1
 546 1638 l 1,24,-1
682 1774 m 1,28,-1
 682 1911 l 1,29,-1
 819 1911 l 1,30,-1
 819 1774 l 1,31,-1
 682 1774 l 1,28,-1
EndSplineSet
EndChar

StartChar: uni1EBF
Encoding: 7871 7871 244
Width: 819
GlyphClass: 1
Flags: W
LayerCount: 2
Fore
SplineSet
136 0 m 1,0,-1
 136 136 l 1,1,-1
 546 136 l 1,2,-1
 546 0 l 1,3,-1
 136 0 l 1,0,-1
546 136 m 1,4,-1
 546 273 l 1,5,-1
 682 273 l 1,6,-1
 682 136 l 1,7,-1
 546 136 l 1,4,-1
0 136 m 1,8,-1
 0 819 l 1,9,-1
 136 819 l 1,10,-1
 136 546 l 1,11,-1
 546 546 l 1,12,-1
 546 819 l 1,13,-1
 682 819 l 1,14,-1
 682 409 l 1,15,-1
 136 409 l 1,16,-1
 136 136 l 1,17,-1
 0 136 l 1,8,-1
136 819 m 1,18,-1
 136 955 l 1,19,-1
 546 955 l 1,20,-1
 546 819 l 1,21,-1
 136 819 l 1,18,-1
136 1092 m 1,22,-1
 136 1228 l 1,23,-1
 273 1228 l 1,24,-1
 273 1092 l 1,25,-1
 136 1092 l 1,22,-1
409 1092 m 1,26,-1
 409 1228 l 1,27,-1
 546 1228 l 1,28,-1
 546 1092 l 1,29,-1
 409 1092 l 1,26,-1
273 1228 m 1,30,-1
 273 1365 l 1,31,-1
 409 1365 l 1,32,-1
 409 1228 l 1,33,-1
 273 1228 l 1,30,-1
273 1501 m 1,34,-1
 273 1638 l 1,35,-1
 409 1638 l 1,36,-1
 409 1501 l 1,37,-1
 273 1501 l 1,34,-1
409 1638 m 1,38,-1
 409 1774 l 1,39,-1
 546 1774 l 1,40,-1
 546 1638 l 1,41,-1
 409 1638 l 1,38,-1
EndSplineSet
EndChar

StartChar: uni1EC0
Encoding: 7872 7872 245
Width: 819
GlyphClass: 1
Flags: W
LayerCount: 2
Fore
SplineSet
0 0 m 1,0,-1
 0 1228 l 1,1,-1
 682 1228 l 1,2,-1
 682 1092 l 1,3,-1
 136 1092 l 1,4,-1
 136 682 l 1,5,-1
 546 682 l 1,6,-1
 546 546 l 1,7,-1
 136 546 l 1,8,-1
 136 136 l 1,9,-1
 682 136 l 1,10,-1
 682 0 l 1,11,-1
 0 0 l 1,0,-1
136 1365 m 1,12,-1
 136 1501 l 1,13,-1
 273 1501 l 1,14,-1
 273 1365 l 1,15,-1
 136 1365 l 1,12,-1
409 1365 m 1,16,-1
 409 1501 l 1,17,-1
 546 1501 l 1,18,-1
 546 1365 l 1,19,-1
 409 1365 l 1,16,-1
273 1501 m 1,20,-1
 273 1638 l 1,21,-1
 409 1638 l 1,22,-1
 409 1501 l 1,23,-1
 273 1501 l 1,20,-1
546 1638 m 1,24,-1
 546 1774 l 1,25,-1
 682 1774 l 1,26,-1
 682 1638 l 1,27,-1
 546 1638 l 1,24,-1
409 1774 m 1,28,-1
 409 1911 l 1,29,-1
 546 1911 l 1,30,-1
 546 1774 l 1,31,-1
 409 1774 l 1,28,-1
EndSplineSet
EndChar

StartChar: uni1EC1
Encoding: 7873 7873 246
Width: 819
GlyphClass: 1
Flags: W
LayerCount: 2
Fore
SplineSet
136 0 m 1,0,-1
 136 136 l 1,1,-1
 546 136 l 1,2,-1
 546 0 l 1,3,-1
 136 0 l 1,0,-1
546 136 m 1,4,-1
 546 273 l 1,5,-1
 682 273 l 1,6,-1
 682 136 l 1,7,-1
 546 136 l 1,4,-1
0 136 m 1,8,-1
 0 819 l 1,9,-1
 136 819 l 1,10,-1
 136 546 l 1,11,-1
 546 546 l 1,12,-1
 546 819 l 1,13,-1
 682 819 l 1,14,-1
 682 409 l 1,15,-1
 136 409 l 1,16,-1
 136 136 l 1,17,-1
 0 136 l 1,8,-1
136 819 m 1,18,-1
 136 955 l 1,19,-1
 546 955 l 1,20,-1
 546 819 l 1,21,-1
 136 819 l 1,18,-1
136 1092 m 1,22,-1
 136 1228 l 1,23,-1
 273 1228 l 1,24,-1
 273 1092 l 1,25,-1
 136 1092 l 1,22,-1
409 1092 m 1,26,-1
 409 1228 l 1,27,-1
 546 1228 l 1,28,-1
 546 1092 l 1,29,-1
 409 1092 l 1,26,-1
273 1228 m 1,30,-1
 273 1365 l 1,31,-1
 409 1365 l 1,32,-1
 409 1228 l 1,33,-1
 273 1228 l 1,30,-1
546 1365 m 1,34,-1
 546 1501 l 1,35,-1
 682 1501 l 1,36,-1
 682 1365 l 1,37,-1
 546 1365 l 1,34,-1
409 1501 m 1,38,-1
 409 1638 l 1,39,-1
 546 1638 l 1,40,-1
 546 1501 l 1,41,-1
 409 1501 l 1,38,-1
EndSplineSet
EndChar

StartChar: uni1EC2
Encoding: 7874 7874 247
Width: 819
GlyphClass: 1
Flags: W
LayerCount: 2
Fore
SplineSet
0 0 m 1,0,-1
 0 1228 l 1,1,-1
 682 1228 l 1,2,-1
 682 1092 l 1,3,-1
 136 1092 l 1,4,-1
 136 682 l 1,5,-1
 546 682 l 1,6,-1
 546 546 l 1,7,-1
 136 546 l 1,8,-1
 136 136 l 1,9,-1
 682 136 l 1,10,-1
 682 0 l 1,11,-1
 0 0 l 1,0,-1
136 1365 m 1,12,-1
 136 1501 l 1,13,-1
 273 1501 l 1,14,-1
 273 1365 l 1,15,-1
 136 1365 l 1,12,-1
409 1365 m 1,16,-1
 409 1501 l 1,17,-1
 546 1501 l 1,18,-1
 546 1365 l 1,19,-1
 409 1365 l 1,16,-1
273 1501 m 1,20,-1
 273 1638 l 1,21,-1
 409 1638 l 1,22,-1
 409 1501 l 1,23,-1
 273 1501 l 1,20,-1
546 1638 m 1,24,-1
 546 1774 l 1,25,-1
 409 1774 l 1,26,-1
 409 1911 l 1,27,-1
 682 1911 l 1,28,-1
 682 1638 l 1,29,-1
 546 1638 l 1,24,-1
EndSplineSet
EndChar

StartChar: uni1EC3
Encoding: 7875 7875 248
Width: 819
GlyphClass: 1
Flags: W
LayerCount: 2
Fore
SplineSet
136 0 m 1,0,-1
 136 136 l 1,1,-1
 546 136 l 1,2,-1
 546 0 l 1,3,-1
 136 0 l 1,0,-1
546 136 m 1,4,-1
 546 273 l 1,5,-1
 682 273 l 1,6,-1
 682 136 l 1,7,-1
 546 136 l 1,4,-1
0 136 m 1,8,-1
 0 819 l 1,9,-1
 136 819 l 1,10,-1
 136 546 l 1,11,-1
 546 546 l 1,12,-1
 546 819 l 1,13,-1
 682 819 l 1,14,-1
 682 409 l 1,15,-1
 136 409 l 1,16,-1
 136 136 l 1,17,-1
 0 136 l 1,8,-1
136 819 m 1,18,-1
 136 955 l 1,19,-1
 546 955 l 1,20,-1
 546 819 l 1,21,-1
 136 819 l 1,18,-1
136 1092 m 1,22,-1
 136 1228 l 1,23,-1
 273 1228 l 1,24,-1
 273 1092 l 1,25,-1
 136 1092 l 1,22,-1
409 1092 m 1,26,-1
 409 1228 l 1,27,-1
 546 1228 l 1,28,-1
 546 1092 l 1,29,-1
 409 1092 l 1,26,-1
273 1228 m 1,30,-1
 273 1365 l 1,31,-1
 409 1365 l 1,32,-1
 409 1228 l 1,33,-1
 273 1228 l 1,30,-1
546 1365 m 1,34,-1
 546 1501 l 1,35,-1
 409 1501 l 1,36,-1
 409 1638 l 1,37,-1
 682 1638 l 1,38,-1
 682 1365 l 1,39,-1
 546 1365 l 1,34,-1
EndSplineSet
EndChar

StartChar: uni1EC4
Encoding: 7876 7876 249
Width: 819
GlyphClass: 1
Flags: W
LayerCount: 2
Fore
SplineSet
0 0 m 1,0,-1
 0 1228 l 1,1,-1
 682 1228 l 1,2,-1
 682 1092 l 1,3,-1
 136 1092 l 1,4,-1
 136 682 l 1,5,-1
 546 682 l 1,6,-1
 546 546 l 1,7,-1
 136 546 l 1,8,-1
 136 136 l 1,9,-1
 682 136 l 1,10,-1
 682 0 l 1,11,-1
 0 0 l 1,0,-1
136 1365 m 1,12,-1
 136 1501 l 1,13,-1
 273 1501 l 1,14,-1
 273 1365 l 1,15,-1
 136 1365 l 1,12,-1
409 1365 m 1,16,-1
 409 1501 l 1,17,-1
 546 1501 l 1,18,-1
 546 1365 l 1,19,-1
 409 1365 l 1,16,-1
273 1501 m 1,20,-1
 273 1638 l 1,21,-1
 409 1638 l 1,22,-1
 409 1501 l 1,23,-1
 273 1501 l 1,20,-1
0 1638 m 1,24,-1
 0 1774 l 1,25,-1
 136 1774 l 1,26,-1
 136 1638 l 1,27,-1
 0 1638 l 1,24,-1
546 1638 m 1,28,-1
 546 1774 l 1,29,-1
 682 1774 l 1,30,-1
 682 1638 l 1,31,-1
 546 1638 l 1,28,-1
136 1774 m 1,32,-1
 136 1911 l 1,33,-1
 546 1911 l 1,34,-1
 546 1774 l 1,35,-1
 136 1774 l 1,32,-1
682 1774 m 1,36,-1
 682 1911 l 1,37,-1
 819 1911 l 1,38,-1
 819 1774 l 1,39,-1
 682 1774 l 1,36,-1
EndSplineSet
EndChar

StartChar: uni1EC5
Encoding: 7877 7877 250
Width: 819
GlyphClass: 1
Flags: W
LayerCount: 2
Fore
SplineSet
136 0 m 1,0,-1
 136 136 l 1,1,-1
 546 136 l 1,2,-1
 546 0 l 1,3,-1
 136 0 l 1,0,-1
546 136 m 1,4,-1
 546 273 l 1,5,-1
 682 273 l 1,6,-1
 682 136 l 1,7,-1
 546 136 l 1,4,-1
0 136 m 1,8,-1
 0 819 l 1,9,-1
 136 819 l 1,10,-1
 136 546 l 1,11,-1
 546 546 l 1,12,-1
 546 819 l 1,13,-1
 682 819 l 1,14,-1
 682 409 l 1,15,-1
 136 409 l 1,16,-1
 136 136 l 1,17,-1
 0 136 l 1,8,-1
136 819 m 1,18,-1
 136 955 l 1,19,-1
 546 955 l 1,20,-1
 546 819 l 1,21,-1
 136 819 l 1,18,-1
136 1092 m 1,22,-1
 136 1228 l 1,23,-1
 273 1228 l 1,24,-1
 273 1092 l 1,25,-1
 136 1092 l 1,22,-1
409 1092 m 1,26,-1
 409 1228 l 1,27,-1
 546 1228 l 1,28,-1
 546 1092 l 1,29,-1
 409 1092 l 1,26,-1
273 1228 m 1,30,-1
 273 1365 l 1,31,-1
 409 1365 l 1,32,-1
 409 1228 l 1,33,-1
 273 1228 l 1,30,-1
0 1501 m 1,34,-1
 0 1638 l 1,35,-1
 136 1638 l 1,36,-1
 136 1501 l 1,37,-1
 0 1501 l 1,34,-1
409 1501 m 1,38,-1
 409 1638 l 1,39,-1
 546 1638 l 1,40,-1
 546 1501 l 1,41,-1
 409 1501 l 1,38,-1
136 1638 m 1,42,-1
 136 1774 l 1,43,-1
 409 1774 l 1,44,-1
 409 1638 l 1,45,-1
 136 1638 l 1,42,-1
546 1638 m 1,46,-1
 546 1774 l 1,47,-1
 682 1774 l 1,48,-1
 682 1638 l 1,49,-1
 546 1638 l 1,46,-1
EndSplineSet
EndChar

StartChar: uni1EC6
Encoding: 7878 7878 251
Width: 819
GlyphClass: 1
Flags: W
LayerCount: 2
Fore
SplineSet
273 -273 m 1,0,-1
 273 -136 l 1,1,-1
 409 -136 l 1,2,-1
 409 -273 l 1,3,-1
 273 -273 l 1,0,-1
0 0 m 1,4,-1
 0 1228 l 1,5,-1
 682 1228 l 1,6,-1
 682 1092 l 1,7,-1
 136 1092 l 1,8,-1
 136 682 l 1,9,-1
 546 682 l 1,10,-1
 546 546 l 1,11,-1
 136 546 l 1,12,-1
 136 136 l 1,13,-1
 682 136 l 1,14,-1
 682 0 l 1,15,-1
 0 0 l 1,4,-1
136 1365 m 1,16,-1
 136 1501 l 1,17,-1
 273 1501 l 1,18,-1
 273 1365 l 1,19,-1
 136 1365 l 1,16,-1
409 1365 m 1,20,-1
 409 1501 l 1,21,-1
 546 1501 l 1,22,-1
 546 1365 l 1,23,-1
 409 1365 l 1,20,-1
273 1501 m 1,24,-1
 273 1638 l 1,25,-1
 409 1638 l 1,26,-1
 409 1501 l 1,27,-1
 273 1501 l 1,24,-1
EndSplineSet
EndChar

StartChar: uni1EC7
Encoding: 7879 7879 252
Width: 819
GlyphClass: 1
Flags: W
LayerCount: 2
Fore
SplineSet
273 -273 m 1,0,-1
 273 -136 l 1,1,-1
 409 -136 l 1,2,-1
 409 -273 l 1,3,-1
 273 -273 l 1,0,-1
136 0 m 1,4,-1
 136 136 l 1,5,-1
 546 136 l 1,6,-1
 546 0 l 1,7,-1
 136 0 l 1,4,-1
546 136 m 1,8,-1
 546 273 l 1,9,-1
 682 273 l 1,10,-1
 682 136 l 1,11,-1
 546 136 l 1,8,-1
0 136 m 1,12,-1
 0 819 l 1,13,-1
 136 819 l 1,14,-1
 136 546 l 1,15,-1
 546 546 l 1,16,-1
 546 819 l 1,17,-1
 682 819 l 1,18,-1
 682 409 l 1,19,-1
 136 409 l 1,20,-1
 136 136 l 1,21,-1
 0 136 l 1,12,-1
136 819 m 1,22,-1
 136 955 l 1,23,-1
 546 955 l 1,24,-1
 546 819 l 1,25,-1
 136 819 l 1,22,-1
136 1092 m 1,26,-1
 136 1228 l 1,27,-1
 273 1228 l 1,28,-1
 273 1092 l 1,29,-1
 136 1092 l 1,26,-1
409 1092 m 1,30,-1
 409 1228 l 1,31,-1
 546 1228 l 1,32,-1
 546 1092 l 1,33,-1
 409 1092 l 1,30,-1
273 1228 m 1,34,-1
 273 1365 l 1,35,-1
 409 1365 l 1,36,-1
 409 1228 l 1,37,-1
 273 1228 l 1,34,-1
EndSplineSet
EndChar

StartChar: uni1EC8
Encoding: 7880 7880 253
Width: 819
GlyphClass: 1
Flags: W
LayerCount: 2
Fore
SplineSet
0 0 m 1,0,-1
 0 136 l 1,1,-1
 273 136 l 1,2,-1
 273 1092 l 1,3,-1
 0 1092 l 1,4,-1
 0 1228 l 1,5,-1
 682 1228 l 1,6,-1
 682 1092 l 1,7,-1
 409 1092 l 1,8,-1
 409 136 l 1,9,-1
 682 136 l 1,10,-1
 682 0 l 1,11,-1
 0 0 l 1,0,-1
273 1365 m 1,12,-1
 273 1501 l 1,13,-1
 136 1501 l 1,14,-1
 136 1638 l 1,15,-1
 409 1638 l 1,16,-1
 409 1365 l 1,17,-1
 273 1365 l 1,12,-1
EndSplineSet
EndChar

StartChar: uni1EC9
Encoding: 7881 7881 254
Width: 273
GlyphClass: 1
Flags: W
LayerCount: 2
Fore
SplineSet
0 0 m 1,0,-1
 0 955 l 1,1,-1
 136 955 l 1,2,-1
 136 0 l 1,3,-1
 0 0 l 1,0,-1
0 1092 m 1,4,-1
 0 1228 l 1,5,-1
 -136 1228 l 1,6,-1
 -136 1365 l 1,7,-1
 136 1365 l 1,8,-1
 136 1092 l 1,9,-1
 0 1092 l 1,4,-1
EndSplineSet
EndChar

StartChar: uni1ECA
Encoding: 7882 7882 255
Width: 819
GlyphClass: 1
Flags: W
LayerCount: 2
Fore
SplineSet
273 -273 m 1,0,-1
 273 -136 l 1,1,-1
 409 -136 l 1,2,-1
 409 -273 l 1,3,-1
 273 -273 l 1,0,-1
0 0 m 1,4,-1
 0 136 l 1,5,-1
 273 136 l 1,6,-1
 273 1092 l 1,7,-1
 0 1092 l 1,8,-1
 0 1228 l 1,9,-1
 682 1228 l 1,10,-1
 682 1092 l 1,11,-1
 409 1092 l 1,12,-1
 409 136 l 1,13,-1
 682 136 l 1,14,-1
 682 0 l 1,15,-1
 0 0 l 1,4,-1
EndSplineSet
EndChar

StartChar: uni1ECB
Encoding: 7883 7883 256
Width: 273
GlyphClass: 1
Flags: W
LayerCount: 2
Fore
SplineSet
0 -273 m 1,0,-1
 0 -136 l 1,1,-1
 136 -136 l 1,2,-1
 136 -273 l 1,3,-1
 0 -273 l 1,0,-1
0 0 m 1,4,-1
 0 955 l 1,5,-1
 136 955 l 1,6,-1
 136 0 l 1,7,-1
 0 0 l 1,4,-1
0 1092 m 1,8,-1
 0 1228 l 1,9,-1
 136 1228 l 1,10,-1
 136 1092 l 1,11,-1
 0 1092 l 1,8,-1
EndSplineSet
EndChar

StartChar: uni1ECC
Encoding: 7884 7884 257
Width: 955
GlyphClass: 1
Flags: W
LayerCount: 2
Fore
SplineSet
409 -273 m 1,0,-1
 409 -136 l 1,1,-1
 546 -136 l 1,2,-1
 546 -273 l 1,3,-1
 409 -273 l 1,0,-1
136 0 m 1,4,-1
 136 136 l 1,5,-1
 682 136 l 1,6,-1
 682 0 l 1,7,-1
 136 0 l 1,4,-1
0 136 m 1,8,-1
 0 1092 l 1,9,-1
 136 1092 l 1,10,-1
 136 136 l 1,11,-1
 0 136 l 1,8,-1
682 136 m 1,12,-1
 682 1092 l 1,13,-1
 819 1092 l 1,14,-1
 819 136 l 1,15,-1
 682 136 l 1,12,-1
136 1092 m 1,16,-1
 136 1228 l 1,17,-1
 682 1228 l 1,18,-1
 682 1092 l 1,19,-1
 136 1092 l 1,16,-1
EndSplineSet
EndChar

StartChar: uni1ECD
Encoding: 7885 7885 258
Width: 819
GlyphClass: 1
Flags: W
LayerCount: 2
Fore
SplineSet
273 -273 m 1,0,-1
 273 -136 l 1,1,-1
 409 -136 l 1,2,-1
 409 -273 l 1,3,-1
 273 -273 l 1,0,-1
136 0 m 1,4,-1
 136 136 l 1,5,-1
 546 136 l 1,6,-1
 546 0 l 1,7,-1
 136 0 l 1,4,-1
0 136 m 1,8,-1
 0 819 l 1,9,-1
 136 819 l 1,10,-1
 136 136 l 1,11,-1
 0 136 l 1,8,-1
546 136 m 1,12,-1
 546 819 l 1,13,-1
 682 819 l 1,14,-1
 682 136 l 1,15,-1
 546 136 l 1,12,-1
136 819 m 1,16,-1
 136 955 l 1,17,-1
 546 955 l 1,18,-1
 546 819 l 1,19,-1
 136 819 l 1,16,-1
EndSplineSet
EndChar

StartChar: uni1ECE
Encoding: 7886 7886 259
Width: 955
GlyphClass: 1
Flags: W
LayerCount: 2
Fore
SplineSet
136 0 m 1,0,-1
 136 136 l 1,1,-1
 682 136 l 1,2,-1
 682 0 l 1,3,-1
 136 0 l 1,0,-1
0 136 m 1,4,-1
 0 1092 l 1,5,-1
 136 1092 l 1,6,-1
 136 136 l 1,7,-1
 0 136 l 1,4,-1
682 136 m 1,8,-1
 682 1092 l 1,9,-1
 819 1092 l 1,10,-1
 819 136 l 1,11,-1
 682 136 l 1,8,-1
136 1092 m 1,12,-1
 136 1228 l 1,13,-1
 682 1228 l 1,14,-1
 682 1092 l 1,15,-1
 136 1092 l 1,12,-1
409 1365 m 1,16,-1
 409 1501 l 1,17,-1
 273 1501 l 1,18,-1
 273 1638 l 1,19,-1
 546 1638 l 1,20,-1
 546 1365 l 1,21,-1
 409 1365 l 1,16,-1
EndSplineSet
EndChar

StartChar: uni1ECF
Encoding: 7887 7887 260
Width: 819
GlyphClass: 1
Flags: W
LayerCount: 2
Fore
SplineSet
136 0 m 1,0,-1
 136 136 l 1,1,-1
 546 136 l 1,2,-1
 546 0 l 1,3,-1
 136 0 l 1,0,-1
0 136 m 1,4,-1
 0 819 l 1,5,-1
 136 819 l 1,6,-1
 136 136 l 1,7,-1
 0 136 l 1,4,-1
546 136 m 1,8,-1
 546 819 l 1,9,-1
 682 819 l 1,10,-1
 682 136 l 1,11,-1
 546 136 l 1,8,-1
136 819 m 1,12,-1
 136 955 l 1,13,-1
 546 955 l 1,14,-1
 546 819 l 1,15,-1
 136 819 l 1,12,-1
273 1092 m 1,16,-1
 273 1228 l 1,17,-1
 136 1228 l 1,18,-1
 136 1365 l 1,19,-1
 409 1365 l 1,20,-1
 409 1092 l 1,21,-1
 273 1092 l 1,16,-1
EndSplineSet
EndChar

StartChar: uni1ED0
Encoding: 7888 7888 261
Width: 955
GlyphClass: 1
Flags: W
LayerCount: 2
Fore
SplineSet
136 0 m 1,0,-1
 136 136 l 1,1,-1
 682 136 l 1,2,-1
 682 0 l 1,3,-1
 136 0 l 1,0,-1
0 136 m 1,4,-1
 0 1092 l 1,5,-1
 136 1092 l 1,6,-1
 136 136 l 1,7,-1
 0 136 l 1,4,-1
682 136 m 1,8,-1
 682 1092 l 1,9,-1
 819 1092 l 1,10,-1
 819 136 l 1,11,-1
 682 136 l 1,8,-1
136 1092 m 1,12,-1
 136 1228 l 1,13,-1
 682 1228 l 1,14,-1
 682 1092 l 1,15,-1
 136 1092 l 1,12,-1
136 1365 m 1,16,-1
 136 1501 l 1,17,-1
 273 1501 l 1,18,-1
 273 1365 l 1,19,-1
 136 1365 l 1,16,-1
409 1365 m 1,20,-1
 409 1501 l 1,21,-1
 546 1501 l 1,22,-1
 546 1365 l 1,23,-1
 409 1365 l 1,20,-1
273 1501 m 1,24,-1
 273 1638 l 1,25,-1
 409 1638 l 1,26,-1
 409 1501 l 1,27,-1
 273 1501 l 1,24,-1
546 1638 m 1,28,-1
 546 1774 l 1,29,-1
 682 1774 l 1,30,-1
 682 1638 l 1,31,-1
 546 1638 l 1,28,-1
682 1774 m 1,32,-1
 682 1911 l 1,33,-1
 819 1911 l 1,34,-1
 819 1774 l 1,35,-1
 682 1774 l 1,32,-1
EndSplineSet
EndChar

StartChar: uni1ED1
Encoding: 7889 7889 262
Width: 819
GlyphClass: 1
Flags: W
LayerCount: 2
Fore
SplineSet
136 0 m 1,0,-1
 136 136 l 1,1,-1
 546 136 l 1,2,-1
 546 0 l 1,3,-1
 136 0 l 1,0,-1
0 136 m 1,4,-1
 0 819 l 1,5,-1
 136 819 l 1,6,-1
 136 136 l 1,7,-1
 0 136 l 1,4,-1
546 136 m 1,8,-1
 546 819 l 1,9,-1
 682 819 l 1,10,-1
 682 136 l 1,11,-1
 546 136 l 1,8,-1
136 819 m 1,12,-1
 136 955 l 1,13,-1
 546 955 l 1,14,-1
 546 819 l 1,15,-1
 136 819 l 1,12,-1
136 1092 m 1,16,-1
 136 1228 l 1,17,-1
 273 1228 l 1,18,-1
 273 1092 l 1,19,-1
 136 1092 l 1,16,-1
409 1092 m 1,20,-1
 409 1228 l 1,21,-1
 546 1228 l 1,22,-1
 546 1092 l 1,23,-1
 409 1092 l 1,20,-1
273 1228 m 1,24,-1
 273 1365 l 1,25,-1
 409 1365 l 1,26,-1
 409 1228 l 1,27,-1
 273 1228 l 1,24,-1
273 1501 m 1,28,-1
 273 1638 l 1,29,-1
 409 1638 l 1,30,-1
 409 1501 l 1,31,-1
 273 1501 l 1,28,-1
409 1638 m 1,32,-1
 409 1774 l 1,33,-1
 546 1774 l 1,34,-1
 546 1638 l 1,35,-1
 409 1638 l 1,32,-1
EndSplineSet
EndChar

StartChar: uni1ED2
Encoding: 7890 7890 263
Width: 955
GlyphClass: 1
Flags: W
LayerCount: 2
Fore
SplineSet
136 0 m 1,0,-1
 136 136 l 1,1,-1
 682 136 l 1,2,-1
 682 0 l 1,3,-1
 136 0 l 1,0,-1
0 136 m 1,4,-1
 0 1092 l 1,5,-1
 136 1092 l 1,6,-1
 136 136 l 1,7,-1
 0 136 l 1,4,-1
682 136 m 1,8,-1
 682 1092 l 1,9,-1
 819 1092 l 1,10,-1
 819 136 l 1,11,-1
 682 136 l 1,8,-1
136 1092 m 1,12,-1
 136 1228 l 1,13,-1
 682 1228 l 1,14,-1
 682 1092 l 1,15,-1
 136 1092 l 1,12,-1
136 1365 m 1,16,-1
 136 1501 l 1,17,-1
 273 1501 l 1,18,-1
 273 1365 l 1,19,-1
 136 1365 l 1,16,-1
409 1365 m 1,20,-1
 409 1501 l 1,21,-1
 546 1501 l 1,22,-1
 546 1365 l 1,23,-1
 409 1365 l 1,20,-1
273 1501 m 1,24,-1
 273 1638 l 1,25,-1
 409 1638 l 1,26,-1
 409 1501 l 1,27,-1
 273 1501 l 1,24,-1
682 1501 m 1,28,-1
 682 1638 l 1,29,-1
 819 1638 l 1,30,-1
 819 1501 l 1,31,-1
 682 1501 l 1,28,-1
546 1638 m 1,32,-1
 546 1774 l 1,33,-1
 682 1774 l 1,34,-1
 682 1638 l 1,35,-1
 546 1638 l 1,32,-1
EndSplineSet
EndChar

StartChar: uni1ED3
Encoding: 7891 7891 264
Width: 819
GlyphClass: 1
Flags: W
LayerCount: 2
Fore
SplineSet
136 0 m 1,0,-1
 136 136 l 1,1,-1
 546 136 l 1,2,-1
 546 0 l 1,3,-1
 136 0 l 1,0,-1
0 136 m 1,4,-1
 0 819 l 1,5,-1
 136 819 l 1,6,-1
 136 136 l 1,7,-1
 0 136 l 1,4,-1
546 136 m 1,8,-1
 546 819 l 1,9,-1
 682 819 l 1,10,-1
 682 136 l 1,11,-1
 546 136 l 1,8,-1
136 819 m 1,12,-1
 136 955 l 1,13,-1
 546 955 l 1,14,-1
 546 819 l 1,15,-1
 136 819 l 1,12,-1
136 1092 m 1,16,-1
 136 1228 l 1,17,-1
 273 1228 l 1,18,-1
 273 1092 l 1,19,-1
 136 1092 l 1,16,-1
409 1092 m 1,20,-1
 409 1228 l 1,21,-1
 546 1228 l 1,22,-1
 546 1092 l 1,23,-1
 409 1092 l 1,20,-1
273 1228 m 1,24,-1
 273 1365 l 1,25,-1
 409 1365 l 1,26,-1
 409 1228 l 1,27,-1
 273 1228 l 1,24,-1
546 1365 m 1,28,-1
 546 1501 l 1,29,-1
 682 1501 l 1,30,-1
 682 1365 l 1,31,-1
 546 1365 l 1,28,-1
409 1501 m 1,32,-1
 409 1638 l 1,33,-1
 546 1638 l 1,34,-1
 546 1501 l 1,35,-1
 409 1501 l 1,32,-1
EndSplineSet
EndChar

StartChar: uni1ED4
Encoding: 7892 7892 265
Width: 955
GlyphClass: 1
Flags: W
LayerCount: 2
Fore
SplineSet
136 0 m 1,0,-1
 136 136 l 1,1,-1
 682 136 l 1,2,-1
 682 0 l 1,3,-1
 136 0 l 1,0,-1
0 136 m 1,4,-1
 0 1092 l 1,5,-1
 136 1092 l 1,6,-1
 136 136 l 1,7,-1
 0 136 l 1,4,-1
682 136 m 1,8,-1
 682 1092 l 1,9,-1
 819 1092 l 1,10,-1
 819 136 l 1,11,-1
 682 136 l 1,8,-1
136 1092 m 1,12,-1
 136 1228 l 1,13,-1
 682 1228 l 1,14,-1
 682 1092 l 1,15,-1
 136 1092 l 1,12,-1
136 1365 m 1,16,-1
 136 1501 l 1,17,-1
 273 1501 l 1,18,-1
 273 1365 l 1,19,-1
 136 1365 l 1,16,-1
409 1365 m 1,20,-1
 409 1501 l 1,21,-1
 546 1501 l 1,22,-1
 546 1365 l 1,23,-1
 409 1365 l 1,20,-1
273 1501 m 1,24,-1
 273 1638 l 1,25,-1
 409 1638 l 1,26,-1
 409 1501 l 1,27,-1
 273 1501 l 1,24,-1
682 1501 m 1,28,-1
 682 1638 l 1,29,-1
 546 1638 l 1,30,-1
 546 1774 l 1,31,-1
 819 1774 l 1,32,-1
 819 1501 l 1,33,-1
 682 1501 l 1,28,-1
EndSplineSet
EndChar

StartChar: uni1ED5
Encoding: 7893 7893 266
Width: 819
GlyphClass: 1
Flags: W
LayerCount: 2
Fore
SplineSet
136 0 m 1,0,-1
 136 136 l 1,1,-1
 546 136 l 1,2,-1
 546 0 l 1,3,-1
 136 0 l 1,0,-1
0 136 m 1,4,-1
 0 819 l 1,5,-1
 136 819 l 1,6,-1
 136 136 l 1,7,-1
 0 136 l 1,4,-1
546 136 m 1,8,-1
 546 819 l 1,9,-1
 682 819 l 1,10,-1
 682 136 l 1,11,-1
 546 136 l 1,8,-1
136 819 m 1,12,-1
 136 955 l 1,13,-1
 546 955 l 1,14,-1
 546 819 l 1,15,-1
 136 819 l 1,12,-1
136 1092 m 1,16,-1
 136 1228 l 1,17,-1
 273 1228 l 1,18,-1
 273 1092 l 1,19,-1
 136 1092 l 1,16,-1
409 1092 m 1,20,-1
 409 1228 l 1,21,-1
 546 1228 l 1,22,-1
 546 1092 l 1,23,-1
 409 1092 l 1,20,-1
273 1228 m 1,24,-1
 273 1365 l 1,25,-1
 409 1365 l 1,26,-1
 409 1228 l 1,27,-1
 273 1228 l 1,24,-1
546 1365 m 1,28,-1
 546 1501 l 1,29,-1
 409 1501 l 1,30,-1
 409 1638 l 1,31,-1
 682 1638 l 1,32,-1
 682 1365 l 1,33,-1
 546 1365 l 1,28,-1
EndSplineSet
EndChar

StartChar: uni1ED6
Encoding: 7894 7894 267
Width: 955
GlyphClass: 1
Flags: W
LayerCount: 2
Fore
SplineSet
136 0 m 1,0,-1
 136 136 l 1,1,-1
 682 136 l 1,2,-1
 682 0 l 1,3,-1
 136 0 l 1,0,-1
0 136 m 1,4,-1
 0 1092 l 1,5,-1
 136 1092 l 1,6,-1
 136 136 l 1,7,-1
 0 136 l 1,4,-1
682 136 m 1,8,-1
 682 1092 l 1,9,-1
 819 1092 l 1,10,-1
 819 136 l 1,11,-1
 682 136 l 1,8,-1
136 1092 m 1,12,-1
 136 1228 l 1,13,-1
 682 1228 l 1,14,-1
 682 1092 l 1,15,-1
 136 1092 l 1,12,-1
136 1365 m 1,16,-1
 136 1501 l 1,17,-1
 273 1501 l 1,18,-1
 273 1365 l 1,19,-1
 136 1365 l 1,16,-1
409 1365 m 1,20,-1
 409 1501 l 1,21,-1
 546 1501 l 1,22,-1
 546 1365 l 1,23,-1
 409 1365 l 1,20,-1
273 1501 m 1,24,-1
 273 1638 l 1,25,-1
 409 1638 l 1,26,-1
 409 1501 l 1,27,-1
 273 1501 l 1,24,-1
0 1638 m 1,28,-1
 0 1774 l 1,29,-1
 136 1774 l 1,30,-1
 136 1638 l 1,31,-1
 0 1638 l 1,28,-1
546 1638 m 1,32,-1
 546 1774 l 1,33,-1
 682 1774 l 1,34,-1
 682 1638 l 1,35,-1
 546 1638 l 1,32,-1
136 1774 m 1,36,-1
 136 1911 l 1,37,-1
 546 1911 l 1,38,-1
 546 1774 l 1,39,-1
 136 1774 l 1,36,-1
682 1774 m 1,40,-1
 682 1911 l 1,41,-1
 819 1911 l 1,42,-1
 819 1774 l 1,43,-1
 682 1774 l 1,40,-1
EndSplineSet
EndChar

StartChar: uni1ED7
Encoding: 7895 7895 268
Width: 819
GlyphClass: 1
Flags: W
LayerCount: 2
Fore
SplineSet
136 0 m 1,0,-1
 136 136 l 1,1,-1
 546 136 l 1,2,-1
 546 0 l 1,3,-1
 136 0 l 1,0,-1
0 136 m 1,4,-1
 0 819 l 1,5,-1
 136 819 l 1,6,-1
 136 136 l 1,7,-1
 0 136 l 1,4,-1
546 136 m 1,8,-1
 546 819 l 1,9,-1
 682 819 l 1,10,-1
 682 136 l 1,11,-1
 546 136 l 1,8,-1
136 819 m 1,12,-1
 136 955 l 1,13,-1
 546 955 l 1,14,-1
 546 819 l 1,15,-1
 136 819 l 1,12,-1
136 1092 m 1,16,-1
 136 1228 l 1,17,-1
 273 1228 l 1,18,-1
 273 1092 l 1,19,-1
 136 1092 l 1,16,-1
409 1092 m 1,20,-1
 409 1228 l 1,21,-1
 546 1228 l 1,22,-1
 546 1092 l 1,23,-1
 409 1092 l 1,20,-1
273 1228 m 1,24,-1
 273 1365 l 1,25,-1
 409 1365 l 1,26,-1
 409 1228 l 1,27,-1
 273 1228 l 1,24,-1
0 1365 m 1,28,-1
 0 1501 l 1,29,-1
 136 1501 l 1,30,-1
 136 1365 l 1,31,-1
 0 1365 l 1,28,-1
546 1365 m 1,32,-1
 546 1501 l 1,33,-1
 682 1501 l 1,34,-1
 682 1365 l 1,35,-1
 546 1365 l 1,32,-1
136 1501 m 1,36,-1
 136 1638 l 1,37,-1
 546 1638 l 1,38,-1
 546 1501 l 1,39,-1
 136 1501 l 1,36,-1
682 1501 m 1,40,-1
 682 1638 l 1,41,-1
 819 1638 l 1,42,-1
 819 1501 l 1,43,-1
 682 1501 l 1,40,-1
EndSplineSet
EndChar

StartChar: uni1ED8
Encoding: 7896 7896 269
Width: 955
GlyphClass: 1
Flags: W
LayerCount: 2
Fore
SplineSet
409 -273 m 1,0,-1
 409 -136 l 1,1,-1
 546 -136 l 1,2,-1
 546 -273 l 1,3,-1
 409 -273 l 1,0,-1
136 0 m 1,4,-1
 136 136 l 1,5,-1
 682 136 l 1,6,-1
 682 0 l 1,7,-1
 136 0 l 1,4,-1
0 136 m 1,8,-1
 0 1092 l 1,9,-1
 136 1092 l 1,10,-1
 136 136 l 1,11,-1
 0 136 l 1,8,-1
682 136 m 1,12,-1
 682 1092 l 1,13,-1
 819 1092 l 1,14,-1
 819 136 l 1,15,-1
 682 136 l 1,12,-1
136 1092 m 1,16,-1
 136 1228 l 1,17,-1
 682 1228 l 1,18,-1
 682 1092 l 1,19,-1
 136 1092 l 1,16,-1
136 1365 m 1,20,-1
 136 1501 l 1,21,-1
 273 1501 l 1,22,-1
 273 1365 l 1,23,-1
 136 1365 l 1,20,-1
546 1365 m 1,24,-1
 546 1501 l 1,25,-1
 682 1501 l 1,26,-1
 682 1365 l 1,27,-1
 546 1365 l 1,24,-1
273 1501 m 1,28,-1
 273 1638 l 1,29,-1
 546 1638 l 1,30,-1
 546 1501 l 1,31,-1
 273 1501 l 1,28,-1
EndSplineSet
EndChar

StartChar: uni1ED9
Encoding: 7897 7897 270
Width: 819
GlyphClass: 1
Flags: W
LayerCount: 2
Fore
SplineSet
273 -273 m 1,0,-1
 273 -136 l 1,1,-1
 409 -136 l 1,2,-1
 409 -273 l 1,3,-1
 273 -273 l 1,0,-1
136 0 m 1,4,-1
 136 136 l 1,5,-1
 546 136 l 1,6,-1
 546 0 l 1,7,-1
 136 0 l 1,4,-1
0 136 m 1,8,-1
 0 819 l 1,9,-1
 136 819 l 1,10,-1
 136 136 l 1,11,-1
 0 136 l 1,8,-1
546 136 m 1,12,-1
 546 819 l 1,13,-1
 682 819 l 1,14,-1
 682 136 l 1,15,-1
 546 136 l 1,12,-1
136 819 m 1,16,-1
 136 955 l 1,17,-1
 546 955 l 1,18,-1
 546 819 l 1,19,-1
 136 819 l 1,16,-1
136 1092 m 1,20,-1
 136 1228 l 1,21,-1
 273 1228 l 1,22,-1
 273 1092 l 1,23,-1
 136 1092 l 1,20,-1
409 1092 m 1,24,-1
 409 1228 l 1,25,-1
 546 1228 l 1,26,-1
 546 1092 l 1,27,-1
 409 1092 l 1,24,-1
273 1228 m 1,28,-1
 273 1365 l 1,29,-1
 409 1365 l 1,30,-1
 409 1228 l 1,31,-1
 273 1228 l 1,28,-1
EndSplineSet
EndChar

StartChar: uni1EDA
Encoding: 7898 7898 271
Width: 1024
GlyphClass: 1
Flags: W
LayerCount: 2
Fore
SplineSet
136 0 m 1,0,-1
 136 136 l 1,1,-1
 682 136 l 1,2,-1
 682 0 l 1,3,-1
 136 0 l 1,0,-1
0 136 m 1,4,-1
 0 1092 l 1,5,-1
 136 1092 l 1,6,-1
 136 136 l 1,7,-1
 0 136 l 1,4,-1
682 136 m 1,8,-1
 682 1092 l 1,9,-1
 819 1092 l 1,10,-1
 819 136 l 1,11,-1
 682 136 l 1,8,-1
136 1092 m 1,12,-1
 136 1228 l 1,13,-1
 682 1228 l 1,14,-1
 682 1092 l 1,15,-1
 136 1092 l 1,12,-1
273 1365 m 1,16,-1
 273 1501 l 1,17,-1
 409 1501 l 1,18,-1
 409 1365 l 1,19,-1
 273 1365 l 1,16,-1
819 1092 m 1,20,-1
 819 1365 l 1,21,-1
 682 1365 l 1,22,-1
 682 1501 l 1,23,-1
 955 1501 l 1,24,-1
 955 1092 l 1,25,-1
 819 1092 l 1,20,-1
409 1501 m 1,26,-1
 409 1638 l 1,27,-1
 546 1638 l 1,28,-1
 546 1501 l 1,29,-1
 409 1501 l 1,26,-1
EndSplineSet
EndChar

StartChar: uni1EDB
Encoding: 7899 7899 272
Width: 887
GlyphClass: 1
Flags: W
LayerCount: 2
Fore
SplineSet
136 0 m 1,0,-1
 136 136 l 1,1,-1
 546 136 l 1,2,-1
 546 0 l 1,3,-1
 136 0 l 1,0,-1
0 136 m 1,4,-1
 0 819 l 1,5,-1
 136 819 l 1,6,-1
 136 136 l 1,7,-1
 0 136 l 1,4,-1
546 136 m 1,8,-1
 546 819 l 1,9,-1
 682 819 l 1,10,-1
 682 136 l 1,11,-1
 546 136 l 1,8,-1
136 819 m 1,12,-1
 136 955 l 1,13,-1
 546 955 l 1,14,-1
 546 819 l 1,15,-1
 136 819 l 1,12,-1
136 1092 m 1,16,-1
 136 1228 l 1,17,-1
 273 1228 l 1,18,-1
 273 1092 l 1,19,-1
 136 1092 l 1,16,-1
682 819 m 1,20,-1
 682 1092 l 1,21,-1
 546 1092 l 1,22,-1
 546 1228 l 1,23,-1
 819 1228 l 1,24,-1
 819 819 l 1,25,-1
 682 819 l 1,20,-1
273 1228 m 1,26,-1
 273 1365 l 1,27,-1
 409 1365 l 1,28,-1
 409 1228 l 1,29,-1
 273 1228 l 1,26,-1
EndSplineSet
EndChar

StartChar: uni1EDC
Encoding: 7900 7900 273
Width: 1024
GlyphClass: 1
Flags: W
LayerCount: 2
Fore
SplineSet
136 0 m 1,0,-1
 136 136 l 1,1,-1
 682 136 l 1,2,-1
 682 0 l 1,3,-1
 136 0 l 1,0,-1
0 136 m 1,4,-1
 0 1092 l 1,5,-1
 136 1092 l 1,6,-1
 136 136 l 1,7,-1
 0 136 l 1,4,-1
682 136 m 1,8,-1
 682 1092 l 1,9,-1
 819 1092 l 1,10,-1
 819 136 l 1,11,-1
 682 136 l 1,8,-1
136 1092 m 1,12,-1
 136 1228 l 1,13,-1
 682 1228 l 1,14,-1
 682 1092 l 1,15,-1
 136 1092 l 1,12,-1
409 1365 m 1,16,-1
 409 1501 l 1,17,-1
 546 1501 l 1,18,-1
 546 1365 l 1,19,-1
 409 1365 l 1,16,-1
819 1092 m 1,20,-1
 819 1365 l 1,21,-1
 682 1365 l 1,22,-1
 682 1501 l 1,23,-1
 955 1501 l 1,24,-1
 955 1092 l 1,25,-1
 819 1092 l 1,20,-1
273 1501 m 1,26,-1
 273 1638 l 1,27,-1
 409 1638 l 1,28,-1
 409 1501 l 1,29,-1
 273 1501 l 1,26,-1
EndSplineSet
EndChar

StartChar: uni1EDD
Encoding: 7901 7901 274
Width: 887
GlyphClass: 1
Flags: W
LayerCount: 2
Fore
SplineSet
136 0 m 1,0,-1
 136 136 l 1,1,-1
 546 136 l 1,2,-1
 546 0 l 1,3,-1
 136 0 l 1,0,-1
0 136 m 1,4,-1
 0 819 l 1,5,-1
 136 819 l 1,6,-1
 136 136 l 1,7,-1
 0 136 l 1,4,-1
546 136 m 1,8,-1
 546 819 l 1,9,-1
 682 819 l 1,10,-1
 682 136 l 1,11,-1
 546 136 l 1,8,-1
136 819 m 1,12,-1
 136 955 l 1,13,-1
 546 955 l 1,14,-1
 546 819 l 1,15,-1
 136 819 l 1,12,-1
273 1092 m 1,16,-1
 273 1228 l 1,17,-1
 409 1228 l 1,18,-1
 409 1092 l 1,19,-1
 273 1092 l 1,16,-1
682 819 m 1,20,-1
 682 1092 l 1,21,-1
 546 1092 l 1,22,-1
 546 1228 l 1,23,-1
 819 1228 l 1,24,-1
 819 819 l 1,25,-1
 682 819 l 1,20,-1
136 1228 m 1,26,-1
 136 1365 l 1,27,-1
 273 1365 l 1,28,-1
 273 1228 l 1,29,-1
 136 1228 l 1,26,-1
EndSplineSet
EndChar

StartChar: uni1EDE
Encoding: 7902 7902 275
Width: 1024
GlyphClass: 1
Flags: W
LayerCount: 2
Fore
SplineSet
136 0 m 1,0,-1
 136 136 l 1,1,-1
 682 136 l 1,2,-1
 682 0 l 1,3,-1
 136 0 l 1,0,-1
0 136 m 1,4,-1
 0 1092 l 1,5,-1
 136 1092 l 1,6,-1
 136 136 l 1,7,-1
 0 136 l 1,4,-1
682 136 m 1,8,-1
 682 1092 l 1,9,-1
 819 1092 l 1,10,-1
 819 136 l 1,11,-1
 682 136 l 1,8,-1
136 1092 m 1,12,-1
 136 1228 l 1,13,-1
 682 1228 l 1,14,-1
 682 1092 l 1,15,-1
 136 1092 l 1,12,-1
819 1092 m 1,16,-1
 819 1365 l 1,17,-1
 682 1365 l 1,18,-1
 682 1501 l 1,19,-1
 955 1501 l 1,20,-1
 955 1092 l 1,21,-1
 819 1092 l 1,16,-1
409 1365 m 1,22,-1
 409 1501 l 1,23,-1
 273 1501 l 1,24,-1
 273 1638 l 1,25,-1
 546 1638 l 1,26,-1
 546 1365 l 1,27,-1
 409 1365 l 1,22,-1
EndSplineSet
EndChar

